Rasa-Bold.ufo
<glyph name="exclam" format="1">
  <advance width="710"/>
  <unicode hex="0021"/>
  <outline>
    <contour>
      <point x="156" y="1501" type="line"/>
      <point x="247" y="508" type="line"/>
      <point x="463" y="508" type="line"/>
      <point x="554" y="1501" type="line"/>
      <point x="554" y="1712" type="line"/>
      <point x="156" y="1712" type="line"/>
    </contour>
    <contour>
      <point x="556" y="163" type="curve" smooth="yes"/>
      <point x="556" y="273"/>
      <point x="477" y="343"/>
      <point x="355" y="343" type="curve" smooth="yes"/>
      <point x="233" y="343"/>
      <point x="154" y="273"/>
      <point x="154" y="163" type="curve" smooth="yes"/>
      <point x="154" y="54"/>
      <point x="233" y="-16"/>
      <point x="355" y="-16" type="curve" smooth="yes"/>
      <point x="477" y="-16"/>
      <point x="556" y="54"/>
    </contour>
  </outline>
</glyph>
<glyph name="numbersign" format="1">
  <advance width="547"/>
  <unicode hex="0023"/>
  <outline>
    <contour>
      <point x="94" y="0" type="line"/>
      <point x="192" y="0" type="line"/>
      <point x="206" y="127" type="line"/>
      <point x="305" y="127" type="line"/>
      <point x="291" y="0" type="line"/>
      <point x="389" y="0" type="line"/>
      <point x="403" y="127" type="line"/>
      <point x="500" y="127" type="line"/>
      <point x="499" y="193" type="line"/>
      <point x="411" y="193" type="line"/>
      <point x="423" y="313" type="line"/>
      <point x="515" y="313" type="line"/>
      <point x="516" y="378" type="line"/>
      <point x="433" y="378" type="line"/>
      <point x="447" y="499" type="line"/>
      <point x="349" y="499" type="line"/>
      <point x="336" y="378" type="line"/>
      <point x="238" y="378" type="line"/>
      <point x="251" y="499" type="line"/>
      <point x="153" y="499" type="line"/>
      <point x="140" y="378" type="line"/>
      <point x="45" y="378" type="line"/>
      <point x="45" y="313" type="line"/>
      <point x="131" y="313" type="line"/>
      <point x="117" y="193" type="line"/>
      <point x="33" y="193" type="line"/>
      <point x="34" y="127" type="line"/>
      <point x="109" y="127" type="line"/>
    </contour>
    <contour>
      <point x="215" y="193" type="line"/>
      <point x="227" y="313" type="line"/>
      <point x="325" y="313" type="line"/>
      <point x="311" y="193" type="line"/>
    </contour>
  </outline>
</glyph>
<glyph name="dollar" format="1">
  <advance width="448"/>
  <unicode hex="0024"/>
  <outline>
    <contour>
      <point x="173" y="19" type="line"/>
      <point x="173" y="-76" type="line"/>
      <point x="244" y="-76" type="line"/>
      <point x="244" y="19" type="line"/>
    </contour>
    <contour>
      <point x="207" y="484" type="line"/>
      <point x="279" y="484" type="line"/>
      <point x="279" y="579" type="line"/>
      <point x="207" y="579" type="line"/>
    </contour>
    <contour>
      <point x="420" y="154" type="curve" smooth="yes"/>
      <point x="420" y="226"/>
      <point x="363" y="264"/>
      <point x="279" y="304" type="curve" smooth="yes"/>
      <point x="214" y="335"/>
      <point x="163" y="352"/>
      <point x="163" y="396" type="curve" smooth="yes"/>
      <point x="163" y="424"/>
      <point x="184" y="444"/>
      <point x="225" y="444" type="curve" smooth="yes"/>
      <point x="246" y="444"/>
      <point x="265" y="440"/>
      <point x="277" y="431" type="curve" smooth="yes"/>
      <point x="285" y="425"/>
      <point x="289" y="418"/>
      <point x="291" y="406" type="curve" smooth="yes"/>
      <point x="307" y="336" type="line"/>
      <point x="381" y="336" type="line"/>
      <point x="389" y="378"/>
      <point x="392" y="427"/>
      <point x="389" y="469" type="curve"/>
      <point x="348" y="485"/>
      <point x="288" y="496"/>
      <point x="234" y="496" type="curve" smooth="yes"/>
      <point x="104" y="496"/>
      <point x="40" y="432"/>
      <point x="40" y="356" type="curve" smooth="yes"/>
      <point x="40" y="281"/>
      <point x="101" y="244"/>
      <point x="174" y="210" type="curve" smooth="yes"/>
      <point x="237" y="181"/>
      <point x="291" y="160"/>
      <point x="291" y="114" type="curve" smooth="yes"/>
      <point x="291" y="82"/>
      <point x="265" y="61"/>
      <point x="223" y="61" type="curve" smooth="yes"/>
      <point x="190" y="61"/>
      <point x="165" y="73"/>
      <point x="151" y="84" type="curve" smooth="yes"/>
      <point x="144" y="90"/>
      <point x="139" y="96"/>
      <point x="137" y="108" type="curve" smooth="yes"/>
      <point x="123" y="185" type="line"/>
      <point x="46" y="185" type="line"/>
      <point x="39" y="148"/>
      <point x="34" y="91"/>
      <point x="37" y="44" type="curve"/>
      <point x="80" y="25"/>
      <point x="146" y="6"/>
      <point x="218" y="6" type="curve" smooth="yes"/>
      <point x="364" y="6"/>
      <point x="420" y="82"/>
    </contour>
  </outline>
</glyph>
<glyph name="ampersand" format="1">
  <advance width="1674"/>
  <unicode hex="0026"/>
  <outline>
    <contour>
      <point x="1599" y="726" type="line"/>
      <point x="1599" y="877" type="line"/>
      <point x="1043" y="877" type="line"/>
      <point x="1043" y="726" type="line"/>
      <point x="1195" y="693" type="line" smooth="yes"/>
      <point x="1226" y="685"/>
      <point x="1231" y="666"/>
      <point x="1231" y="629" type="curve" smooth="yes"/>
      <point x="1231" y="535"/>
      <point x="1203" y="400"/>
      <point x="1102" y="311" type="curve"/>
      <point x="985" y="227" type="line"/>
      <point x="894" y="147"/>
      <point x="787" y="126"/>
      <point x="710" y="126" type="curve" smooth="yes"/>
      <point x="519" y="126"/>
      <point x="406" y="248"/>
      <point x="406" y="428" type="curve" smooth="yes"/>
      <point x="406" y="582"/>
      <point x="489" y="644"/>
      <point x="564" y="713" type="curve"/>
      <point x="722" y="814" type="line"/>
      <point x="1013" y="881"/>
      <point x="1146" y="1039"/>
      <point x="1146" y="1244" type="curve" smooth="yes"/>
      <point x="1146" y="1457"/>
      <point x="1003" y="1591"/>
      <point x="729" y="1591" type="curve" smooth="yes"/>
      <point x="430" y="1591"/>
      <point x="235" y="1430"/>
      <point x="235" y="1183" type="curve" smooth="yes"/>
      <point x="235" y="1016"/>
      <point x="323" y="863"/>
      <point x="458" y="683" type="curve" smooth="yes"/>
      <point x="555" y="555"/>
      <point x="758" y="301"/>
      <point x="939" y="146" type="curve" smooth="yes"/>
      <point x="1087" y="18"/>
      <point x="1192" y="-20"/>
      <point x="1311" y="-20" type="curve" smooth="yes"/>
      <point x="1400" y="-20"/>
      <point x="1512" y="1"/>
      <point x="1587" y="26" type="curve"/>
      <point x="1587" y="172" type="line"/>
      <point x="1446" y="172"/>
      <point x="1381" y="190"/>
      <point x="1237" y="325" type="curve" smooth="yes"/>
      <point x="1075" y="478"/>
      <point x="861" y="736"/>
      <point x="744" y="888" type="curve" smooth="yes"/>
      <point x="601" y="1077"/>
      <point x="570" y="1165"/>
      <point x="570" y="1269" type="curve" smooth="yes"/>
      <point x="570" y="1405"/>
      <point x="627" y="1474"/>
      <point x="715" y="1474" type="curve" smooth="yes"/>
      <point x="790" y="1474"/>
      <point x="842" y="1415"/>
      <point x="842" y="1270" type="curve" smooth="yes"/>
      <point x="842" y="1145"/>
      <point x="798" y="994"/>
      <point x="657" y="894" type="curve" smooth="yes"/>
      <point x="465" y="782" type="line"/>
      <point x="317" y="754"/>
      <point x="79" y="669"/>
      <point x="79" y="376" type="curve" smooth="yes"/>
      <point x="79" y="91"/>
      <point x="306" y="-30"/>
      <point x="613" y="-30" type="curve" smooth="yes"/>
      <point x="800" y="-30"/>
      <point x="979" y="27"/>
      <point x="1080" y="132" type="curve"/>
      <point x="1161" y="225" type="line"/>
      <point x="1343" y="330"/>
      <point x="1425" y="476"/>
      <point x="1457" y="636" type="curve" smooth="yes"/>
      <point x="1463" y="670"/>
      <point x="1465" y="686"/>
      <point x="1495" y="694" type="curve" smooth="yes"/>
    </contour>
  </outline>
</glyph>
<glyph name="quotesingle" format="1">
  <advance width="197"/>
  <unicode hex="0027"/>
  <outline>
    <contour>
      <point x="60" y="310" type="line"/>
      <point x="137" y="310" type="line"/>
      <point x="157" y="629" type="line"/>
      <point x="41" y="629" type="line"/>
    </contour>
  </outline>
</glyph>
<glyph name="parenleft" format="1">
  <advance width="272"/>
  <unicode hex="0028"/>
  <outline>
    <contour>
      <point x="259" y="-128" type="line"/>
      <point x="224" y="-68"/>
      <point x="149" y="57"/>
      <point x="150" y="294" type="curve" smooth="yes"/>
      <point x="150" y="512"/>
      <point x="223" y="636"/>
      <point x="259" y="696" type="curve"/>
      <point x="219" y="737" type="line"/>
      <point x="181" y="709"/>
      <point x="29" y="550"/>
      <point x="29" y="284" type="curve" smooth="yes"/>
      <point x="29" y="-3"/>
      <point x="187" y="-141"/>
      <point x="219" y="-169" type="curve"/>
    </contour>
  </outline>
</glyph>
<glyph name="parenright" format="1">
  <advance width="272"/>
  <unicode hex="0029"/>
  <outline>
    <contour>
      <point x="243" y="283" type="curve" smooth="yes"/>
      <point x="243" y="571"/>
      <point x="85" y="709"/>
      <point x="53" y="737" type="curve"/>
      <point x="13" y="696" type="line"/>
      <point x="48" y="635"/>
      <point x="123" y="511"/>
      <point x="122" y="274" type="curve" smooth="yes"/>
      <point x="122" y="55"/>
      <point x="49" y="-68"/>
      <point x="13" y="-128" type="curve"/>
      <point x="53" y="-169" type="line"/>
      <point x="91" y="-141"/>
      <point x="243" y="17"/>
    </contour>
  </outline>
</glyph>
<glyph name="asterisk" format="1">
  <advance width="443"/>
  <unicode hex="002A"/>
  <outline>
    <contour>
      <point x="239" y="499" type="line"/>
      <point x="266" y="595" type="line"/>
      <point x="273" y="651" type="line"/>
      <point x="170" y="651" type="line"/>
      <point x="177" y="595" type="line"/>
      <point x="204" y="499" type="line"/>
      <point x="204" y="440" type="line"/>
      <point x="177" y="344" type="line"/>
      <point x="170" y="288" type="line"/>
      <point x="273" y="288" type="line"/>
      <point x="266" y="344" type="line"/>
      <point x="239" y="440" type="line"/>
    </contour>
    <contour>
      <point x="204" y="499" type="line"/>
      <point x="135" y="571" type="line"/>
      <point x="90" y="604" type="line"/>
      <point x="39" y="516" type="line"/>
      <point x="91" y="493" type="line"/>
      <point x="187" y="469" type="line"/>
      <point x="239" y="440" type="line"/>
      <point x="308" y="368" type="line"/>
      <point x="353" y="335" type="line"/>
      <point x="404" y="423" type="line"/>
      <point x="352" y="445" type="line"/>
      <point x="256" y="469" type="line"/>
    </contour>
    <contour>
      <point x="256" y="469" type="line"/>
      <point x="352" y="493" type="line"/>
      <point x="404" y="516" type="line"/>
      <point x="353" y="604" type="line"/>
      <point x="308" y="571" type="line"/>
      <point x="239" y="499" type="line"/>
      <point x="187" y="469" type="line"/>
      <point x="91" y="445" type="line"/>
      <point x="39" y="423" type="line"/>
      <point x="90" y="335" type="line"/>
      <point x="135" y="368" type="line"/>
      <point x="204" y="440" type="line"/>
    </contour>
  </outline>
</glyph>
<glyph name="plus" format="1">
  <advance width="401"/>
  <unicode hex="002B"/>
  <outline>
    <contour>
      <point x="244" y="50" type="line"/>
      <point x="244" y="130" type="line"/>
      <point x="241" y="185" type="line"/>
      <point x="296" y="183" type="line"/>
      <point x="371" y="183" type="line"/>
      <point x="371" y="263" type="line"/>
      <point x="296" y="263" type="line"/>
      <point x="241" y="260" type="line"/>
      <point x="244" y="315" type="line"/>
      <point x="244" y="396" type="line"/>
      <point x="157" y="396" type="line"/>
      <point x="157" y="315" type="line"/>
      <point x="160" y="260" type="line"/>
      <point x="105" y="263" type="line"/>
      <point x="30" y="263" type="line"/>
      <point x="30" y="183" type="line"/>
      <point x="105" y="183" type="line"/>
      <point x="160" y="185" type="line"/>
      <point x="157" y="130" type="line"/>
      <point x="157" y="50" type="line"/>
    </contour>
  </outline>
</glyph>
<glyph name="comma" format="1">
  <advance width="226"/>
  <unicode hex="002C"/>
  <outline>
    <contour>
      <point x="121" y="-135"/>
      <point x="189" y="-60"/>
      <point x="189" y="30" type="curve" smooth="yes"/>
      <point x="189" y="94"/>
      <point x="155" y="132"/>
      <point x="107" y="132" type="curve" smooth="yes"/>
      <point x="66" y="132"/>
      <point x="37" y="105"/>
      <point x="37" y="64" type="curve" smooth="yes"/>
      <point x="37" y="36"/>
      <point x="52" y="17"/>
      <point x="68" y="6" type="curve" smooth="yes"/>
      <point x="81" y="-4"/>
      <point x="92" y="-5"/>
      <point x="92" y="-27" type="curve" smooth="yes"/>
      <point x="92" y="-62"/>
      <point x="64" y="-105"/>
      <point x="27" y="-140" type="curve"/>
      <point x="52" y="-172" type="line"/>
    </contour>
  </outline>
</glyph>
<glyph name="hyphen" format="1">
  <advance width="375"/>
  <unicode hex="002D"/>
  <outline>
    <contour>
      <point x="47" y="175" type="line"/>
      <point x="328" y="175" type="line"/>
      <point x="328" y="259" type="line"/>
      <point x="47" y="259" type="line"/>
    </contour>
  </outline>
</glyph>
<glyph name="period" format="1">
  <advance width="227"/>
  <unicode hex="002E"/>
  <outline>
    <contour>
      <point x="187" y="61" type="curve" smooth="yes"/>
      <point x="187" y="102"/>
      <point x="158" y="128"/>
      <point x="113" y="128" type="curve" smooth="yes"/>
      <point x="69" y="128"/>
      <point x="40" y="102"/>
      <point x="40" y="61" type="curve" smooth="yes"/>
      <point x="40" y="20"/>
      <point x="69" y="-6"/>
      <point x="113" y="-6" type="curve" smooth="yes"/>
      <point x="158" y="-6"/>
      <point x="187" y="20"/>
    </contour>
  </outline>
</glyph>
<glyph name="slash" format="1">
  <advance width="376"/>
  <unicode hex="002F"/>
  <outline>
    <contour>
      <point x="123" y="-105" type="line"/>
      <point x="357" y="633" type="line"/>
      <point x="255" y="633" type="line"/>
      <point x="20" y="-105" type="line"/>
    </contour>
  </outline>
</glyph>
<glyph name="zero" format="1">
  <advance width="507"/>
  <unicode hex="0030"/>
  <outline>
    <contour>
      <point x="185" y="269" type="curve" smooth="yes"/>
      <point x="185" y="107"/>
      <point x="205" y="45"/>
      <point x="255" y="45" type="curve" smooth="yes"/>
      <point x="300" y="45"/>
      <point x="323" y="95"/>
      <point x="323" y="235" type="curve" smooth="yes"/>
      <point x="323" y="397"/>
      <point x="303" y="457"/>
      <point x="252" y="457" type="curve" smooth="yes"/>
      <point x="207" y="457"/>
      <point x="185" y="408"/>
    </contour>
    <contour>
      <point x="40" y="246" type="curve" smooth="yes"/>
      <point x="40" y="431"/>
      <point x="132" y="513"/>
      <point x="261" y="513" type="curve" smooth="yes"/>
      <point x="413" y="513"/>
      <point x="467" y="407"/>
      <point x="467" y="258" type="curve" smooth="yes"/>
      <point x="467" y="72"/>
      <point x="376" y="-11"/>
      <point x="247" y="-11" type="curve" smooth="yes"/>
      <point x="94" y="-11"/>
      <point x="40" y="97"/>
    </contour>
  </outline>
</glyph>
<glyph name="one" format="1">
  <advance width="363"/>
  <unicode hex="0031"/>
  <outline>
    <contour>
      <point x="265" y="503" type="line"/>
      <point x="200" y="514" type="line"/>
      <point x="165" y="484"/>
      <point x="92" y="447"/>
      <point x="34" y="433" type="curve"/>
      <point x="43" y="379" type="line"/>
      <point x="70" y="379"/>
      <point x="116" y="384"/>
      <point x="138" y="388" type="curve"/>
      <point x="138" y="84" type="line" smooth="yes"/>
      <point x="138" y="72"/>
      <point x="132" y="65"/>
      <point x="120" y="64" type="curve" smooth="yes"/>
      <point x="34" y="51" type="line"/>
      <point x="34" y="0" type="line"/>
      <point x="352" y="0" type="line"/>
      <point x="352" y="51" type="line"/>
      <point x="282" y="63" type="line" smooth="yes"/>
      <point x="271" y="65"/>
      <point x="265" y="72"/>
      <point x="265" y="83" type="curve" smooth="yes"/>
    </contour>
  </outline>
</glyph>
<glyph name="two" format="1">
  <advance width="456"/>
  <unicode hex="0032"/>
  <outline>
    <contour>
      <point x="95" y="81" type="line"/>
      <point x="94" y="57" type="line"/>
      <point x="309" y="179"/>
      <point x="394" y="260"/>
      <point x="394" y="361" type="curve" smooth="yes"/>
      <point x="394" y="455"/>
      <point x="321" y="513"/>
      <point x="227" y="513" type="curve" smooth="yes"/>
      <point x="131" y="513"/>
      <point x="67" y="460"/>
      <point x="39" y="392" type="curve"/>
      <point x="78" y="356" type="line"/>
      <point x="107" y="395"/>
      <point x="141" y="416"/>
      <point x="178" y="416" type="curve" smooth="yes"/>
      <point x="218" y="416"/>
      <point x="253" y="391"/>
      <point x="253" y="340" type="curve" smooth="yes"/>
      <point x="253" y="272"/>
      <point x="191" y="210"/>
      <point x="23" y="68" type="curve"/>
      <point x="47" y="0" type="line"/>
      <point x="405" y="0" type="line"/>
      <point x="416" y="49"/>
      <point x="421" y="116"/>
      <point x="421" y="171" type="curve"/>
      <point x="354" y="179" type="line"/>
      <point x="320" y="106" type="line" smooth="yes"/>
      <point x="316" y="96"/>
      <point x="308" y="91"/>
      <point x="295" y="88" type="curve" smooth="yes"/>
      <point x="279" y="84"/>
      <point x="247" y="81"/>
      <point x="219" y="81" type="curve" smooth="yes"/>
    </contour>
  </outline>
</glyph>
<glyph name="three" format="1">
  <advance width="433"/>
  <unicode hex="0033"/>
  <outline>
    <contour>
      <point x="401" y="147" type="curve" smooth="yes"/>
      <point x="401" y="233"/>
      <point x="319" y="272"/>
      <point x="253" y="268" type="curve"/>
      <point x="310" y="283"/>
      <point x="372" y="332"/>
      <point x="372" y="394" type="curve" smooth="yes"/>
      <point x="372" y="478"/>
      <point x="300" y="513"/>
      <point x="222" y="513" type="curve" smooth="yes"/>
      <point x="131" y="513"/>
      <point x="75" y="469"/>
      <point x="43" y="420" type="curve"/>
      <point x="82" y="384" type="line"/>
      <point x="101" y="406"/>
      <point x="140" y="431"/>
      <point x="180" y="431" type="curve" smooth="yes"/>
      <point x="212" y="431"/>
      <point x="234" y="408"/>
      <point x="234" y="377" type="curve" smooth="yes"/>
      <point x="234" y="321"/>
      <point x="175" y="293"/>
      <point x="119" y="279" type="curve"/>
      <point x="133" y="223" type="line"/>
      <point x="148" y="225"/>
      <point x="172" y="231"/>
      <point x="187" y="234" type="curve"/>
      <point x="231" y="229"/>
      <point x="259" y="195"/>
      <point x="259" y="152" type="curve" smooth="yes"/>
      <point x="258" y="93"/>
      <point x="217" y="66"/>
      <point x="166" y="66" type="curve" smooth="yes"/>
      <point x="119" y="66"/>
      <point x="81" y="84"/>
      <point x="53" y="106" type="curve"/>
      <point x="20" y="60" type="line"/>
      <point x="53" y="26"/>
      <point x="107" y="-12"/>
      <point x="195" y="-12" type="curve" smooth="yes"/>
      <point x="306" y="-12"/>
      <point x="401" y="50"/>
    </contour>
  </outline>
</glyph>
<glyph name="four" format="1">
  <advance width="463"/>
  <unicode hex="0034"/>
  <outline>
    <contour>
      <point x="31" y="88" type="line"/>
      <point x="446" y="88" type="line"/>
      <point x="446" y="167" type="line"/>
      <point x="51" y="147" type="line"/>
      <point x="69" y="124" type="line"/>
      <point x="172" y="180"/>
      <point x="229" y="286"/>
      <point x="329" y="480" type="curve"/>
      <point x="311" y="503" type="line"/>
      <point x="197" y="503" type="line"/>
      <point x="138" y="373"/>
      <point x="76" y="255"/>
      <point x="5" y="144" type="curve"/>
    </contour>
    <contour>
      <point x="249" y="0" type="line"/>
      <point x="369" y="0" type="line"/>
      <point x="369" y="274" type="line"/>
      <point x="263" y="268" type="line"/>
      <point x="249" y="149" type="line"/>
    </contour>
  </outline>
</glyph>
<glyph name="five" format="1">
  <advance width="435"/>
  <unicode hex="0035"/>
  <outline>
    <contour>
      <point x="55" y="107" type="curve"/>
      <point x="21" y="61" type="line"/>
      <point x="57" y="16"/>
      <point x="123" y="-12"/>
      <point x="195" y="-12" type="curve" smooth="yes"/>
      <point x="312" y="-12"/>
      <point x="404" y="60"/>
      <point x="404" y="172" type="curve" smooth="yes"/>
      <point x="404" y="267"/>
      <point x="339" y="328"/>
      <point x="240" y="328" type="curve" smooth="yes"/>
      <point x="205" y="328"/>
      <point x="165" y="320"/>
      <point x="134" y="294" type="curve"/>
      <point x="150" y="408" type="line"/>
      <point x="365" y="408" type="line"/>
      <point x="376" y="502" type="line"/>
      <point x="77" y="502" type="line"/>
      <point x="57" y="255" type="line"/>
      <point x="100" y="227" type="line"/>
      <point x="125" y="239"/>
      <point x="149" y="250"/>
      <point x="177" y="250" type="curve" smooth="yes"/>
      <point x="230" y="250"/>
      <point x="262" y="215"/>
      <point x="262" y="162" type="curve" smooth="yes"/>
      <point x="262" y="103"/>
      <point x="221" y="66"/>
      <point x="163" y="66" type="curve" smooth="yes"/>
      <point x="124" y="66"/>
      <point x="85" y="83"/>
    </contour>
  </outline>
</glyph>
<glyph name="six" format="1">
  <advance width="471"/>
  <unicode hex="0036"/>
  <outline>
    <contour>
      <point x="244" y="-12" type="curve" smooth="yes"/>
      <point x="369" y="-12"/>
      <point x="442" y="67"/>
      <point x="442" y="172" type="curve" smooth="yes"/>
      <point x="442" y="264"/>
      <point x="386" y="329"/>
      <point x="294" y="329" type="curve" smooth="yes"/>
      <point x="230" y="329"/>
      <point x="174" y="297"/>
      <point x="160" y="262" type="curve"/>
      <point x="164" y="233" type="line"/>
      <point x="181" y="249"/>
      <point x="218" y="257"/>
      <point x="239" y="257" type="curve" smooth="yes"/>
      <point x="283" y="257"/>
      <point x="313" y="221"/>
      <point x="313" y="150" type="curve" smooth="yes"/>
      <point x="313" y="82"/>
      <point x="287" y="46"/>
      <point x="250" y="46" type="curve" smooth="yes"/>
      <point x="204" y="46"/>
      <point x="173" y="101"/>
      <point x="173" y="206" type="curve" smooth="yes"/>
      <point x="173" y="240" type="line" smooth="yes"/>
      <point x="173" y="372"/>
      <point x="241" y="443"/>
      <point x="332" y="443" type="curve" smooth="yes"/>
      <point x="349" y="443"/>
      <point x="372" y="439"/>
      <point x="393" y="432" type="curve"/>
      <point x="412" y="487" type="line"/>
      <point x="380" y="506"/>
      <point x="336" y="513"/>
      <point x="296" y="513" type="curve" smooth="yes"/>
      <point x="148" y="513"/>
      <point x="35" y="397"/>
      <point x="35" y="220" type="curve" smooth="yes"/>
      <point x="35" y="70"/>
      <point x="118" y="-12"/>
    </contour>
  </outline>
</glyph>
<glyph name="seven" format="1">
  <advance width="424"/>
  <unicode hex="0037"/>
  <outline>
    <contour>
      <point x="336" y="424" type="line"/>
      <point x="223" y="324"/>
      <point x="123" y="175"/>
      <point x="115" y="20" type="curve"/>
      <point x="133" y="0" type="line"/>
      <point x="252" y="0" type="line"/>
      <point x="263" y="188"/>
      <point x="323" y="312"/>
      <point x="416" y="437" type="curve"/>
      <point x="386" y="502" type="line"/>
      <point x="37" y="502" type="line"/>
      <point x="30" y="443"/>
      <point x="27" y="373"/>
      <point x="32" y="311" type="curve"/>
      <point x="99" y="311" type="line"/>
      <point x="131" y="397" type="line" smooth="yes"/>
      <point x="136" y="409"/>
      <point x="140" y="413"/>
      <point x="153" y="416" type="curve" smooth="yes"/>
      <point x="169" y="421"/>
      <point x="202" y="424"/>
      <point x="233" y="424" type="curve" smooth="yes"/>
    </contour>
  </outline>
</glyph>
<glyph name="eight" format="1">
  <advance width="476"/>
  <unicode hex="0038"/>
  <outline>
    <contour>
      <point x="33" y="121" type="curve" smooth="yes"/>
      <point x="33" y="37"/>
      <point x="112" y="-12"/>
      <point x="233" y="-12" type="curve" smooth="yes"/>
      <point x="361" y="-12"/>
      <point x="443" y="43"/>
      <point x="443" y="135" type="curve" smooth="yes"/>
      <point x="443" y="226"/>
      <point x="363" y="264"/>
      <point x="293" y="298" type="curve" smooth="yes"/>
      <point x="229" y="329"/>
      <point x="177" y="354"/>
      <point x="177" y="404" type="curve" smooth="yes"/>
      <point x="177" y="438"/>
      <point x="200" y="459"/>
      <point x="236" y="459" type="curve" smooth="yes"/>
      <point x="275" y="459"/>
      <point x="303" y="434"/>
      <point x="303" y="384" type="curve" smooth="yes"/>
      <point x="303" y="355"/>
      <point x="292" y="310"/>
      <point x="241" y="288" type="curve"/>
      <point x="279" y="268" type="line"/>
      <point x="355" y="278"/>
      <point x="416" y="327"/>
      <point x="416" y="394" type="curve" smooth="yes"/>
      <point x="416" y="466"/>
      <point x="346" y="513"/>
      <point x="242" y="513" type="curve" smooth="yes"/>
      <point x="128" y="513"/>
      <point x="58" y="457"/>
      <point x="58" y="373" type="curve" smooth="yes"/>
      <point x="58" y="287"/>
      <point x="131" y="247"/>
      <point x="189" y="217" type="curve" smooth="yes"/>
      <point x="254" y="183"/>
      <point x="308" y="159"/>
      <point x="308" y="108" type="curve" smooth="yes"/>
      <point x="308" y="74"/>
      <point x="284" y="44"/>
      <point x="238" y="44" type="curve" smooth="yes"/>
      <point x="192" y="44"/>
      <point x="149" y="73"/>
      <point x="149" y="132" type="curve" smooth="yes"/>
      <point x="149" y="178"/>
      <point x="176" y="220"/>
      <point x="221" y="237" type="curve"/>
      <point x="181" y="259" type="line"/>
      <point x="94" y="251"/>
      <point x="33" y="195"/>
    </contour>
  </outline>
</glyph>
<glyph name="nine" format="1">
  <advance width="471"/>
  <unicode hex="0039"/>
  <outline>
    <contour>
      <point x="225" y="513" type="curve" smooth="yes"/>
      <point x="100" y="513"/>
      <point x="29" y="435"/>
      <point x="29" y="328" type="curve" smooth="yes"/>
      <point x="29" y="238"/>
      <point x="84" y="173"/>
      <point x="179" y="173" type="curve" smooth="yes"/>
      <point x="240" y="173"/>
      <point x="297" y="206"/>
      <point x="311" y="239" type="curve"/>
      <point x="306" y="268" type="line"/>
      <point x="289" y="253"/>
      <point x="253" y="245"/>
      <point x="232" y="245" type="curve" smooth="yes"/>
      <point x="187" y="245"/>
      <point x="157" y="282"/>
      <point x="157" y="351" type="curve" smooth="yes"/>
      <point x="157" y="413"/>
      <point x="179" y="456"/>
      <point x="220" y="456" type="curve" smooth="yes"/>
      <point x="268" y="456"/>
      <point x="297" y="393"/>
      <point x="297" y="293" type="curve" smooth="yes"/>
      <point x="297" y="249" type="line" smooth="yes"/>
      <point x="297" y="114"/>
      <point x="232" y="60"/>
      <point x="165" y="60" type="curve" smooth="yes"/>
      <point x="130" y="60"/>
      <point x="99" y="69"/>
      <point x="76" y="81" type="curve"/>
      <point x="56" y="29" type="line"/>
      <point x="91" y="1"/>
      <point x="142" y="-12"/>
      <point x="191" y="-12" type="curve" smooth="yes"/>
      <point x="327" y="-12"/>
      <point x="436" y="89"/>
      <point x="436" y="273" type="curve" smooth="yes"/>
      <point x="436" y="433"/>
      <point x="352" y="513"/>
    </contour>
  </outline>
</glyph>
<glyph name="colon" format="1">
  <advance width="681"/>
  <unicode hex="003A"/>
  <outline>
    <contour>
      <point x="541" y="994" type="curve" smooth="yes"/>
      <point x="541" y="1106"/>
      <point x="462" y="1178"/>
      <point x="340" y="1178" type="curve" smooth="yes"/>
      <point x="218" y="1178"/>
      <point x="139" y="1106"/>
      <point x="139" y="994" type="curve" smooth="yes"/>
      <point x="139" y="882"/>
      <point x="218" y="810"/>
      <point x="340" y="810" type="curve" smooth="yes"/>
      <point x="462" y="810"/>
      <point x="541" y="882"/>
    </contour>
    <contour>
      <point x="541" y="168" type="curve" smooth="yes"/>
      <point x="541" y="280"/>
      <point x="462" y="352"/>
      <point x="340" y="352" type="curve" smooth="yes"/>
      <point x="218" y="352"/>
      <point x="139" y="280"/>
      <point x="139" y="168" type="curve" smooth="yes"/>
      <point x="139" y="56"/>
      <point x="218" y="-16"/>
      <point x="340" y="-16" type="curve" smooth="yes"/>
      <point x="462" y="-16"/>
      <point x="541" y="56"/>
    </contour>
  </outline>
</glyph>
<glyph name="semicolon" format="1">
  <advance width="250"/>
  <unicode hex="003B"/>
  <outline>
    <contour>
      <point x="134" y="-135"/>
      <point x="202" y="-60"/>
      <point x="202" y="30" type="curve" smooth="yes"/>
      <point x="202" y="94"/>
      <point x="169" y="132"/>
      <point x="120" y="132" type="curve" smooth="yes"/>
      <point x="80" y="132"/>
      <point x="51" y="105"/>
      <point x="51" y="64" type="curve" smooth="yes"/>
      <point x="51" y="36"/>
      <point x="65" y="17"/>
      <point x="81" y="6" type="curve" smooth="yes"/>
      <point x="95" y="-4"/>
      <point x="106" y="-5"/>
      <point x="106" y="-27" type="curve" smooth="yes"/>
      <point x="106" y="-62"/>
      <point x="77" y="-105"/>
      <point x="40" y="-140" type="curve"/>
      <point x="65" y="-172" type="line"/>
    </contour>
    <contour>
      <point x="197" y="363" type="curve" smooth="yes"/>
      <point x="197" y="404"/>
      <point x="169" y="430"/>
      <point x="124" y="430" type="curve" smooth="yes"/>
      <point x="80" y="430"/>
      <point x="51" y="404"/>
      <point x="51" y="363" type="curve" smooth="yes"/>
      <point x="51" y="322"/>
      <point x="80" y="296"/>
      <point x="124" y="296" type="curve" smooth="yes"/>
      <point x="169" y="296"/>
      <point x="197" y="322"/>
    </contour>
  </outline>
</glyph>
<glyph name="less" format="1">
  <advance width="405"/>
  <unicode hex="003C"/>
  <outline>
    <contour>
      <point x="367" y="113" type="line"/>
      <point x="112" y="232" type="line"/>
      <point x="112" y="216" type="line"/>
      <point x="367" y="333" type="line"/>
      <point x="330" y="414" type="line"/>
      <point x="26" y="257" type="line"/>
      <point x="26" y="188" type="line"/>
      <point x="330" y="31" type="line"/>
    </contour>
  </outline>
</glyph>
<glyph name="equal" format="1">
  <advance width="439"/>
  <unicode hex="003D"/>
  <outline>
    <contour>
      <point x="387" y="264" type="line"/>
      <point x="387" y="347" type="line"/>
      <point x="45" y="347" type="line"/>
      <point x="45" y="264" type="line"/>
    </contour>
    <contour>
      <point x="387" y="99" type="line"/>
      <point x="387" y="181" type="line"/>
      <point x="45" y="181" type="line"/>
      <point x="45" y="99" type="line"/>
    </contour>
  </outline>
</glyph>
<glyph name="greater" format="1">
  <advance width="405"/>
  <unicode hex="003E"/>
  <outline>
    <contour>
      <point x="379" y="188" type="line"/>
      <point x="379" y="257" type="line"/>
      <point x="75" y="414" type="line"/>
      <point x="37" y="333" type="line"/>
      <point x="292" y="216" type="line"/>
      <point x="292" y="231" type="line"/>
      <point x="37" y="113" type="line"/>
      <point x="75" y="31" type="line"/>
    </contour>
  </outline>
</glyph>
<glyph name="question" format="1">
  <advance width="421"/>
  <unicode hex="003F"/>
  <outline>
    <contour>
      <point x="223" y="185" type="line"/>
      <point x="231" y="239" type="line" smooth="yes"/>
      <point x="236" y="270"/>
      <point x="238" y="269"/>
      <point x="275" y="296" type="curve" smooth="yes"/>
      <point x="347" y="346"/>
      <point x="397" y="392"/>
      <point x="397" y="468" type="curve" smooth="yes"/>
      <point x="397" y="564"/>
      <point x="318" y="639"/>
      <point x="197" y="639" type="curve" smooth="yes"/>
      <point x="127" y="639"/>
      <point x="65" y="613"/>
      <point x="25" y="580" type="curve"/>
      <point x="28" y="530"/>
      <point x="39" y="476"/>
      <point x="54" y="431" type="curve"/>
      <point x="132" y="431" type="line"/>
      <point x="143" y="517" type="line" smooth="yes"/>
      <point x="145" y="535"/>
      <point x="148" y="544"/>
      <point x="157" y="554" type="curve" smooth="yes"/>
      <point x="166" y="565"/>
      <point x="182" y="576"/>
      <point x="204" y="576" type="curve" smooth="yes"/>
      <point x="239" y="576"/>
      <point x="263" y="545"/>
      <point x="263" y="504" type="curve" smooth="yes"/>
      <point x="263" y="459"/>
      <point x="239" y="424"/>
      <point x="191" y="379" type="curve" smooth="yes"/>
      <point x="149" y="341"/>
      <point x="116" y="318"/>
      <point x="116" y="274" type="curve" smooth="yes"/>
      <point x="116" y="244"/>
      <point x="134" y="208"/>
      <point x="148" y="185" type="curve"/>
    </contour>
    <contour>
      <point x="230" y="-6"/>
      <point x="259" y="20"/>
      <point x="259" y="59" type="curve" smooth="yes"/>
      <point x="259" y="99"/>
      <point x="230" y="125"/>
      <point x="186" y="125" type="curve" smooth="yes"/>
      <point x="141" y="125"/>
      <point x="113" y="99"/>
      <point x="113" y="59" type="curve" smooth="yes"/>
      <point x="113" y="20"/>
      <point x="141" y="-6"/>
      <point x="186" y="-6" type="curve" smooth="yes"/>
    </contour>
  </outline>
</glyph>
<glyph name="at" format="1">
  <advance width="773"/>
  <unicode hex="0040"/>
  <outline>
    <contour>
      <point x="449" y="244" type="curve" smooth="yes"/>
      <point x="418" y="139"/>
      <point x="369" y="73"/>
      <point x="338" y="73" type="curve" smooth="yes"/>
      <point x="309" y="73"/>
      <point x="296" y="129"/>
      <point x="296" y="176" type="curve" smooth="yes"/>
      <point x="296" y="247"/>
      <point x="325" y="329"/>
      <point x="384" y="329" type="curve" smooth="yes"/>
      <point x="413" y="329"/>
      <point x="451" y="308"/>
      <point x="469" y="279" type="curve"/>
      <point x="507" y="361" type="line"/>
      <point x="462" y="388"/>
      <point x="430" y="396"/>
      <point x="399" y="396" type="curve" smooth="yes"/>
      <point x="272" y="396"/>
      <point x="194" y="264"/>
      <point x="194" y="142" type="curve" smooth="yes"/>
      <point x="194" y="36"/>
      <point x="253" y="-24"/>
      <point x="311" y="-24" type="curve" smooth="yes"/>
      <point x="388" y="-24"/>
      <point x="443" y="85"/>
      <point x="474" y="184" type="curve"/>
      <point x="472" y="184"/>
      <point x="471" y="185"/>
      <point x="470" y="185" type="curve"/>
      <point x="459" y="123"/>
      <point x="454" y="83"/>
      <point x="454" y="60" type="curve" smooth="yes"/>
      <point x="454" y="11"/>
      <point x="476" y="-15"/>
      <point x="508" y="-15" type="curve" smooth="yes"/>
      <point x="573" y="-15"/>
      <point x="740" y="88"/>
      <point x="740" y="293" type="curve" smooth="yes"/>
      <point x="740" y="468"/>
      <point x="619" y="569"/>
      <point x="452" y="569" type="curve" smooth="yes"/>
      <point x="220" y="569"/>
      <point x="26" y="375"/>
      <point x="29" y="121" type="curve" smooth="yes"/>
      <point x="32" y="-69"/>
      <point x="145" y="-192"/>
      <point x="333" y="-192" type="curve" smooth="yes"/>
      <point x="408" y="-192"/>
      <point x="480" y="-172"/>
      <point x="522" y="-137" type="curve"/>
      <point x="502" y="-94" type="line"/>
      <point x="474" y="-113"/>
      <point x="408" y="-126"/>
      <point x="355" y="-126" type="curve" smooth="yes"/>
      <point x="224" y="-126"/>
      <point x="112" y="-43"/>
      <point x="112" y="154" type="curve" smooth="yes"/>
      <point x="112" y="363"/>
      <point x="239" y="504"/>
      <point x="418" y="504" type="curve" smooth="yes"/>
      <point x="532" y="504"/>
      <point x="667" y="447"/>
      <point x="667" y="264" type="curve" smooth="yes"/>
      <point x="667" y="132"/>
      <point x="595" y="63"/>
      <point x="563" y="63" type="curve" smooth="yes"/>
      <point x="548" y="63"/>
      <point x="542" y="76"/>
      <point x="542" y="109" type="curve" smooth="yes"/>
      <point x="542" y="188"/>
      <point x="580" y="354"/>
      <point x="584" y="374" type="curve"/>
      <point x="513" y="396" type="line"/>
      <point x="475" y="356" type="line"/>
      <point x="471" y="336"/>
      <point x="464" y="292"/>
    </contour>
  </outline>
</glyph>
<glyph name="A" format="1">
  <advance width="584"/>
  <unicode hex="0041"/>
  <outline>
    <contour>
      <point x="133" y="166" type="line"/>
      <point x="399" y="166" type="line"/>
      <point x="378" y="228" type="line"/>
      <point x="150" y="228" type="line"/>
    </contour>
    <contour>
      <point x="357" y="570" type="line"/>
      <point x="228" y="570" type="line"/>
      <point x="62" y="82" type="line" smooth="yes"/>
      <point x="59" y="72"/>
      <point x="53" y="67"/>
      <point x="43" y="64" type="curve" smooth="yes"/>
      <point x="-6" y="52" type="line"/>
      <point x="-6" y="0" type="line"/>
      <point x="206" y="0" type="line"/>
      <point x="206" y="52" type="line"/>
      <point x="137" y="64" type="line"/>
      <point x="275" y="517" type="line"/>
      <point x="244" y="517" type="line"/>
      <point x="385" y="64" type="line"/>
      <point x="315" y="52" type="line"/>
      <point x="315" y="0" type="line"/>
      <point x="588" y="0" type="line"/>
      <point x="588" y="52" type="line"/>
      <point x="543" y="64" type="line" smooth="yes"/>
      <point x="533" y="67"/>
      <point x="527" y="72"/>
      <point x="523" y="82" type="curve" smooth="yes"/>
    </contour>
    <contour>
      <point x="238" y="0" type="move" name="btm"/>
    </contour>
    <contour>
      <point x="293" y="568" type="move" name="top"/>
    </contour>
  </outline>
</glyph>
<glyph name="B" format="1">
  <advance width="1589"/>
  <unicode hex="0042"/>
  <outline>
    <contour>
      <point x="1405" y="1206" type="curve" smooth="yes"/>
      <point x="1405" y="1449"/>
      <point x="1286" y="1574"/>
      <point x="847" y="1574" type="curve" smooth="yes"/>
      <point x="707" y="1574"/>
      <point x="607" y="1562"/>
      <point x="478" y="1562" type="curve" smooth="yes"/>
      <point x="89" y="1562" type="line"/>
      <point x="89" y="1411" type="line"/>
      <point x="251" y="1379" type="line" smooth="yes"/>
      <point x="275" y="1374"/>
      <point x="291" y="1355"/>
      <point x="291" y="1330" type="curve" smooth="yes"/>
      <point x="291" y="223" type="line" smooth="yes"/>
      <point x="291" y="198"/>
      <point x="275" y="178"/>
      <point x="251" y="174" type="curve" smooth="yes"/>
      <point x="89" y="144" type="line"/>
      <point x="89" y="0" type="line"/>
      <point x="483" y="0" type="line" smooth="yes"/>
      <point x="613" y="0"/>
      <point x="690" y="-12"/>
      <point x="840" y="-12" type="curve" smooth="yes"/>
      <point x="1355" y="-12"/>
      <point x="1510" y="191"/>
      <point x="1510" y="462" type="curve" smooth="yes"/>
      <point x="1510" y="731"/>
      <point x="1292" y="852"/>
      <point x="1019" y="832" type="curve"/>
      <point x="1019" y="817" type="line"/>
      <point x="1248" y="829"/>
      <point x="1405" y="960"/>
    </contour>
    <contour>
      <point x="601" y="716" type="line"/>
      <point x="687" y="719"/>
      <point x="774" y="722"/>
      <point x="837" y="722" type="curve" smooth="yes"/>
      <point x="1004" y="722"/>
      <point x="1092" y="655"/>
      <point x="1092" y="452" type="curve" smooth="yes"/>
      <point x="1092" y="251"/>
      <point x="1014" y="134"/>
      <point x="820" y="134" type="curve" smooth="yes"/>
      <point x="766" y="134"/>
      <point x="706" y="141"/>
      <point x="669" y="148" type="curve"/>
      <point x="669" y="1424" type="line"/>
      <point x="692" y="1429"/>
      <point x="779" y="1434"/>
      <point x="800" y="1434" type="curve" smooth="yes"/>
      <point x="957" y="1434"/>
      <point x="1030" y="1359"/>
      <point x="1030" y="1174" type="curve" smooth="yes"/>
      <point x="1030" y="986"/>
      <point x="968" y="883"/>
      <point x="820" y="883" type="curve" smooth="yes"/>
      <point x="768" y="883"/>
      <point x="688" y="883"/>
      <point x="601" y="889" type="curve"/>
    </contour>
    <contour>
      <point x="829" y="0" type="move" name="btm"/>
    </contour>
    <contour>
      <point x="829" y="1562" type="move" name="top"/>
    </contour>
  </outline>
</glyph>
<glyph name="C" format="1">
  <advance width="531"/>
  <unicode hex="0043"/>
  <outline>
    <contour>
      <point x="294" y="-13" type="curve" smooth="yes"/>
      <point x="359" y="-13"/>
      <point x="435" y="1"/>
      <point x="487" y="19" type="curve"/>
      <point x="495" y="73"/>
      <point x="496" y="126"/>
      <point x="493" y="171" type="curve"/>
      <point x="413" y="177" type="line"/>
      <point x="388" y="93" type="line" smooth="yes"/>
      <point x="383" y="78"/>
      <point x="378" y="71"/>
      <point x="372" y="65" type="curve" smooth="yes"/>
      <point x="356" y="50"/>
      <point x="332" y="43"/>
      <point x="308" y="43" type="curve" smooth="yes"/>
      <point x="225" y="43"/>
      <point x="189" y="127"/>
      <point x="189" y="286" type="curve" smooth="yes"/>
      <point x="189" y="458"/>
      <point x="232" y="524"/>
      <point x="305" y="524" type="curve" smooth="yes"/>
      <point x="328" y="524"/>
      <point x="350" y="517"/>
      <point x="363" y="508" type="curve" smooth="yes"/>
      <point x="376" y="500"/>
      <point x="380" y="488"/>
      <point x="383" y="479" type="curve" smooth="yes"/>
      <point x="404" y="384" type="line"/>
      <point x="485" y="384" type="line"/>
      <point x="495" y="445"/>
      <point x="497" y="500"/>
      <point x="493" y="548" type="curve"/>
      <point x="440" y="568"/>
      <point x="374" y="579"/>
      <point x="316" y="579" type="curve" smooth="yes"/>
      <point x="146" y="579"/>
      <point x="34" y="483"/>
      <point x="34" y="272" type="curve" smooth="yes"/>
      <point x="34" y="88"/>
      <point x="119" y="-13"/>
    </contour>
    <contour>
      <point x="288" y="0" type="move" name="btm"/>
    </contour>
    <contour>
      <point x="305" y="568" type="move" name="top"/>
    </contour>
  </outline>
</glyph>
<glyph name="D" format="1">
  <advance width="614"/>
  <unicode hex="0044"/>
  <outline>
    <contour>
      <point x="173" y="568" type="curve" smooth="yes"/>
      <point x="32" y="568" type="line"/>
      <point x="32" y="513" type="line"/>
      <point x="91" y="501" type="line" smooth="yes"/>
      <point x="100" y="500"/>
      <point x="106" y="493"/>
      <point x="106" y="484" type="curve" smooth="yes"/>
      <point x="106" y="81" type="line" smooth="yes"/>
      <point x="106" y="72"/>
      <point x="100" y="65"/>
      <point x="91" y="63" type="curve" smooth="yes"/>
      <point x="32" y="52" type="line"/>
      <point x="32" y="0" type="line"/>
      <point x="174" y="0" type="line" smooth="yes"/>
      <point x="203" y="0"/>
      <point x="261" y="-5"/>
      <point x="294" y="-6" type="curve" smooth="yes"/>
      <point x="474" y="-9"/>
      <point x="580" y="101"/>
      <point x="580" y="303" type="curve" smooth="yes"/>
      <point x="580" y="490"/>
      <point x="488" y="572"/>
      <point x="303" y="572" type="curve" smooth="yes"/>
      <point x="261" y="572"/>
      <point x="222" y="568"/>
    </contour>
    <contour>
      <point x="244" y="59" type="curve"/>
      <point x="244" y="512" type="line"/>
      <point x="248" y="513"/>
      <point x="268" y="519"/>
      <point x="293" y="519" type="curve" smooth="yes"/>
      <point x="392" y="519"/>
      <point x="429" y="431"/>
      <point x="429" y="282" type="curve" smooth="yes"/>
      <point x="429" y="107"/>
      <point x="380" y="52"/>
      <point x="296" y="51" type="curve" smooth="yes"/>
      <point x="279" y="51"/>
      <point x="256" y="53"/>
    </contour>
    <contour>
      <point x="324" y="0" type="move" name="btm"/>
    </contour>
    <contour>
      <point x="298" y="568" type="move" name="top"/>
    </contour>
  </outline>
</glyph>
<glyph name="E" format="1">
  <advance width="528"/>
  <unicode hex="0045"/>
  <outline>
    <contour>
      <point x="472" y="413" type="line"/>
      <point x="476" y="466"/>
      <point x="476" y="517"/>
      <point x="469" y="568" type="curve"/>
      <point x="32" y="568" type="line"/>
      <point x="32" y="513" type="line"/>
      <point x="89" y="502" type="line" smooth="yes"/>
      <point x="100" y="500"/>
      <point x="106" y="493"/>
      <point x="106" y="481" type="curve" smooth="yes"/>
      <point x="106" y="83" type="line" smooth="yes"/>
      <point x="106" y="72"/>
      <point x="100" y="65"/>
      <point x="89" y="63" type="curve" smooth="yes"/>
      <point x="32" y="52" type="line"/>
      <point x="32" y="0" type="line"/>
      <point x="488" y="0" type="line"/>
      <point x="497" y="59"/>
      <point x="502" y="112"/>
      <point x="502" y="171" type="curve"/>
      <point x="437" y="181" type="line"/>
      <point x="406" y="91" type="line" smooth="yes"/>
      <point x="401" y="78"/>
      <point x="397" y="72"/>
      <point x="387" y="67" type="curve" smooth="yes"/>
      <point x="374" y="62"/>
      <point x="345" y="59"/>
      <point x="321" y="59" type="curve" smooth="yes"/>
      <point x="244" y="59" type="line"/>
      <point x="244" y="256" type="line"/>
      <point x="400" y="252" type="line"/>
      <point x="400" y="327" type="line"/>
      <point x="244" y="321" type="line"/>
      <point x="244" y="512" type="line"/>
      <point x="305" y="512" type="line" smooth="yes"/>
      <point x="329" y="512"/>
      <point x="353" y="508"/>
      <point x="366" y="504" type="curve" smooth="yes"/>
      <point x="377" y="499"/>
      <point x="384" y="493"/>
      <point x="387" y="480" type="curve" smooth="yes"/>
      <point x="407" y="413" type="line"/>
    </contour>
    <contour>
      <point x="286" y="0" type="move" name="btm"/>
    </contour>
    <contour>
      <point x="271" y="568" type="move" name="top"/>
    </contour>
  </outline>
</glyph>
<glyph name="F" format="1">
  <advance width="490"/>
  <unicode hex="0046"/>
  <outline>
    <contour>
      <point x="400" y="243" type="line"/>
      <point x="400" y="317" type="line"/>
      <point x="244" y="312" type="line"/>
      <point x="244" y="512" type="line"/>
      <point x="305" y="512" type="line" smooth="yes"/>
      <point x="329" y="512"/>
      <point x="353" y="508"/>
      <point x="366" y="504" type="curve" smooth="yes"/>
      <point x="377" y="499"/>
      <point x="384" y="493"/>
      <point x="387" y="480" type="curve" smooth="yes"/>
      <point x="407" y="413" type="line"/>
      <point x="472" y="413" type="line"/>
      <point x="476" y="466"/>
      <point x="476" y="517"/>
      <point x="469" y="568" type="curve"/>
      <point x="32" y="568" type="line"/>
      <point x="32" y="513" type="line"/>
      <point x="89" y="502" type="line" smooth="yes"/>
      <point x="100" y="500"/>
      <point x="106" y="493"/>
      <point x="106" y="481" type="curve" smooth="yes"/>
      <point x="106" y="82" type="line" smooth="yes"/>
      <point x="106" y="72"/>
      <point x="100" y="65"/>
      <point x="90" y="63" type="curve" smooth="yes"/>
      <point x="32" y="52" type="line"/>
      <point x="32" y="0" type="line"/>
      <point x="353" y="0" type="line"/>
      <point x="353" y="52" type="line"/>
      <point x="260" y="64" type="line" smooth="yes"/>
      <point x="251" y="65"/>
      <point x="244" y="72"/>
      <point x="244" y="81" type="curve" smooth="yes"/>
      <point x="244" y="247" type="line"/>
    </contour>
    <contour>
      <point x="267" y="0" type="move" name="btm"/>
    </contour>
    <contour>
      <point x="267" y="568" type="move" name="top"/>
    </contour>
  </outline>
</glyph>
<glyph name="G" format="1">
  <advance width="580"/>
  <unicode hex="0047"/>
  <outline>
    <contour>
      <point x="446" y="78" type="curve"/>
      <point x="424" y="118" type="line"/>
      <point x="401" y="83"/>
      <point x="365" y="59"/>
      <point x="312" y="59" type="curve" smooth="yes"/>
      <point x="221" y="59"/>
      <point x="195" y="136"/>
      <point x="195" y="275" type="curve" smooth="yes"/>
      <point x="195" y="450"/>
      <point x="236" y="524"/>
      <point x="319" y="524" type="curve" smooth="yes"/>
      <point x="346" y="524"/>
      <point x="365" y="516"/>
      <point x="378" y="506" type="curve" smooth="yes"/>
      <point x="387" y="499"/>
      <point x="392" y="493"/>
      <point x="396" y="478" type="curve" smooth="yes"/>
      <point x="416" y="395" type="line"/>
      <point x="500" y="395" type="line"/>
      <point x="507" y="446"/>
      <point x="511" y="497"/>
      <point x="507" y="545" type="curve"/>
      <point x="458" y="565"/>
      <point x="390" y="579"/>
      <point x="323" y="579" type="curve" smooth="yes"/>
      <point x="139" y="579"/>
      <point x="35" y="484"/>
      <point x="35" y="278" type="curve" smooth="yes"/>
      <point x="35" y="96"/>
      <point x="117" y="-12"/>
      <point x="269" y="-12" type="curve" smooth="yes"/>
      <point x="359" y="-12"/>
      <point x="418" y="29"/>
    </contour>
    <contour>
      <point x="520" y="9" type="line"/>
      <point x="520" y="232" type="line"/>
      <point x="557" y="238" type="line"/>
      <point x="557" y="294" type="line"/>
      <point x="320" y="294" type="line"/>
      <point x="320" y="238" type="line"/>
      <point x="389" y="230" type="line"/>
      <point x="389" y="51" type="line"/>
      <point x="419" y="51" type="line"/>
      <point x="494" y="-6" type="line"/>
    </contour>
    <contour>
      <point x="295" y="0" type="move" name="btm"/>
    </contour>
    <contour>
      <point x="327" y="568" type="move" name="top"/>
    </contour>
  </outline>
</glyph>
<glyph name="H" format="1">
  <advance width="687"/>
  <unicode hex="0048"/>
  <outline>
    <contour>
      <point x="655" y="568" type="line"/>
      <point x="385" y="568" type="line"/>
      <point x="385" y="513" type="line"/>
      <point x="427" y="502" type="line" smooth="yes"/>
      <point x="437" y="499"/>
      <point x="443" y="492"/>
      <point x="443" y="481" type="curve" smooth="yes"/>
      <point x="443" y="322" type="line"/>
      <point x="244" y="322" type="line"/>
      <point x="244" y="481" type="line" smooth="yes"/>
      <point x="244" y="493"/>
      <point x="249" y="500"/>
      <point x="260" y="502" type="curve" smooth="yes"/>
      <point x="306" y="513" type="line"/>
      <point x="306" y="568" type="line"/>
      <point x="32" y="568" type="line"/>
      <point x="32" y="513" type="line"/>
      <point x="89" y="502" type="line" smooth="yes"/>
      <point x="100" y="500"/>
      <point x="106" y="493"/>
      <point x="106" y="481" type="curve" smooth="yes"/>
      <point x="106" y="83" type="line" smooth="yes"/>
      <point x="106" y="72"/>
      <point x="100" y="65"/>
      <point x="89" y="63" type="curve" smooth="yes"/>
      <point x="32" y="52" type="line"/>
      <point x="32" y="0" type="line"/>
      <point x="306" y="0" type="line"/>
      <point x="306" y="52" type="line"/>
      <point x="260" y="63" type="line" smooth="yes"/>
      <point x="249" y="65"/>
      <point x="244" y="72"/>
      <point x="244" y="83" type="curve" smooth="yes"/>
      <point x="244" y="255" type="line"/>
      <point x="443" y="255" type="line"/>
      <point x="443" y="83" type="line" smooth="yes"/>
      <point x="443" y="72"/>
      <point x="437" y="66"/>
      <point x="426" y="63" type="curve" smooth="yes"/>
      <point x="386" y="52" type="line"/>
      <point x="386" y="0" type="line"/>
      <point x="655" y="0" type="line"/>
      <point x="655" y="52" type="line"/>
      <point x="598" y="63" type="line" smooth="yes"/>
      <point x="587" y="65"/>
      <point x="581" y="72"/>
      <point x="581" y="83" type="curve" smooth="yes"/>
      <point x="581" y="481" type="line" smooth="yes"/>
      <point x="581" y="492"/>
      <point x="587" y="500"/>
      <point x="597" y="502" type="curve" smooth="yes"/>
      <point x="655" y="513" type="line"/>
    </contour>
    <contour>
      <point x="319" y="0" type="move" name="btm"/>
    </contour>
    <contour>
      <point x="345" y="568" type="move" name="top"/>
    </contour>
  </outline>
</glyph>
<glyph name="I" format="1">
  <advance width="962"/>
  <unicode hex="0049"/>
  <outline>
    <contour>
      <point x="873" y="1562" type="line"/>
      <point x="89" y="1562" type="line"/>
      <point x="89" y="1411" type="line"/>
      <point x="245" y="1381" type="line" smooth="yes"/>
      <point x="276" y="1374"/>
      <point x="291" y="1355"/>
      <point x="291" y="1324" type="curve" smooth="yes"/>
      <point x="291" y="229" type="line" smooth="yes"/>
      <point x="291" y="198"/>
      <point x="276" y="179"/>
      <point x="245" y="173" type="curve" smooth="yes"/>
      <point x="89" y="144" type="line"/>
      <point x="89" y="0" type="line"/>
      <point x="873" y="0" type="line"/>
      <point x="873" y="144" type="line"/>
      <point x="717" y="174" type="line" smooth="yes"/>
      <point x="686" y="180"/>
      <point x="671" y="199"/>
      <point x="671" y="230" type="curve" smooth="yes"/>
      <point x="671" y="1324" type="line" smooth="yes"/>
      <point x="671" y="1355"/>
      <point x="686" y="1374"/>
      <point x="717" y="1381" type="curve" smooth="yes"/>
      <point x="873" y="1411" type="line"/>
    </contour>
    <contour>
      <point x="509" y="0" type="move" name="btm"/>
    </contour>
    <contour>
      <point x="481" y="1562" type="move" name="top"/>
    </contour>
  </outline>
</glyph>
<glyph name="J" format="1">
  <advance width="329"/>
  <unicode hex="004A"/>
  <outline>
    <contour>
      <point x="252" y="502" type="curve" smooth="yes"/>
      <point x="301" y="513" type="line"/>
      <point x="301" y="568" type="line"/>
      <point x="24" y="568" type="line"/>
      <point x="24" y="513" type="line"/>
      <point x="80" y="502" type="line" smooth="yes"/>
      <point x="91" y="500"/>
      <point x="97" y="493"/>
      <point x="97" y="481" type="curve" smooth="yes"/>
      <point x="97" y="111" type="line" smooth="yes"/>
      <point x="97" y="-9"/>
      <point x="82" y="-48"/>
      <point x="-15" y="-99" type="curve"/>
      <point x="8" y="-154" type="line"/>
      <point x="193" y="-106"/>
      <point x="235" y="-41"/>
      <point x="235" y="128" type="curve" smooth="yes"/>
      <point x="235" y="481" type="line" smooth="yes"/>
      <point x="235" y="493"/>
      <point x="241" y="499"/>
    </contour>
    <contour>
      <point x="130" y="0" type="move" name="btm"/>
    </contour>
    <contour>
      <point x="163" y="568" type="move" name="top"/>
    </contour>
  </outline>
</glyph>
<glyph name="K" format="1">
  <advance width="609"/>
  <unicode hex="004B"/>
  <outline>
    <contour>
      <point x="317" y="0" type="line"/>
      <point x="317" y="52" type="line"/>
      <point x="261" y="62" type="line" smooth="yes"/>
      <point x="249" y="64"/>
      <point x="243" y="70"/>
      <point x="243" y="81" type="curve" smooth="yes"/>
      <point x="243" y="481" type="line" smooth="yes"/>
      <point x="243" y="493"/>
      <point x="249" y="500"/>
      <point x="260" y="502" type="curve" smooth="yes"/>
      <point x="317" y="513" type="line"/>
      <point x="317" y="568" type="line"/>
      <point x="32" y="568" type="line"/>
      <point x="32" y="513" type="line"/>
      <point x="89" y="502" type="line" smooth="yes"/>
      <point x="100" y="500"/>
      <point x="106" y="493"/>
      <point x="106" y="481" type="curve" smooth="yes"/>
      <point x="106" y="83" type="line" smooth="yes"/>
      <point x="106" y="72"/>
      <point x="100" y="65"/>
      <point x="89" y="63" type="curve" smooth="yes"/>
      <point x="32" y="52" type="line"/>
      <point x="32" y="0" type="line"/>
    </contour>
    <contour>
      <point x="335" y="292" type="line"/>
      <point x="510" y="491" type="line" smooth="yes"/>
      <point x="516" y="497"/>
      <point x="523" y="500"/>
      <point x="532" y="502" type="curve" smooth="yes"/>
      <point x="590" y="513" type="line"/>
      <point x="590" y="568" type="line"/>
      <point x="366" y="568" type="line"/>
      <point x="367" y="513" type="line"/>
      <point x="431" y="502" type="line"/>
      <point x="225" y="251" type="line"/>
      <point x="225" y="163" type="line"/>
    </contour>
    <contour>
      <point x="605" y="0" type="line"/>
      <point x="605" y="52" type="line"/>
      <point x="571" y="61" type="line" smooth="yes"/>
      <point x="554" y="65"/>
      <point x="548" y="76"/>
      <point x="543" y="86" type="curve" smooth="yes"/>
      <point x="463" y="236" type="line" smooth="yes"/>
      <point x="429" y="298"/>
      <point x="410" y="332"/>
      <point x="369" y="375" type="curve"/>
      <point x="285" y="276" type="line"/>
      <point x="304" y="252"/>
      <point x="317" y="227"/>
      <point x="342" y="173" type="curve" smooth="yes"/>
      <point x="389" y="72" type="line" smooth="yes"/>
      <point x="409" y="29"/>
      <point x="425" y="0"/>
      <point x="446" y="0" type="curve" smooth="yes"/>
    </contour>
    <contour>
      <point x="334" y="0" type="move" name="btm"/>
    </contour>
    <contour>
      <point x="307" y="568" type="move" name="top"/>
    </contour>
  </outline>
</glyph>
<glyph name="L" format="1">
  <advance width="515"/>
  <unicode hex="004C"/>
  <outline>
    <contour>
      <point x="394" y="93" type="line" smooth="yes"/>
      <point x="390" y="80"/>
      <point x="383" y="73"/>
      <point x="373" y="69" type="curve" smooth="yes"/>
      <point x="360" y="64"/>
      <point x="337" y="60"/>
      <point x="307" y="60" type="curve" smooth="yes"/>
      <point x="244" y="60" type="line"/>
      <point x="244" y="481" type="line" smooth="yes"/>
      <point x="244" y="492"/>
      <point x="250" y="499"/>
      <point x="261" y="501" type="curve" smooth="yes"/>
      <point x="336" y="513" type="line"/>
      <point x="336" y="568" type="line"/>
      <point x="32" y="568" type="line"/>
      <point x="32" y="513" type="line"/>
      <point x="89" y="502" type="line" smooth="yes"/>
      <point x="100" y="500"/>
      <point x="106" y="493"/>
      <point x="106" y="482" type="curve" smooth="yes"/>
      <point x="106" y="83" type="line" smooth="yes"/>
      <point x="106" y="72"/>
      <point x="100" y="65"/>
      <point x="89" y="63" type="curve" smooth="yes"/>
      <point x="32" y="52" type="line"/>
      <point x="32" y="0" type="line"/>
      <point x="484" y="0" type="line"/>
      <point x="499" y="70"/>
      <point x="499" y="139"/>
      <point x="499" y="201" type="curve"/>
      <point x="430" y="210" type="line"/>
    </contour>
    <contour>
      <point x="283" y="0" type="move" name="btm"/>
    </contour>
    <contour>
      <point x="223" y="568" type="move" name="top"/>
    </contour>
    <contour>
      <point x="322" y="333" type="move" name="topright"/>
    </contour>
  </outline>
</glyph>
<glyph name="M" format="1">
  <advance width="835"/>
  <unicode hex="004D"/>
  <outline>
    <contour>
      <point x="692" y="480" type="line" smooth="yes"/>
      <point x="690" y="492"/>
      <point x="696" y="500"/>
      <point x="708" y="502" type="curve" smooth="yes"/>
      <point x="773" y="513" type="line"/>
      <point x="773" y="568" type="line"/>
      <point x="509" y="568" type="line"/>
      <point x="403" y="118" type="line"/>
      <point x="439" y="118" type="line"/>
      <point x="322" y="568" type="line"/>
      <point x="58" y="568" type="line"/>
      <point x="58" y="513" type="line"/>
      <point x="120" y="502" type="line" smooth="yes"/>
      <point x="132" y="500"/>
      <point x="137" y="492"/>
      <point x="136" y="480" type="curve" smooth="yes"/>
      <point x="88" y="84" type="line" smooth="yes"/>
      <point x="87" y="73"/>
      <point x="81" y="67"/>
      <point x="71" y="64" type="curve" smooth="yes"/>
      <point x="15" y="52" type="line"/>
      <point x="15" y="0" type="line"/>
      <point x="241" y="0" type="line"/>
      <point x="241" y="52" type="line"/>
      <point x="162" y="63" type="line"/>
      <point x="215" y="537" type="line"/>
      <point x="191" y="537" type="line"/>
      <point x="339" y="20" type="line"/>
      <point x="449" y="20" type="line"/>
      <point x="571" y="536" type="line"/>
      <point x="551" y="536" type="line"/>
      <point x="615" y="63" type="line"/>
      <point x="549" y="52" type="line"/>
      <point x="549" y="0" type="line"/>
      <point x="823" y="0" type="line"/>
      <point x="823" y="52" type="line"/>
      <point x="769" y="64" type="line" smooth="yes"/>
      <point x="759" y="67"/>
      <point x="753" y="73"/>
      <point x="751" y="84" type="curve" smooth="yes"/>
    </contour>
    <contour>
      <point x="364" y="0" type="move" name="btm"/>
    </contour>
    <contour>
      <point x="415" y="568" type="move" name="top"/>
    </contour>
  </outline>
</glyph>
<glyph name="N" format="1">
  <advance width="657"/>
  <unicode hex="004E"/>
  <outline>
    <contour>
      <point x="579" y="502" type="curve" smooth="yes"/>
      <point x="632" y="513" type="line"/>
      <point x="632" y="568" type="line"/>
      <point x="409" y="568" type="line"/>
      <point x="409" y="513" type="line"/>
      <point x="469" y="502" type="line" smooth="yes"/>
      <point x="480" y="500"/>
      <point x="486" y="493"/>
      <point x="486" y="481" type="curve" smooth="yes"/>
      <point x="486" y="134" type="line"/>
      <point x="513" y="136" type="line"/>
      <point x="248" y="568" type="line"/>
      <point x="32" y="568" type="line"/>
      <point x="32" y="513" type="line"/>
      <point x="89" y="502" type="line" smooth="yes"/>
      <point x="100" y="500"/>
      <point x="106" y="493"/>
      <point x="106" y="481" type="curve" smooth="yes"/>
      <point x="106" y="83" type="line" smooth="yes"/>
      <point x="106" y="72"/>
      <point x="100" y="65"/>
      <point x="89" y="63" type="curve" smooth="yes"/>
      <point x="32" y="52" type="line"/>
      <point x="32" y="0" type="line"/>
      <point x="265" y="0" type="line"/>
      <point x="265" y="52" type="line"/>
      <point x="199" y="63" type="line" smooth="yes"/>
      <point x="188" y="65"/>
      <point x="182" y="72"/>
      <point x="182" y="83" type="curve" smooth="yes"/>
      <point x="182" y="466" type="line"/>
      <point x="155" y="464" type="line"/>
      <point x="437" y="0" type="line"/>
      <point x="562" y="0" type="line"/>
      <point x="562" y="481" type="line" smooth="yes"/>
      <point x="562" y="493"/>
      <point x="568" y="500"/>
    </contour>
    <contour>
      <point x="349" y="0" type="move" name="btm"/>
    </contour>
    <contour>
      <point x="333" y="568" type="move" name="top"/>
    </contour>
  </outline>
</glyph>
<glyph name="O" format="1">
  <advance width="581"/>
  <unicode hex="004F"/>
  <outline>
    <contour>
      <point x="281" y="-12" type="curve" smooth="yes"/>
      <point x="455" y="-12"/>
      <point x="547" y="101"/>
      <point x="547" y="294" type="curve" smooth="yes"/>
      <point x="547" y="470"/>
      <point x="471" y="580"/>
      <point x="300" y="580" type="curve" smooth="yes"/>
      <point x="126" y="580"/>
      <point x="34" y="467"/>
      <point x="34" y="273" type="curve" smooth="yes"/>
      <point x="34" y="97"/>
      <point x="110" y="-12"/>
    </contour>
    <contour>
      <point x="292" y="523" type="curve" smooth="yes"/>
      <point x="362" y="523"/>
      <point x="396" y="457"/>
      <point x="396" y="289" type="curve" smooth="yes"/>
      <point x="396" y="115"/>
      <point x="359" y="44"/>
      <point x="289" y="44" type="curve" smooth="yes"/>
      <point x="219" y="44"/>
      <point x="185" y="112"/>
      <point x="185" y="280" type="curve" smooth="yes"/>
      <point x="185" y="453"/>
      <point x="221" y="523"/>
    </contour>
    <contour>
      <point x="289" y="0" type="move" name="btm"/>
    </contour>
    <contour>
      <point x="291" y="568" type="move" name="top"/>
    </contour>
  </outline>
</glyph>
<glyph name="P" format="1">
  <advance width="533"/>
  <unicode hex="0050"/>
  <outline>
    <contour>
      <point x="244" y="516" type="line"/>
      <point x="254" y="517"/>
      <point x="261" y="520"/>
      <point x="287" y="520" type="curve" smooth="yes"/>
      <point x="345" y="520"/>
      <point x="376" y="484"/>
      <point x="376" y="401" type="curve" smooth="yes"/>
      <point x="376" y="288"/>
      <point x="339" y="254"/>
      <point x="288" y="254" type="curve" smooth="yes"/>
      <point x="262" y="254"/>
      <point x="250" y="256"/>
      <point x="226" y="259" type="curve"/>
      <point x="227" y="204" type="line"/>
      <point x="247" y="203"/>
      <point x="269" y="201"/>
      <point x="292" y="201" type="curve" smooth="yes"/>
      <point x="439" y="201"/>
      <point x="516" y="277"/>
      <point x="516" y="405" type="curve" smooth="yes"/>
      <point x="516" y="512"/>
      <point x="468" y="571"/>
      <point x="302" y="572" type="curve" smooth="yes"/>
      <point x="246" y="572"/>
      <point x="209" y="568"/>
      <point x="177" y="568" type="curve" smooth="yes"/>
      <point x="32" y="568" type="line"/>
      <point x="32" y="513" type="line"/>
      <point x="91" y="501" type="line" smooth="yes"/>
      <point x="100" y="499"/>
      <point x="106" y="492"/>
      <point x="106" y="484" type="curve" smooth="yes"/>
      <point x="106" y="81" type="line" smooth="yes"/>
      <point x="106" y="72"/>
      <point x="100" y="65"/>
      <point x="90" y="63" type="curve" smooth="yes"/>
      <point x="32" y="52" type="line"/>
      <point x="32" y="0" type="line"/>
      <point x="350" y="0" type="line"/>
      <point x="350" y="52" type="line"/>
      <point x="260" y="64" type="line" smooth="yes"/>
      <point x="251" y="65"/>
      <point x="244" y="72"/>
      <point x="244" y="81" type="curve" smooth="yes"/>
    </contour>
    <contour>
      <point x="276" y="0" type="move" name="btm"/>
    </contour>
    <contour>
      <point x="276" y="568" type="move" name="top"/>
    </contour>
  </outline>
</glyph>
<glyph name="Q" format="1">
  <advance width="581"/>
  <unicode hex="0051"/>
  <outline>
    <contour>
      <point x="495" y="-154" type="curve" smooth="yes"/>
      <point x="545" y="-154"/>
      <point x="592" y="-126"/>
      <point x="612" y="-102" type="curve"/>
      <point x="600" y="-59" type="line"/>
      <point x="588" y="-61"/>
      <point x="574" y="-63"/>
      <point x="557" y="-63" type="curve" smooth="yes"/>
      <point x="521" y="-63"/>
      <point x="488" y="-53"/>
      <point x="449" y="-31" type="curve" smooth="yes"/>
      <point x="396" y="-2"/>
      <point x="360" y="14"/>
      <point x="265" y="14" type="curve"/>
      <point x="199" y="9" type="line"/>
      <point x="348" y="-7"/>
      <point x="357" y="-154"/>
    </contour>
    <contour>
      <point x="281" y="-12" type="curve" smooth="yes"/>
      <point x="449" y="-12"/>
      <point x="547" y="104"/>
      <point x="547" y="294" type="curve" smooth="yes"/>
      <point x="547" y="467"/>
      <point x="471" y="580"/>
      <point x="300" y="580" type="curve" smooth="yes"/>
      <point x="126" y="580"/>
      <point x="34" y="463"/>
      <point x="34" y="273" type="curve" smooth="yes"/>
      <point x="34" y="100"/>
      <point x="110" y="-12"/>
    </contour>
    <contour>
      <point x="292" y="523" type="curve" smooth="yes"/>
      <point x="362" y="523"/>
      <point x="396" y="457"/>
      <point x="396" y="289" type="curve" smooth="yes"/>
      <point x="396" y="115"/>
      <point x="359" y="44"/>
      <point x="288" y="44" type="curve" smooth="yes"/>
      <point x="219" y="44"/>
      <point x="185" y="111"/>
      <point x="185" y="280" type="curve" smooth="yes"/>
      <point x="185" y="453"/>
      <point x="221" y="523"/>
    </contour>
    <contour>
      <point x="291" y="0" type="move" name="btm"/>
    </contour>
    <contour>
      <point x="294" y="568" type="move" name="top"/>
    </contour>
  </outline>
</glyph>
<glyph name="R" format="1">
  <advance width="602"/>
  <unicode hex="0052"/>
  <outline>
    <contour>
      <point x="317" y="0" type="line"/>
      <point x="317" y="52" type="line"/>
      <point x="261" y="62" type="line" smooth="yes"/>
      <point x="249" y="64"/>
      <point x="243" y="70"/>
      <point x="243" y="81" type="curve" smooth="yes"/>
      <point x="243" y="517" type="line"/>
      <point x="256" y="519"/>
      <point x="272" y="521"/>
      <point x="288" y="521" type="curve" smooth="yes"/>
      <point x="352" y="521"/>
      <point x="383" y="492"/>
      <point x="383" y="414" type="curve" smooth="yes"/>
      <point x="383" y="328"/>
      <point x="347" y="292"/>
      <point x="299" y="291" type="curve" smooth="yes"/>
      <point x="284" y="291"/>
      <point x="248" y="290"/>
      <point x="226" y="296" type="curve"/>
      <point x="226" y="241" type="line"/>
      <point x="266" y="241"/>
      <point x="306" y="241"/>
      <point x="341" y="241" type="curve"/>
      <point x="376" y="256" type="line"/>
      <point x="441" y="271"/>
      <point x="528" y="293"/>
      <point x="528" y="420" type="curve" smooth="yes"/>
      <point x="528" y="530"/>
      <point x="463" y="572"/>
      <point x="300" y="572" type="curve" smooth="yes"/>
      <point x="248" y="572"/>
      <point x="213" y="568"/>
      <point x="171" y="568" type="curve" smooth="yes"/>
      <point x="32" y="568" type="line"/>
      <point x="32" y="513" type="line"/>
      <point x="89" y="502" type="line" smooth="yes"/>
      <point x="100" y="500"/>
      <point x="106" y="493"/>
      <point x="106" y="482" type="curve" smooth="yes"/>
      <point x="106" y="83" type="line" smooth="yes"/>
      <point x="106" y="72"/>
      <point x="100" y="65"/>
      <point x="89" y="63" type="curve" smooth="yes"/>
      <point x="32" y="52" type="line"/>
      <point x="32" y="0" type="line"/>
    </contour>
    <contour>
      <point x="592" y="0" type="line"/>
      <point x="592" y="52" type="line"/>
      <point x="558" y="61" type="line" smooth="yes"/>
      <point x="545" y="64"/>
      <point x="539" y="69"/>
      <point x="532" y="85" type="curve" smooth="yes"/>
      <point x="492" y="173" type="line" smooth="yes"/>
      <point x="464" y="237"/>
      <point x="427" y="262"/>
      <point x="361" y="278" type="curve"/>
      <point x="282" y="259" type="line"/>
      <point x="307" y="249"/>
      <point x="325" y="219"/>
      <point x="345" y="169" type="curve" smooth="yes"/>
      <point x="382" y="73" type="line" smooth="yes"/>
      <point x="400" y="29"/>
      <point x="415" y="0"/>
      <point x="436" y="0" type="curve" smooth="yes"/>
    </contour>
    <contour>
      <point x="332" y="0" type="move" name="btm"/>
    </contour>
    <contour>
      <point x="289" y="568" type="move" name="top"/>
    </contour>
  </outline>
</glyph>
<glyph name="S" format="1">
  <advance width="481"/>
  <unicode hex="0053"/>
  <outline>
    <contour>
      <point x="449" y="161" type="curve" smooth="yes"/>
      <point x="449" y="251"/>
      <point x="379" y="300"/>
      <point x="296" y="343" type="curve" smooth="yes"/>
      <point x="220" y="381"/>
      <point x="175" y="404"/>
      <point x="175" y="460" type="curve" smooth="yes"/>
      <point x="175" y="500"/>
      <point x="201" y="527"/>
      <point x="244" y="527" type="curve" smooth="yes"/>
      <point x="265" y="527"/>
      <point x="288" y="520"/>
      <point x="301" y="511" type="curve" smooth="yes"/>
      <point x="310" y="504"/>
      <point x="314" y="496"/>
      <point x="317" y="481" type="curve" smooth="yes"/>
      <point x="332" y="399" type="line"/>
      <point x="408" y="399" type="line"/>
      <point x="416" y="446"/>
      <point x="420" y="501"/>
      <point x="416" y="549" type="curve"/>
      <point x="372" y="567"/>
      <point x="309" y="579"/>
      <point x="251" y="579" type="curve" smooth="yes"/>
      <point x="113" y="579"/>
      <point x="45" y="507"/>
      <point x="45" y="412" type="curve" smooth="yes"/>
      <point x="45" y="316"/>
      <point x="115" y="279"/>
      <point x="191" y="239" type="curve" smooth="yes"/>
      <point x="257" y="205"/>
      <point x="312" y="175"/>
      <point x="312" y="113" type="curve" smooth="yes"/>
      <point x="312" y="70"/>
      <point x="284" y="41"/>
      <point x="236" y="41" type="curve" smooth="yes"/>
      <point x="203" y="41"/>
      <point x="173" y="56"/>
      <point x="159" y="69" type="curve" smooth="yes"/>
      <point x="149" y="77"/>
      <point x="145" y="85"/>
      <point x="143" y="97" type="curve" smooth="yes"/>
      <point x="129" y="191" type="line"/>
      <point x="51" y="191" type="line"/>
      <point x="43" y="148"/>
      <point x="38" y="84"/>
      <point x="41" y="31" type="curve"/>
      <point x="89" y="8"/>
      <point x="157" y="-12"/>
      <point x="233" y="-12" type="curve" smooth="yes"/>
      <point x="391" y="-12"/>
      <point x="449" y="79"/>
    </contour>
    <contour>
      <point x="225" y="0" type="move" name="btm"/>
    </contour>
    <contour>
      <point x="248" y="568" type="move" name="top"/>
    </contour>
  </outline>
</glyph>
<glyph name="T" format="1">
  <advance width="585"/>
  <unicode hex="0054"/>
  <outline>
    <contour>
      <point x="464" y="0" type="line"/>
      <point x="464" y="52" type="line"/>
      <point x="379" y="66" type="line" smooth="yes"/>
      <point x="368" y="68"/>
      <point x="362" y="74"/>
      <point x="362" y="85" type="curve" smooth="yes"/>
      <point x="362" y="512" type="line"/>
      <point x="391" y="512" type="line" smooth="yes"/>
      <point x="411" y="512"/>
      <point x="430" y="509"/>
      <point x="441" y="505" type="curve" smooth="yes"/>
      <point x="451" y="501"/>
      <point x="456" y="495"/>
      <point x="458" y="486" type="curve" smooth="yes"/>
      <point x="491" y="360" type="line"/>
      <point x="558" y="360" type="line"/>
      <point x="565" y="433"/>
      <point x="568" y="493"/>
      <point x="560" y="568" type="curve"/>
      <point x="25" y="568" type="line"/>
      <point x="17" y="493"/>
      <point x="20" y="435"/>
      <point x="28" y="360" type="curve"/>
      <point x="95" y="360" type="line"/>
      <point x="126" y="485" type="line" smooth="yes"/>
      <point x="128" y="495"/>
      <point x="133" y="501"/>
      <point x="143" y="505" type="curve" smooth="yes"/>
      <point x="155" y="509"/>
      <point x="174" y="512"/>
      <point x="193" y="512" type="curve" smooth="yes"/>
      <point x="224" y="512" type="line"/>
      <point x="224" y="85" type="line" smooth="yes"/>
      <point x="224" y="74"/>
      <point x="218" y="68"/>
      <point x="207" y="66" type="curve" smooth="yes"/>
      <point x="121" y="52" type="line"/>
      <point x="121" y="0" type="line"/>
    </contour>
    <contour>
      <point x="293" y="0" type="move" name="btm"/>
    </contour>
    <contour>
      <point x="293" y="568" type="move" name="top"/>
    </contour>
  </outline>
</glyph>
<glyph name="U" format="1">
  <advance width="629"/>
  <unicode hex="0055"/>
  <outline>
    <contour>
      <point x="380" y="568" type="line"/>
      <point x="380" y="513" type="line"/>
      <point x="441" y="502" type="line" smooth="yes"/>
      <point x="452" y="500"/>
      <point x="457" y="493"/>
      <point x="457" y="481" type="curve" smooth="yes"/>
      <point x="457" y="203" type="line" smooth="yes"/>
      <point x="457" y="110"/>
      <point x="429" y="45"/>
      <point x="340" y="45" type="curve" smooth="yes"/>
      <point x="255" y="45"/>
      <point x="225" y="104"/>
      <point x="225" y="203" type="curve" smooth="yes"/>
      <point x="225" y="480" type="line" smooth="yes"/>
      <point x="225" y="491"/>
      <point x="231" y="499"/>
      <point x="242" y="501" type="curve" smooth="yes"/>
      <point x="300" y="513" type="line"/>
      <point x="300" y="568" type="line"/>
      <point x="31" y="568" type="line"/>
      <point x="31" y="513" type="line"/>
      <point x="67" y="503" type="line" smooth="yes"/>
      <point x="77" y="500"/>
      <point x="83" y="493"/>
      <point x="83" y="482" type="curve" smooth="yes"/>
      <point x="83" y="215" type="line" smooth="yes"/>
      <point x="83" y="56"/>
      <point x="160" y="-9"/>
      <point x="318" y="-9" type="curve" smooth="yes"/>
      <point x="455" y="-9"/>
      <point x="542" y="50"/>
      <point x="542" y="210" type="curve" smooth="yes"/>
      <point x="542" y="482" type="line" smooth="yes"/>
      <point x="542" y="493"/>
      <point x="547" y="500"/>
      <point x="558" y="503" type="curve" smooth="yes"/>
      <point x="598" y="513" type="line"/>
      <point x="598" y="568" type="line"/>
    </contour>
    <contour>
      <point x="312" y="0" type="move" name="btm"/>
    </contour>
    <contour>
      <point x="323" y="568" type="move" name="top"/>
    </contour>
  </outline>
</glyph>
<glyph name="V" format="1">
  <advance width="585"/>
  <unicode hex="0056"/>
  <outline>
    <contour>
      <point x="236" y="-2" type="line"/>
      <point x="359" y="-2" type="line"/>
      <point x="518" y="485" type="line" smooth="yes"/>
      <point x="521" y="495"/>
      <point x="528" y="500"/>
      <point x="537" y="502" type="curve" smooth="yes"/>
      <point x="587" y="513" type="line"/>
      <point x="587" y="568" type="line"/>
      <point x="375" y="568" type="line"/>
      <point x="375" y="513" type="line"/>
      <point x="445" y="500" type="line"/>
      <point x="311" y="58" type="line"/>
      <point x="347" y="58" type="line"/>
      <point x="197" y="500" type="line"/>
      <point x="267" y="513" type="line"/>
      <point x="267" y="568" type="line"/>
      <point x="-7" y="568" type="line"/>
      <point x="-7" y="513" type="line"/>
      <point x="39" y="502" type="line" smooth="yes"/>
      <point x="48" y="500"/>
      <point x="55" y="495"/>
      <point x="58" y="485" type="curve" smooth="yes"/>
    </contour>
    <contour>
      <point x="343" y="0" type="move" name="btm"/>
    </contour>
    <contour>
      <point x="293" y="-65" type="move" name="bottom"/>
    </contour>
    <contour>
      <point x="218" y="568" type="move" name="top"/>
    </contour>
  </outline>
</glyph>
<glyph name="W" format="1">
  <advance width="845"/>
  <unicode hex="0057"/>
  <outline>
    <contour>
      <point x="396" y="459" type="line"/>
      <point x="292" y="83" type="line"/>
      <point x="308" y="83" type="line"/>
      <point x="199" y="500" type="line"/>
      <point x="262" y="513" type="line"/>
      <point x="262" y="568" type="line"/>
      <point x="-4" y="568" type="line"/>
      <point x="-4" y="513" type="line"/>
      <point x="44" y="502" type="line" smooth="yes"/>
      <point x="53" y="500"/>
      <point x="59" y="493"/>
      <point x="62" y="484" type="curve" smooth="yes"/>
      <point x="211" y="-2" type="line"/>
      <point x="334" y="-2" type="line"/>
      <point x="437" y="380" type="line"/>
    </contour>
    <contour>
      <point x="408" y="383" type="line"/>
      <point x="518" y="-2" type="line"/>
      <point x="641" y="-2" type="line"/>
      <point x="777" y="484" type="line" smooth="yes"/>
      <point x="780" y="494"/>
      <point x="786" y="500"/>
      <point x="796" y="502" type="curve" smooth="yes"/>
      <point x="847" y="513" type="line"/>
      <point x="847" y="568" type="line"/>
      <point x="644" y="568" type="line"/>
      <point x="644" y="513" type="line"/>
      <point x="707" y="500" type="line"/>
      <point x="598" y="83" type="line"/>
      <point x="618" y="83" type="line"/>
      <point x="510" y="500" type="line"/>
      <point x="582" y="513" type="line"/>
      <point x="582" y="568" type="line"/>
      <point x="323" y="568" type="line"/>
      <point x="323" y="513" type="line"/>
      <point x="356" y="502" type="line" smooth="yes"/>
      <point x="365" y="499"/>
      <point x="371" y="493"/>
      <point x="374" y="484" type="curve" smooth="yes"/>
    </contour>
    <contour>
      <point x="426" y="0" type="move" name="btm"/>
    </contour>
    <contour>
      <point x="427" y="568" type="move" name="top"/>
    </contour>
  </outline>
</glyph>
<glyph name="X" format="1">
  <advance width="565"/>
  <unicode hex="0058"/>
  <outline>
    <contour>
      <point x="562" y="0" type="line"/>
      <point x="562" y="52" type="line"/>
      <point x="521" y="63" type="line" smooth="yes"/>
      <point x="512" y="65"/>
      <point x="505" y="69"/>
      <point x="500" y="77" type="curve" smooth="yes"/>
      <point x="336" y="329" type="line"/>
      <point x="330" y="329" type="line"/>
      <point x="226" y="500" type="line"/>
      <point x="282" y="513" type="line"/>
      <point x="282" y="568" type="line"/>
      <point x="15" y="568" type="line"/>
      <point x="15" y="513" type="line"/>
      <point x="56" y="502" type="line" smooth="yes"/>
      <point x="65" y="499"/>
      <point x="71" y="495"/>
      <point x="76" y="487" type="curve" smooth="yes"/>
      <point x="229" y="249" type="line"/>
      <point x="235" y="249" type="line"/>
      <point x="348" y="64" type="line"/>
      <point x="292" y="52" type="line"/>
      <point x="292" y="0" type="line"/>
    </contour>
    <contour>
      <point x="219" y="0" type="line"/>
      <point x="219" y="52" type="line"/>
      <point x="151" y="64" type="line"/>
      <point x="279" y="261" type="line"/>
      <point x="313" y="261" type="line"/>
      <point x="475" y="488" type="line" smooth="yes"/>
      <point x="480" y="496"/>
      <point x="487" y="500"/>
      <point x="496" y="502" type="curve" smooth="yes"/>
      <point x="545" y="513" type="line"/>
      <point x="545" y="568" type="line"/>
      <point x="344" y="568" type="line"/>
      <point x="344" y="513" type="line"/>
      <point x="406" y="500" type="line"/>
      <point x="284" y="316" type="line"/>
      <point x="248" y="316" type="line"/>
      <point x="80" y="77" type="line" smooth="yes"/>
      <point x="74" y="68"/>
      <point x="69" y="65"/>
      <point x="60" y="63" type="curve" smooth="yes"/>
      <point x="6" y="52" type="line"/>
      <point x="6" y="0" type="line"/>
    </contour>
    <contour>
      <point x="278" y="0" type="move" name="btm"/>
    </contour>
    <contour>
      <point x="278" y="568" type="move" name="top"/>
    </contour>
  </outline>
</glyph>
<glyph name="Y" format="1">
  <advance width="549"/>
  <unicode hex="0059"/>
  <outline>
    <contour>
      <point x="333" y="189" type="line"/>
      <point x="484" y="488" type="line" smooth="yes"/>
      <point x="488" y="496"/>
      <point x="495" y="500"/>
      <point x="504" y="503" type="curve" smooth="yes"/>
      <point x="546" y="513" type="line"/>
      <point x="546" y="568" type="line"/>
      <point x="343" y="568" type="line"/>
      <point x="343" y="513" type="line"/>
      <point x="407" y="499" type="line"/>
      <point x="294" y="264" type="line"/>
      <point x="332" y="264" type="line"/>
      <point x="211" y="499" type="line"/>
      <point x="268" y="513" type="line"/>
      <point x="268" y="568" type="line"/>
      <point x="-9" y="568" type="line"/>
      <point x="-9" y="513" type="line"/>
      <point x="36" y="502" type="line" smooth="yes"/>
      <point x="45" y="500"/>
      <point x="52" y="495"/>
      <point x="57" y="487" type="curve" smooth="yes"/>
      <point x="226" y="189" type="line"/>
    </contour>
    <contour>
      <point x="436" y="0" type="line"/>
      <point x="436" y="52" type="line"/>
      <point x="367" y="66" type="line" smooth="yes"/>
      <point x="355" y="68"/>
      <point x="349" y="74"/>
      <point x="349" y="85" type="curve" smooth="yes"/>
      <point x="349" y="239" type="line"/>
      <point x="207" y="239" type="line"/>
      <point x="207" y="85" type="line" smooth="yes"/>
      <point x="207" y="74"/>
      <point x="201" y="68"/>
      <point x="190" y="66" type="curve" smooth="yes"/>
      <point x="121" y="52" type="line"/>
      <point x="121" y="0" type="line"/>
    </contour>
    <contour>
      <point x="278" y="0" type="move" name="btm"/>
    </contour>
    <contour>
      <point x="287" y="568" type="move" name="top"/>
    </contour>
  </outline>
</glyph>
<glyph name="Z" format="1">
  <advance width="519"/>
  <unicode hex="005A"/>
  <outline>
    <contour>
      <point x="467" y="0" type="line"/>
      <point x="477" y="55"/>
      <point x="483" y="137"/>
      <point x="481" y="188" type="curve"/>
      <point x="407" y="198" type="line"/>
      <point x="370" y="92" type="line" smooth="yes"/>
      <point x="366" y="79"/>
      <point x="359" y="72"/>
      <point x="349" y="68" type="curve" smooth="yes"/>
      <point x="336" y="63"/>
      <point x="313" y="60"/>
      <point x="283" y="60" type="curve" smooth="yes"/>
      <point x="150" y="60" type="line"/>
      <point x="175" y="40" type="line"/>
      <point x="484" y="523" type="line"/>
      <point x="465" y="569" type="line"/>
      <point x="68" y="569" type="line"/>
      <point x="57" y="511"/>
      <point x="53" y="443"/>
      <point x="56" y="381" type="curve"/>
      <point x="132" y="381" type="line"/>
      <point x="165" y="483" type="line" smooth="yes"/>
      <point x="170" y="495"/>
      <point x="176" y="502"/>
      <point x="187" y="506" type="curve" smooth="yes"/>
      <point x="200" y="511"/>
      <point x="223" y="514"/>
      <point x="253" y="514" type="curve" smooth="yes"/>
      <point x="348" y="514" type="line"/>
      <point x="331" y="528" type="line"/>
      <point x="18" y="45" type="line"/>
      <point x="44" y="0" type="line"/>
    </contour>
    <contour>
      <point x="247" y="0" type="move" name="btm"/>
    </contour>
    <contour>
      <point x="276" y="568" type="move" name="top"/>
    </contour>
  </outline>
</glyph>
<glyph name="bracketleft" format="1">
  <advance width="835"/>
  <unicode hex="005B"/>
  <outline>
    <contour>
      <point x="796" y="-387" type="curve"/>
      <point x="796" y="-244" type="line"/>
      <point x="556" y="-216" type="line" smooth="yes"/>
      <point x="523" y="-212"/>
      <point x="504" y="-191"/>
      <point x="504" y="-158" type="curve" smooth="yes"/>
      <point x="504" y="1718" type="line" smooth="yes"/>
      <point x="504" y="1751"/>
      <point x="523" y="1772"/>
      <point x="556" y="1776" type="curve" smooth="yes"/>
      <point x="796" y="1805" type="line"/>
      <point x="796" y="1947" type="line"/>
      <point x="617" y="1971"/>
      <point x="397" y="1982"/>
      <point x="237" y="1980" type="curve"/>
      <point x="189" y="1936" type="line"/>
      <point x="189" y="-376" type="line"/>
      <point x="237" y="-420" type="line"/>
      <point x="397" y="-422"/>
      <point x="617" y="-411"/>
    </contour>
  </outline>
</glyph>
<glyph name="backslash" format="1">
  <advance width="376"/>
  <unicode hex="005C"/>
  <outline>
    <contour>
      <point x="355" y="-105" type="line"/>
      <point x="121" y="633" type="line"/>
      <point x="18" y="633" type="line"/>
      <point x="253" y="-105" type="line"/>
    </contour>
  </outline>
</glyph>
<glyph name="bracketright" format="1">
  <advance width="835"/>
  <unicode hex="005D"/>
  <outline>
    <contour>
      <point x="646" y="-376" type="line"/>
      <point x="646" y="1936" type="line"/>
      <point x="598" y="1980" type="line"/>
      <point x="438" y="1982"/>
      <point x="218" y="1971"/>
      <point x="39" y="1947" type="curve"/>
      <point x="39" y="1805" type="line"/>
      <point x="279" y="1776" type="line" smooth="yes"/>
      <point x="312" y="1772"/>
      <point x="331" y="1751"/>
      <point x="331" y="1718" type="curve" smooth="yes"/>
      <point x="331" y="-158" type="line" smooth="yes"/>
      <point x="331" y="-191"/>
      <point x="312" y="-212"/>
      <point x="279" y="-216" type="curve" smooth="yes"/>
      <point x="39" y="-244" type="line"/>
      <point x="39" y="-387" type="line"/>
      <point x="218" y="-411"/>
      <point x="438" y="-422"/>
      <point x="598" y="-420" type="curve"/>
    </contour>
  </outline>
</glyph>
<glyph name="asciicircum" format="1">
  <advance width="472"/>
  <unicode hex="005E"/>
  <outline>
    <contour>
      <point x="27" y="308" type="line"/>
      <point x="73" y="271" type="line"/>
      <point x="259" y="487" type="line"/>
      <point x="200" y="487" type="line"/>
      <point x="393" y="271" type="line"/>
      <point x="447" y="308" type="line"/>
      <point x="278" y="566" type="line"/>
      <point x="181" y="558" type="line"/>
    </contour>
  </outline>
</glyph>
<glyph name="underscore" format="1">
  <advance width="1751"/>
  <unicode hex="005F"/>
  <outline>
    <contour>
      <point x="0" y="-250" type="line"/>
      <point x="0" y="-412" type="line"/>
      <point x="1751" y="-412" type="line"/>
      <point x="1751" y="-250" type="line"/>
    </contour>
  </outline>
</glyph>
<glyph name="a" format="1">
  <advance width="1251"/>
  <unicode hex="0061"/>
  <outline>
    <contour>
      <point x="398" y="-23" type="curve" smooth="yes"/>
      <point x="578" y="-23"/>
      <point x="718" y="56"/>
      <point x="788" y="194" type="curve"/>
      <point x="762" y="271" type="line"/>
      <point x="712" y="213"/>
      <point x="637" y="176"/>
      <point x="552" y="176" type="curve" smooth="yes"/>
      <point x="467" y="176"/>
      <point x="435" y="217"/>
      <point x="435" y="301" type="curve" smooth="yes"/>
      <point x="435" y="387"/>
      <point x="472" y="459"/>
      <point x="602" y="466" type="curve" smooth="yes"/>
      <point x="769" y="476" type="line"/>
      <point x="769" y="608" type="line"/>
      <point x="508" y="594" type="line" smooth="yes"/>
      <point x="274" y="581"/>
      <point x="65" y="472"/>
      <point x="65" y="258" type="curve" smooth="yes"/>
      <point x="65" y="89"/>
      <point x="194" y="-23"/>
    </contour>
    <contour>
      <point x="181" y="815" type="line"/>
      <point x="270" y="894"/>
      <point x="373" y="933"/>
      <point x="495" y="933" type="curve" smooth="yes"/>
      <point x="636" y="933"/>
      <point x="712" y="881"/>
      <point x="712" y="717" type="curve" smooth="yes"/>
      <point x="712" y="190" type="line"/>
      <point x="743" y="32"/>
      <point x="835" y="-19"/>
      <point x="975" y="-19" type="curve" smooth="yes"/>
      <point x="1056" y="-19"/>
      <point x="1159" y="5"/>
      <point x="1212" y="20" type="curve"/>
      <point x="1212" y="155" type="line"/>
      <point x="1113" y="167" type="line" smooth="yes"/>
      <point x="1080" y="171"/>
      <point x="1062" y="186"/>
      <point x="1062" y="228" type="curve" smooth="yes"/>
      <point x="1062" y="723" type="line" smooth="yes"/>
      <point x="1062" y="1015"/>
      <point x="926" y="1166"/>
      <point x="602" y="1166" type="curve" smooth="yes"/>
      <point x="331" y="1166"/>
      <point x="165" y="1059"/>
      <point x="99" y="886" type="curve"/>
    </contour>
    <contour>
      <point x="563" y="0" type="move" name="btm"/>
    </contour>
    <contour>
      <point x="606" y="1138" type="move" name="top"/>
    </contour>
  </outline>
</glyph>
<glyph name="b" format="1">
  <advance width="483"/>
  <unicode hex="0062"/>
  <outline>
    <contour>
      <point x="55" y="20" type="line"/>
      <point x="85" y="7"/>
      <point x="156" y="-8"/>
      <point x="220" y="-8" type="curve" smooth="yes"/>
      <point x="372" y="-8"/>
      <point x="453" y="78"/>
      <point x="453" y="228" type="curve" smooth="yes"/>
      <point x="453" y="364"/>
      <point x="386" y="425"/>
      <point x="299" y="425" type="curve" smooth="yes"/>
      <point x="241" y="425"/>
      <point x="192" y="398"/>
      <point x="163" y="351" type="curve"/>
      <point x="174" y="327" type="line"/>
      <point x="193" y="341"/>
      <point x="217" y="348"/>
      <point x="239" y="348" type="curve" smooth="yes"/>
      <point x="288" y="348"/>
      <point x="316" y="314"/>
      <point x="314" y="204" type="curve" smooth="yes"/>
      <point x="313" y="91"/>
      <point x="284" y="43"/>
      <point x="229" y="43" type="curve" smooth="yes"/>
      <point x="212" y="43"/>
      <point x="197" y="47"/>
      <point x="186" y="53" type="curve"/>
      <point x="186" y="639" type="line"/>
      <point x="168" y="655" type="line"/>
      <point x="117" y="654"/>
      <point x="42" y="645"/>
      <point x="-9" y="632" type="curve"/>
      <point x="-9" y="580" type="line"/>
      <point x="38" y="572" type="line" smooth="yes"/>
      <point x="49" y="571"/>
      <point x="55" y="563"/>
      <point x="55" y="552" type="curve" smooth="yes"/>
    </contour>
    <contour>
      <point x="206" y="0" type="move" name="btm"/>
    </contour>
    <contour>
      <point x="313" y="414" type="move" name="top"/>
    </contour>
  </outline>
</glyph>
<glyph name="c" format="1">
  <advance width="414"/>
  <unicode hex="0063"/>
  <outline>
    <contour>
      <point x="29" y="202" type="curve" smooth="yes"/>
      <point x="29" y="83"/>
      <point x="88" y="-9"/>
      <point x="223" y="-9" type="curve" smooth="yes"/>
      <point x="311" y="-9"/>
      <point x="369" y="30"/>
      <point x="387" y="83" type="curve"/>
      <point x="359" y="105" type="line"/>
      <point x="341" y="90"/>
      <point x="309" y="71"/>
      <point x="266" y="71" type="curve" smooth="yes"/>
      <point x="196" y="71"/>
      <point x="170" y="121"/>
      <point x="170" y="220" type="curve" smooth="yes"/>
      <point x="170" y="327"/>
      <point x="200" y="367"/>
      <point x="238" y="367" type="curve" smooth="yes"/>
      <point x="253" y="367"/>
      <point x="265" y="361"/>
      <point x="273" y="354" type="curve" smooth="yes"/>
      <point x="280" y="348"/>
      <point x="284" y="340"/>
      <point x="288" y="323" type="curve" smooth="yes"/>
      <point x="309" y="250" type="line"/>
      <point x="373" y="250" type="line"/>
      <point x="381" y="295"/>
      <point x="385" y="344"/>
      <point x="381" y="393" type="curve"/>
      <point x="348" y="411"/>
      <point x="293" y="425"/>
      <point x="241" y="425" type="curve" smooth="yes"/>
      <point x="118" y="425"/>
      <point x="29" y="348"/>
    </contour>
    <contour>
      <point x="215" y="0" type="move" name="btm"/>
    </contour>
    <contour>
      <point x="228" y="414" type="move" name="top"/>
    </contour>
  </outline>
</glyph>
<glyph name="d" format="1">
  <advance width="503"/>
  <unicode hex="0064"/>
  <outline>
    <contour>
      <point x="194" y="-8" type="curve" smooth="yes"/>
      <point x="257" y="-8"/>
      <point x="303" y="24"/>
      <point x="331" y="72" type="curve"/>
      <point x="317" y="90" type="line"/>
      <point x="299" y="73"/>
      <point x="267" y="63"/>
      <point x="240" y="63" type="curve" smooth="yes"/>
      <point x="193" y="63"/>
      <point x="168" y="104"/>
      <point x="168" y="210" type="curve" smooth="yes"/>
      <point x="169" y="332"/>
      <point x="202" y="369"/>
      <point x="255" y="369" type="curve" smooth="yes"/>
      <point x="276" y="369"/>
      <point x="299" y="363"/>
      <point x="310" y="352" type="curve"/>
      <point x="320" y="414" type="line"/>
      <point x="304" y="420"/>
      <point x="272" y="425"/>
      <point x="245" y="425" type="curve" smooth="yes"/>
      <point x="107" y="425"/>
      <point x="30" y="344"/>
      <point x="30" y="195" type="curve" smooth="yes"/>
      <point x="30" y="53"/>
      <point x="99" y="-8"/>
    </contour>
    <contour>
      <point x="412" y="655" type="line"/>
      <point x="360" y="654"/>
      <point x="287" y="645"/>
      <point x="234" y="631" type="curve"/>
      <point x="234" y="580" type="line"/>
      <point x="282" y="573" type="line" smooth="yes"/>
      <point x="293" y="571"/>
      <point x="299" y="564"/>
      <point x="299" y="552" type="curve" smooth="yes"/>
      <point x="299" y="73" type="line"/>
      <point x="310" y="19"/>
      <point x="342" y="-7"/>
      <point x="396" y="-7" type="curve" smooth="yes"/>
      <point x="428" y="-7"/>
      <point x="467" y="2"/>
      <point x="484" y="7" type="curve"/>
      <point x="484" y="56" type="line"/>
      <point x="448" y="61" type="line" smooth="yes"/>
      <point x="437" y="62"/>
      <point x="430" y="67"/>
      <point x="430" y="83" type="curve" smooth="yes"/>
      <point x="430" y="638" type="line"/>
    </contour>
    <contour>
      <point x="219" y="0" type="move" name="btm"/>
    </contour>
    <contour>
      <point x="430" y="414" type="move" name="topright"/>
    </contour>
  </outline>
</glyph>
<glyph name="e" format="1">
  <advance width="431"/>
  <unicode hex="0065"/>
  <outline>
    <contour>
      <point x="30" y="204" type="curve" smooth="yes"/>
      <point x="30" y="73"/>
      <point x="91" y="-9"/>
      <point x="225" y="-9" type="curve" smooth="yes"/>
      <point x="313" y="-9"/>
      <point x="379" y="25"/>
      <point x="398" y="91" type="curve"/>
      <point x="370" y="112" type="line"/>
      <point x="345" y="84"/>
      <point x="305" y="71"/>
      <point x="265" y="71" type="curve" smooth="yes"/>
      <point x="188" y="71"/>
      <point x="164" y="118"/>
      <point x="164" y="227" type="curve" smooth="yes"/>
      <point x="164" y="337"/>
      <point x="188" y="371"/>
      <point x="227" y="371" type="curve" smooth="yes"/>
      <point x="265" y="371"/>
      <point x="282" y="337"/>
      <point x="282" y="290" type="curve" smooth="yes"/>
      <point x="282" y="283"/>
      <point x="282" y="278"/>
      <point x="281" y="273" type="curve"/>
      <point x="120" y="273" type="line"/>
      <point x="120" y="225" type="line"/>
      <point x="395" y="225" type="line"/>
      <point x="399" y="242"/>
      <point x="401" y="265"/>
      <point x="401" y="284" type="curve" smooth="yes"/>
      <point x="401" y="365"/>
      <point x="352" y="424"/>
      <point x="236" y="424" type="curve" smooth="yes"/>
      <point x="104" y="424"/>
      <point x="30" y="348"/>
    </contour>
    <contour>
      <point x="213" y="0" type="move" name="btm"/>
    </contour>
    <contour>
      <point x="224" y="414" type="move" name="top"/>
    </contour>
  </outline>
</glyph>
<glyph name="f" format="1">
  <advance width="343"/>
  <unicode hex="0066"/>
  <outline>
    <contour>
      <point x="187" y="654"/>
      <point x="88" y="533"/>
      <point x="88" y="429" type="curve" smooth="yes"/>
      <point x="88" y="414" type="line"/>
      <point x="24" y="402" type="line"/>
      <point x="24" y="352" type="line"/>
      <point x="85" y="341" type="line"/>
      <point x="85" y="79" type="line" smooth="yes"/>
      <point x="85" y="67"/>
      <point x="79" y="61"/>
      <point x="68" y="59" type="curve" smooth="yes"/>
      <point x="29" y="52" type="line"/>
      <point x="29" y="0" type="line"/>
      <point x="309" y="0" type="line"/>
      <point x="309" y="52" type="line"/>
      <point x="235" y="60" type="line" smooth="yes"/>
      <point x="223" y="61"/>
      <point x="217" y="68"/>
      <point x="217" y="79" type="curve" smooth="yes"/>
      <point x="217" y="343" type="line"/>
      <point x="332" y="343" type="line"/>
      <point x="332" y="413" type="line"/>
      <point x="216" y="413" type="line"/>
      <point x="216" y="473" type="line" smooth="yes"/>
      <point x="216" y="539"/>
      <point x="243" y="550"/>
      <point x="288" y="551" type="curve" smooth="yes"/>
      <point x="305" y="552"/>
      <point x="339" y="547"/>
      <point x="368" y="541" type="curve"/>
      <point x="394" y="612" type="line"/>
      <point x="363" y="635"/>
      <point x="324" y="654"/>
      <point x="284" y="654" type="curve" smooth="yes"/>
    </contour>
    <contour>
      <point x="140" y="0" type="move" name="btm"/>
    </contour>
    <contour>
      <point x="150" y="414" type="move" name="top"/>
    </contour>
  </outline>
</glyph>
<glyph name="g" format="1">
  <advance width="1335"/>
  <unicode hex="0067"/>
  <outline>
    <contour>
      <point x="1263" y="-93" type="curve" smooth="yes"/>
      <point x="1263" y="118"/>
      <point x="1112" y="216"/>
      <point x="833" y="216" type="curve" smooth="yes"/>
      <point x="631" y="216" type="line"/>
      <point x="472" y="216"/>
      <point x="413" y="238"/>
      <point x="413" y="310" type="curve" smooth="yes"/>
      <point x="413" y="348"/>
      <point x="430" y="394"/>
      <point x="489" y="435" type="curve"/>
      <point x="384" y="447" type="line"/>
      <point x="253" y="413"/>
      <point x="163" y="339"/>
      <point x="163" y="210" type="curve" smooth="yes"/>
      <point x="163" y="81"/>
      <point x="254" y="-17"/>
      <point x="509" y="-17" type="curve" smooth="yes"/>
      <point x="715" y="-17" type="line" smooth="yes"/>
      <point x="845" y="-17"/>
      <point x="892" y="-57"/>
      <point x="892" y="-163" type="curve" smooth="yes"/>
      <point x="892" y="-310"/>
      <point x="798" y="-390"/>
      <point x="635" y="-390" type="curve" smooth="yes"/>
      <point x="468" y="-390"/>
      <point x="406" y="-300"/>
      <point x="406" y="-177" type="curve" smooth="yes"/>
      <point x="406" y="-72"/>
      <point x="453" y="3"/>
      <point x="505" y="43" type="curve"/>
      <point x="396" y="48" type="line"/>
      <point x="194" y="4"/>
      <point x="64" y="-74"/>
      <point x="64" y="-240" type="curve" smooth="yes"/>
      <point x="64" y="-418"/>
      <point x="212" y="-552"/>
      <point x="576" y="-552" type="curve" smooth="yes"/>
      <point x="996" y="-552"/>
      <point x="1263" y="-374"/>
    </contour>
    <contour>
      <point x="1116" y="786" type="curve" smooth="yes"/>
      <point x="1116" y="1045"/>
      <point x="943" y="1168"/>
      <point x="632" y="1168" type="curve" smooth="yes"/>
      <point x="283" y="1168"/>
      <point x="98" y="1016"/>
      <point x="98" y="757" type="curve" smooth="yes"/>
      <point x="98" y="546"/>
      <point x="220" y="376"/>
      <point x="594" y="376" type="curve" smooth="yes"/>
      <point x="964" y="376"/>
      <point x="1116" y="544"/>
    </contour>
    <contour>
      <point x="460" y="776" type="curve" smooth="yes"/>
      <point x="460" y="954"/>
      <point x="512" y="1030"/>
      <point x="617" y="1030" type="curve" smooth="yes"/>
      <point x="720" y="1030"/>
      <point x="764" y="961"/>
      <point x="764" y="776" type="curve" smooth="yes"/>
      <point x="764" y="608"/>
      <point x="726" y="519"/>
      <point x="616" y="519" type="curve" smooth="yes"/>
      <point x="511" y="519"/>
      <point x="460" y="594"/>
    </contour>
    <contour>
      <point x="1305" y="908" type="line"/>
      <point x="1305" y="1153" type="line"/>
      <point x="1279" y="1161"/>
      <point x="1238" y="1172"/>
      <point x="1203" y="1172" type="curve" smooth="yes"/>
      <point x="1112" y="1172"/>
      <point x="1016" y="1097"/>
      <point x="965" y="976" type="curve"/>
      <point x="1053" y="908" type="line"/>
    </contour>
    <contour>
      <point x="613" y="1138" type="move" name="top"/>
    </contour>
  </outline>
</glyph>
<glyph name="h" format="1">
  <advance width="1467"/>
  <unicode hex="0068"/>
  <outline>
    <contour>
      <point x="678" y="0" type="line"/>
      <point x="678" y="142" type="line"/>
      <point x="610" y="162" type="line" smooth="yes"/>
      <point x="580" y="173"/>
      <point x="566" y="188"/>
      <point x="566" y="219" type="curve" smooth="yes"/>
      <point x="566" y="1753" type="line"/>
      <point x="517" y="1800" type="line"/>
      <point x="373" y="1801"/>
      <point x="173" y="1784"/>
      <point x="29" y="1746" type="curve"/>
      <point x="29" y="1606" type="line"/>
      <point x="159" y="1585" type="line" smooth="yes"/>
      <point x="189" y="1580"/>
      <point x="205" y="1560"/>
      <point x="205" y="1529" type="curve" smooth="yes"/>
      <point x="205" y="219" type="line" smooth="yes"/>
      <point x="205" y="188"/>
      <point x="188" y="169"/>
      <point x="158" y="163" type="curve" smooth="yes"/>
      <point x="50" y="143" type="line"/>
      <point x="50" y="0" type="line"/>
    </contour>
    <contour>
      <point x="1425" y="0" type="line"/>
      <point x="1425" y="143" type="line"/>
      <point x="1316" y="163" type="line" smooth="yes"/>
      <point x="1286" y="169"/>
      <point x="1270" y="188"/>
      <point x="1270" y="219" type="curve" smooth="yes"/>
      <point x="1270" y="732" type="line" smooth="yes"/>
      <point x="1270" y="1007"/>
      <point x="1190" y="1162"/>
      <point x="921" y="1162" type="curve" smooth="yes"/>
      <point x="745" y="1162"/>
      <point x="603" y="1096"/>
      <point x="504" y="957" type="curve"/>
      <point x="503" y="855" type="line"/>
      <point x="573" y="918"/>
      <point x="661" y="949"/>
      <point x="738" y="949" type="curve" smooth="yes"/>
      <point x="857" y="949"/>
      <point x="909" y="880"/>
      <point x="909" y="692" type="curve" smooth="yes"/>
      <point x="909" y="219" type="line" smooth="yes"/>
      <point x="909" y="188"/>
      <point x="894" y="173"/>
      <point x="864" y="162" type="curve" smooth="yes"/>
      <point x="797" y="142" type="line"/>
      <point x="797" y="0" type="line"/>
    </contour>
    <contour>
      <point x="746" y="0" type="move" name="btm"/>
    </contour>
    <contour>
      <point x="458" y="1769" type="move" name="top"/>
    </contour>
  </outline>
</glyph>
<glyph name="j" format="1">
  <advance width="268"/>
  <unicode hex="006A"/>
  <outline>
    <contour>
      <point x="191" y="424" type="line"/>
      <point x="139" y="424"/>
      <point x="69" y="417"/>
      <point x="17" y="403" type="curve"/>
      <point x="17" y="349" type="line"/>
      <point x="62" y="340" type="line" smooth="yes"/>
      <point x="73" y="338"/>
      <point x="78" y="330"/>
      <point x="78" y="319" type="curve" smooth="yes"/>
      <point x="78" y="29" type="line" smooth="yes"/>
      <point x="78" y="-56"/>
      <point x="55" y="-99"/>
      <point x="-30" y="-141" type="curve"/>
      <point x="-7" y="-196" type="line"/>
      <point x="51" y="-181"/>
      <point x="107" y="-162"/>
      <point x="146" y="-130" type="curve" smooth="yes"/>
      <point x="187" y="-97"/>
      <point x="208" y="-52"/>
      <point x="208" y="36" type="curve" smooth="yes"/>
      <point x="208" y="408" type="line"/>
    </contour>
    <contour>
      <point x="202" y="538" type="curve" smooth="yes"/>
      <point x="202" y="578"/>
      <point x="174" y="603"/>
      <point x="131" y="603" type="curve" smooth="yes"/>
      <point x="87" y="603"/>
      <point x="59" y="578"/>
      <point x="59" y="538" type="curve" smooth="yes"/>
      <point x="59" y="498"/>
      <point x="87" y="472"/>
      <point x="131" y="472" type="curve" smooth="yes"/>
      <point x="174" y="472"/>
      <point x="202" y="498"/>
    </contour>
    <contour>
      <point x="122" y="414" type="move" name="top"/>
    </contour>
  </outline>
</glyph>
<glyph name="k" format="1">
  <advance width="519"/>
  <unicode hex="006B"/>
  <outline>
    <contour>
      <point x="260" y="0" type="line"/>
      <point x="260" y="52" type="line"/>
      <point x="222" y="59" type="line" smooth="yes"/>
      <point x="211" y="61"/>
      <point x="205" y="68"/>
      <point x="205" y="80" type="curve" smooth="yes"/>
      <point x="205" y="639" type="line"/>
      <point x="188" y="655" type="line"/>
      <point x="135" y="654"/>
      <point x="63" y="645"/>
      <point x="11" y="631" type="curve"/>
      <point x="11" y="580" type="line"/>
      <point x="58" y="573" type="line" smooth="yes"/>
      <point x="69" y="571"/>
      <point x="75" y="564"/>
      <point x="75" y="552" type="curve" smooth="yes"/>
      <point x="75" y="80" type="line" smooth="yes"/>
      <point x="75" y="69"/>
      <point x="68" y="61"/>
      <point x="57" y="59" type="curve" smooth="yes"/>
      <point x="18" y="52" type="line"/>
      <point x="18" y="0" type="line"/>
    </contour>
    <contour>
      <point x="511" y="0" type="line"/>
      <point x="511" y="52" type="line"/>
      <point x="472" y="63" type="line" smooth="yes"/>
      <point x="459" y="66"/>
      <point x="453" y="70"/>
      <point x="447" y="83" type="curve" smooth="yes"/>
      <point x="389" y="194" type="line" smooth="yes"/>
      <point x="367" y="237"/>
      <point x="351" y="263"/>
      <point x="324" y="288" type="curve"/>
      <point x="238" y="206" type="line"/>
      <point x="252" y="188"/>
      <point x="263" y="167"/>
      <point x="273" y="144" type="curve" smooth="yes"/>
      <point x="305" y="71" type="line" smooth="yes"/>
      <point x="322" y="33"/>
      <point x="335" y="0"/>
      <point x="360" y="0" type="curve" smooth="yes"/>
    </contour>
    <contour>
      <point x="409" y="336" type="line" smooth="yes"/>
      <point x="421" y="347"/>
      <point x="428" y="349"/>
      <point x="448" y="353" type="curve" smooth="yes"/>
      <point x="490" y="364" type="line"/>
      <point x="490" y="413" type="line"/>
      <point x="273" y="413" type="line"/>
      <point x="273" y="364" type="line"/>
      <point x="368" y="347" type="line"/>
      <point x="367" y="381" type="line"/>
      <point x="181" y="184" type="line"/>
      <point x="187" y="118" type="line"/>
    </contour>
    <contour>
      <point x="283" y="0" type="move" name="btm"/>
    </contour>
    <contour>
      <point x="276" y="414" type="move" name="top"/>
    </contour>
  </outline>
</glyph>
<glyph name="l" format="1">
  <advance width="285"/>
  <unicode hex="006C"/>
  <outline>
    <contour>
      <point x="208" y="638" type="line"/>
      <point x="191" y="655" type="line"/>
      <point x="138" y="654"/>
      <point x="65" y="645"/>
      <point x="13" y="631" type="curve"/>
      <point x="13" y="580" type="line"/>
      <point x="60" y="573" type="line" smooth="yes"/>
      <point x="71" y="571"/>
      <point x="77" y="564"/>
      <point x="77" y="552" type="curve" smooth="yes"/>
      <point x="77" y="79" type="line" smooth="yes"/>
      <point x="77" y="68"/>
      <point x="71" y="61"/>
      <point x="60" y="59" type="curve" smooth="yes"/>
      <point x="16" y="52" type="line"/>
      <point x="16" y="0" type="line"/>
      <point x="269" y="0" type="line"/>
      <point x="269" y="52" type="line"/>
      <point x="225" y="59" type="line" smooth="yes"/>
      <point x="214" y="61"/>
      <point x="208" y="68"/>
      <point x="208" y="80" type="curve" smooth="yes"/>
    </contour>
    <contour>
      <point x="139" y="0" type="move" name="btm"/>
    </contour>
    <contour>
      <point x="135" y="648" type="move" name="top"/>
    </contour>
    <contour>
      <point x="208" y="414" type="move" name="topright"/>
    </contour>
  </outline>
</glyph>
<glyph name="m" format="1">
  <advance width="789"/>
  <unicode hex="006D"/>
  <outline>
    <contour>
      <point x="774" y="0" type="line"/>
      <point x="774" y="52" type="line"/>
      <point x="734" y="59" type="line" smooth="yes"/>
      <point x="723" y="61"/>
      <point x="717" y="68"/>
      <point x="717" y="80" type="curve" smooth="yes"/>
      <point x="717" y="263" type="line" smooth="yes"/>
      <point x="717" y="364"/>
      <point x="689" y="423"/>
      <point x="590" y="423" type="curve" smooth="yes"/>
      <point x="528" y="423"/>
      <point x="474" y="400"/>
      <point x="438" y="351" type="curve"/>
      <point x="439" y="311" type="line"/>
      <point x="467" y="335"/>
      <point x="497" y="345"/>
      <point x="523" y="345" type="curve" smooth="yes"/>
      <point x="567" y="345"/>
      <point x="586" y="317"/>
      <point x="586" y="248" type="curve" smooth="yes"/>
      <point x="586" y="80" type="line" smooth="yes"/>
      <point x="586" y="68"/>
      <point x="581" y="63"/>
      <point x="569" y="59" type="curve" smooth="yes"/>
      <point x="547" y="52" type="line"/>
      <point x="547" y="0" type="line"/>
    </contour>
    <contour>
      <point x="256" y="0" type="line"/>
      <point x="256" y="52" type="line"/>
      <point x="232" y="59" type="line" smooth="yes"/>
      <point x="221" y="63"/>
      <point x="217" y="68"/>
      <point x="217" y="80" type="curve" smooth="yes"/>
      <point x="217" y="332" type="line"/>
      <point x="203" y="408" type="line"/>
      <point x="184" y="424" type="line"/>
      <point x="135" y="423"/>
      <point x="76" y="416"/>
      <point x="25" y="403" type="curve"/>
      <point x="25" y="349" type="line"/>
      <point x="69" y="340" type="line" smooth="yes"/>
      <point x="80" y="338"/>
      <point x="85" y="330"/>
      <point x="85" y="319" type="curve" smooth="yes"/>
      <point x="85" y="80" type="line" smooth="yes"/>
      <point x="85" y="68"/>
      <point x="79" y="61"/>
      <point x="69" y="59" type="curve" smooth="yes"/>
      <point x="29" y="52" type="line"/>
      <point x="29" y="0" type="line"/>
    </contour>
    <contour>
      <point x="506" y="0" type="line"/>
      <point x="506" y="52" type="line"/>
      <point x="483" y="59" type="line" smooth="yes"/>
      <point x="472" y="63"/>
      <point x="467" y="68"/>
      <point x="467" y="80" type="curve" smooth="yes"/>
      <point x="467" y="266" type="line" smooth="yes"/>
      <point x="467" y="366"/>
      <point x="438" y="423"/>
      <point x="340" y="423" type="curve" smooth="yes"/>
      <point x="277" y="423"/>
      <point x="226" y="399"/>
      <point x="193" y="348" type="curve"/>
      <point x="193" y="312" type="line"/>
      <point x="215" y="334"/>
      <point x="248" y="345"/>
      <point x="274" y="345" type="curve" smooth="yes"/>
      <point x="318" y="345"/>
      <point x="336" y="320"/>
      <point x="336" y="252" type="curve" smooth="yes"/>
      <point x="336" y="80" type="line" smooth="yes"/>
      <point x="336" y="68"/>
      <point x="330" y="63"/>
      <point x="319" y="59" type="curve" smooth="yes"/>
      <point x="297" y="52" type="line"/>
      <point x="297" y="0" type="line"/>
    </contour>
    <contour>
      <point x="397" y="0" type="move" name="btm"/>
    </contour>
    <contour>
      <point x="397" y="414" type="move" name="top"/>
    </contour>
  </outline>
</glyph>
<glyph name="n" format="1">
  <advance width="544"/>
  <unicode hex="006E"/>
  <outline>
    <contour>
      <point x="529" y="0" type="line"/>
      <point x="529" y="52" type="line"/>
      <point x="489" y="59" type="line" smooth="yes"/>
      <point x="478" y="61"/>
      <point x="472" y="68"/>
      <point x="472" y="80" type="curve" smooth="yes"/>
      <point x="472" y="266" type="line" smooth="yes"/>
      <point x="472" y="366"/>
      <point x="443" y="423"/>
      <point x="345" y="423" type="curve" smooth="yes"/>
      <point x="281" y="423"/>
      <point x="230" y="399"/>
      <point x="194" y="348" type="curve"/>
      <point x="193" y="311" type="line"/>
      <point x="219" y="334"/>
      <point x="251" y="345"/>
      <point x="279" y="345" type="curve" smooth="yes"/>
      <point x="322" y="345"/>
      <point x="341" y="320"/>
      <point x="341" y="252" type="curve" smooth="yes"/>
      <point x="341" y="80" type="line" smooth="yes"/>
      <point x="341" y="68"/>
      <point x="336" y="63"/>
      <point x="325" y="59" type="curve" smooth="yes"/>
      <point x="300" y="52" type="line"/>
      <point x="300" y="0" type="line"/>
    </contour>
    <contour>
      <point x="257" y="0" type="line"/>
      <point x="257" y="52" type="line"/>
      <point x="233" y="59" type="line" smooth="yes"/>
      <point x="223" y="63"/>
      <point x="217" y="68"/>
      <point x="217" y="80" type="curve" smooth="yes"/>
      <point x="217" y="332" type="line"/>
      <point x="203" y="408" type="line"/>
      <point x="184" y="424" type="line"/>
      <point x="135" y="423"/>
      <point x="76" y="416"/>
      <point x="25" y="403" type="curve"/>
      <point x="25" y="349" type="line"/>
      <point x="69" y="340" type="line" smooth="yes"/>
      <point x="80" y="338"/>
      <point x="85" y="330"/>
      <point x="85" y="319" type="curve" smooth="yes"/>
      <point x="85" y="80" type="line" smooth="yes"/>
      <point x="85" y="68"/>
      <point x="79" y="61"/>
      <point x="69" y="59" type="curve" smooth="yes"/>
      <point x="29" y="52" type="line"/>
      <point x="29" y="0" type="line"/>
    </contour>
    <contour>
      <point x="25" y="414" type="move" name="apostrophe"/>
    </contour>
    <contour>
      <point x="279" y="0" type="move" name="btm"/>
    </contour>
    <contour>
      <point x="274" y="414" type="move" name="top"/>
    </contour>
  </outline>
</glyph>
<glyph name="o" format="1">
  <advance width="1315"/>
  <unicode hex="006F"/>
  <outline>
    <contour>
      <point x="844" y="556" type="curve" smooth="yes"/>
      <point x="844" y="232"/>
      <point x="784" y="124"/>
      <point x="662" y="124" type="curve" smooth="yes"/>
      <point x="514" y="124"/>
      <point x="471" y="249"/>
      <point x="471" y="585" type="curve" smooth="yes"/>
      <point x="471" y="910"/>
      <point x="531" y="1017"/>
      <point x="653" y="1017" type="curve" smooth="yes"/>
      <point x="800" y="1017"/>
      <point x="844" y="893"/>
    </contour>
    <contour>
      <point x="81" y="558" type="curve" smooth="yes"/>
      <point x="81" y="159"/>
      <point x="291" y="-26"/>
      <point x="641" y="-26" type="curve" smooth="yes"/>
      <point x="978" y="-26"/>
      <point x="1233" y="133"/>
      <point x="1233" y="583" type="curve" smooth="yes"/>
      <point x="1233" y="983"/>
      <point x="1024" y="1168"/>
      <point x="673" y="1168" type="curve" smooth="yes"/>
      <point x="337" y="1168"/>
      <point x="81" y="1006"/>
    </contour>
    <contour>
      <point x="658" y="0" type="move" name="btm"/>
    </contour>
    <contour>
      <point x="658" y="1138" type="move" name="top"/>
    </contour>
  </outline>
</glyph>
<glyph name="p" format="1">
  <advance width="505"/>
  <unicode hex="0070"/>
  <outline>
    <contour>
      <point x="476" y="227" type="curve" smooth="yes"/>
      <point x="476" y="363"/>
      <point x="409" y="425"/>
      <point x="321" y="425" type="curve" smooth="yes"/>
      <point x="256" y="425"/>
      <point x="212" y="392"/>
      <point x="182" y="346" type="curve"/>
      <point x="193" y="323" type="line"/>
      <point x="204" y="335"/>
      <point x="231" y="348"/>
      <point x="262" y="348" type="curve" smooth="yes"/>
      <point x="314" y="348"/>
      <point x="338" y="308"/>
      <point x="337" y="207" type="curve" smooth="yes"/>
      <point x="337" y="82"/>
      <point x="303" y="43"/>
      <point x="251" y="43" type="curve" smooth="yes"/>
      <point x="228" y="43"/>
      <point x="205" y="47"/>
      <point x="189" y="66" type="curve"/>
      <point x="183" y="1" type="line"/>
      <point x="207" y="-6"/>
      <point x="231" y="-8"/>
      <point x="251" y="-8" type="curve" smooth="yes"/>
      <point x="388" y="-8"/>
      <point x="476" y="73"/>
    </contour>
    <contour>
      <point x="209" y="340" type="line"/>
      <point x="195" y="408" type="line"/>
      <point x="176" y="424" type="line"/>
      <point x="128" y="424"/>
      <point x="65" y="415"/>
      <point x="17" y="403" type="curve"/>
      <point x="17" y="349" type="line"/>
      <point x="62" y="340" type="line" smooth="yes"/>
      <point x="72" y="338"/>
      <point x="77" y="330"/>
      <point x="77" y="319" type="curve" smooth="yes"/>
      <point x="77" y="-101" type="line" smooth="yes"/>
      <point x="77" y="-112"/>
      <point x="72" y="-119"/>
      <point x="61" y="-121" type="curve" smooth="yes"/>
      <point x="21" y="-129" type="line"/>
      <point x="21" y="-180" type="line"/>
      <point x="283" y="-180" type="line"/>
      <point x="283" y="-129" type="line"/>
      <point x="226" y="-121" type="line" smooth="yes"/>
      <point x="215" y="-120"/>
      <point x="209" y="-112"/>
      <point x="209" y="-101" type="curve" smooth="yes"/>
    </contour>
    <contour>
      <point x="241" y="0" type="move" name="btm"/>
    </contour>
    <contour>
      <point x="260" y="414" type="move" name="top"/>
    </contour>
  </outline>
</glyph>
<glyph name="q" format="1">
  <advance width="489"/>
  <unicode hex="0071"/>
  <outline>
    <contour>
      <point x="30" y="53"/>
      <point x="99" y="-8"/>
      <point x="194" y="-8" type="curve" smooth="yes"/>
      <point x="260" y="-8"/>
      <point x="303" y="25"/>
      <point x="327" y="75" type="curve"/>
      <point x="313" y="89" type="line"/>
      <point x="295" y="73"/>
      <point x="267" y="63"/>
      <point x="240" y="63" type="curve" smooth="yes"/>
      <point x="193" y="63"/>
      <point x="168" y="104"/>
      <point x="168" y="215" type="curve" smooth="yes"/>
      <point x="168" y="325"/>
      <point x="200" y="369"/>
      <point x="251" y="369" type="curve" smooth="yes"/>
      <point x="279" y="369"/>
      <point x="297" y="360"/>
      <point x="310" y="341" type="curve"/>
      <point x="383" y="381" type="line"/>
      <point x="350" y="406"/>
      <point x="293" y="425"/>
      <point x="242" y="425" type="curve" smooth="yes"/>
      <point x="107" y="425"/>
      <point x="30" y="337"/>
      <point x="30" y="195" type="curve" smooth="yes"/>
    </contour>
    <contour>
      <point x="429" y="405" type="line"/>
      <point x="409" y="421" type="line"/>
      <point x="298" y="375" type="line"/>
      <point x="298" y="-101" type="line" smooth="yes"/>
      <point x="298" y="-113"/>
      <point x="292" y="-120"/>
      <point x="281" y="-121" type="curve" smooth="yes"/>
      <point x="219" y="-129" type="line"/>
      <point x="219" y="-180" type="line"/>
      <point x="481" y="-180" type="line"/>
      <point x="481" y="-129" type="line"/>
      <point x="447" y="-121" type="line" smooth="yes"/>
      <point x="436" y="-119"/>
      <point x="429" y="-112"/>
      <point x="429" y="-101" type="curve" smooth="yes"/>
    </contour>
    <contour>
      <point x="236" y="0" type="move" name="btm"/>
    </contour>
    <contour>
      <point x="228" y="414" type="move" name="top"/>
    </contour>
  </outline>
</glyph>
<glyph name="r" format="1">
  <advance width="410"/>
  <unicode hex="0072"/>
  <outline>
    <contour>
      <point x="200" y="276" type="line"/>
      <point x="227" y="307"/>
      <point x="259" y="317"/>
      <point x="280" y="317" type="curve" smooth="yes"/>
      <point x="297" y="317"/>
      <point x="304" y="313"/>
      <point x="310" y="295" type="curve" smooth="yes"/>
      <point x="323" y="253" type="line"/>
      <point x="380" y="253" type="line"/>
      <point x="392" y="307"/>
      <point x="396" y="371"/>
      <point x="391" y="413" type="curve"/>
      <point x="378" y="419"/>
      <point x="349" y="425"/>
      <point x="333" y="425" type="curve" smooth="yes"/>
      <point x="275" y="425"/>
      <point x="223" y="374"/>
      <point x="188" y="294" type="curve"/>
    </contour>
    <contour>
      <point x="196" y="408" type="line"/>
      <point x="175" y="424" type="line"/>
      <point x="129" y="423"/>
      <point x="72" y="416"/>
      <point x="25" y="403" type="curve"/>
      <point x="25" y="349" type="line"/>
      <point x="69" y="340" type="line" smooth="yes"/>
      <point x="80" y="338"/>
      <point x="85" y="330"/>
      <point x="85" y="319" type="curve" smooth="yes"/>
      <point x="85" y="80" type="line" smooth="yes"/>
      <point x="85" y="68"/>
      <point x="79" y="61"/>
      <point x="68" y="59" type="curve" smooth="yes"/>
      <point x="29" y="52" type="line"/>
      <point x="29" y="0" type="line"/>
      <point x="296" y="0" type="line"/>
      <point x="296" y="52" type="line"/>
      <point x="235" y="59" type="line" smooth="yes"/>
      <point x="223" y="61"/>
      <point x="217" y="68"/>
      <point x="217" y="80" type="curve" smooth="yes"/>
      <point x="217" y="296" type="line"/>
    </contour>
    <contour>
      <point x="161" y="0" type="move" name="btm"/>
    </contour>
    <contour>
      <point x="220" y="414" type="move" name="top"/>
    </contour>
  </outline>
</glyph>
<glyph name="s" format="1">
  <advance width="407"/>
  <unicode hex="0073"/>
  <outline>
    <contour>
      <point x="38" y="20" type="curve"/>
      <point x="79" y="4"/>
      <point x="135" y="-12"/>
      <point x="197" y="-12" type="curve" smooth="yes"/>
      <point x="302" y="-12"/>
      <point x="380" y="31"/>
      <point x="380" y="117" type="curve" smooth="yes"/>
      <point x="380" y="196"/>
      <point x="317" y="227"/>
      <point x="247" y="257" type="curve" smooth="yes"/>
      <point x="200" y="277"/>
      <point x="158" y="292"/>
      <point x="158" y="330" type="curve" smooth="yes"/>
      <point x="158" y="358"/>
      <point x="180" y="375"/>
      <point x="211" y="375" type="curve" smooth="yes"/>
      <point x="226" y="374"/>
      <point x="240" y="371"/>
      <point x="253" y="363" type="curve" smooth="yes"/>
      <point x="263" y="357"/>
      <point x="267" y="351"/>
      <point x="271" y="337" type="curve" smooth="yes"/>
      <point x="287" y="286" type="line"/>
      <point x="348" y="286" type="line"/>
      <point x="355" y="322"/>
      <point x="357" y="364"/>
      <point x="354" y="399" type="curve"/>
      <point x="316" y="414"/>
      <point x="259" y="424"/>
      <point x="211" y="424" type="curve" smooth="yes"/>
      <point x="91" y="424"/>
      <point x="36" y="371"/>
      <point x="36" y="296" type="curve" smooth="yes"/>
      <point x="36" y="233"/>
      <point x="77" y="201"/>
      <point x="138" y="171" type="curve" smooth="yes"/>
      <point x="200" y="140"/>
      <point x="249" y="126"/>
      <point x="249" y="87" type="curve" smooth="yes"/>
      <point x="249" y="61"/>
      <point x="229" y="39"/>
      <point x="193" y="39" type="curve" smooth="yes"/>
      <point x="168" y="39"/>
      <point x="148" y="49"/>
      <point x="138" y="56" type="curve" smooth="yes"/>
      <point x="129" y="63"/>
      <point x="126" y="70"/>
      <point x="121" y="85" type="curve" smooth="yes"/>
      <point x="106" y="139" type="line"/>
      <point x="40" y="139" type="line"/>
      <point x="35" y="102"/>
      <point x="33" y="59"/>
    </contour>
    <contour>
      <point x="192" y="0" type="move" name="btm"/>
    </contour>
    <contour>
      <point x="199" y="414" type="move" name="top"/>
    </contour>
  </outline>
</glyph>
<glyph name="t" format="1">
  <advance width="345"/>
  <unicode hex="0074"/>
  <outline>
    <contour>
      <point x="73" y="122" type="line" smooth="yes"/>
      <point x="73" y="23"/>
      <point x="119" y="-6"/>
      <point x="195" y="-6" type="curve" smooth="yes"/>
      <point x="262" y="-6"/>
      <point x="317" y="19"/>
      <point x="341" y="73" type="curve"/>
      <point x="316" y="101" type="line"/>
      <point x="297" y="85"/>
      <point x="273" y="79"/>
      <point x="254" y="79" type="curve" smooth="yes"/>
      <point x="221" y="79"/>
      <point x="205" y="96"/>
      <point x="205" y="151" type="curve" smooth="yes"/>
      <point x="205" y="347" type="line"/>
      <point x="317" y="347" type="line"/>
      <point x="317" y="414" type="line"/>
      <point x="203" y="414" type="line"/>
      <point x="199" y="547" type="line"/>
      <point x="126" y="547" type="line"/>
      <point x="85" y="432" type="line" smooth="yes"/>
      <point x="81" y="420"/>
      <point x="76" y="415"/>
      <point x="63" y="412" type="curve" smooth="yes"/>
      <point x="17" y="403" type="line"/>
      <point x="17" y="355" type="line"/>
      <point x="73" y="345" type="line"/>
    </contour>
    <contour>
      <point x="178" y="0" type="move" name="btm"/>
    </contour>
    <contour>
      <point x="203" y="414" type="move" name="topright"/>
    </contour>
  </outline>
</glyph>
<glyph name="u" format="1">
  <advance width="1447"/>
  <unicode hex="0075"/>
  <outline>
    <contour>
      <point x="975" y="190" type="curve"/>
      <point x="935" y="255" type="line"/>
      <point x="868" y="204"/>
      <point x="795" y="174"/>
      <point x="722" y="174" type="curve" smooth="yes"/>
      <point x="612" y="174"/>
      <point x="562" y="227"/>
      <point x="562" y="417" type="curve" smooth="yes"/>
      <point x="562" y="1121" type="line"/>
      <point x="514" y="1165" type="line"/>
      <point x="374" y="1166"/>
      <point x="189" y="1147"/>
      <point x="50" y="1114" type="curve"/>
      <point x="50" y="966" type="line"/>
      <point x="157" y="939" type="line" smooth="yes"/>
      <point x="187" y="932"/>
      <point x="201" y="911"/>
      <point x="201" y="881" type="curve" smooth="yes"/>
      <point x="201" y="370" type="line" smooth="yes"/>
      <point x="201" y="102"/>
      <point x="320" y="-23"/>
      <point x="559" y="-23" type="curve" smooth="yes"/>
      <point x="769" y="-23"/>
      <point x="879" y="52"/>
    </contour>
    <contour>
      <point x="1396" y="20" type="curve"/>
      <point x="1396" y="155" type="line"/>
      <point x="1298" y="167" type="line" smooth="yes"/>
      <point x="1265" y="171"/>
      <point x="1246" y="185"/>
      <point x="1246" y="228" type="curve" smooth="yes"/>
      <point x="1246" y="1121" type="line"/>
      <point x="1198" y="1165" type="line"/>
      <point x="1057" y="1165"/>
      <point x="868" y="1149"/>
      <point x="727" y="1116" type="curve"/>
      <point x="727" y="968" type="line"/>
      <point x="841" y="941" type="line" smooth="yes"/>
      <point x="870" y="934"/>
      <point x="885" y="912"/>
      <point x="885" y="882" type="curve" smooth="yes"/>
      <point x="885" y="202" type="line"/>
      <point x="916" y="51"/>
      <point x="1004" y="-19"/>
      <point x="1154" y="-19" type="curve" smooth="yes"/>
      <point x="1241" y="-19"/>
      <point x="1347" y="5"/>
    </contour>
    <contour>
      <point x="758" y="0" type="move" name="btm"/>
    </contour>
    <contour>
      <point x="702" y="1138" type="move" name="top"/>
    </contour>
  </outline>
</glyph>
<glyph name="v" format="1">
  <advance width="472"/>
  <unicode hex="0076"/>
  <outline>
    <contour>
      <point x="236" y="-6" type="line"/>
      <point x="297" y="-6" type="line"/>
      <point x="419" y="337" type="line" smooth="yes"/>
      <point x="423" y="347"/>
      <point x="429" y="351"/>
      <point x="439" y="354" type="curve" smooth="yes"/>
      <point x="466" y="363" type="line"/>
      <point x="466" y="414" type="line"/>
      <point x="302" y="414" type="line"/>
      <point x="302" y="361" type="line"/>
      <point x="354" y="350" type="line"/>
    </contour>
    <contour>
      <point x="290" y="46" type="line"/>
      <point x="189" y="350" type="line"/>
      <point x="241" y="361" type="line"/>
      <point x="241" y="414" type="line"/>
      <point x="2" y="414" type="line"/>
      <point x="2" y="363" type="line"/>
      <point x="29" y="354" type="line" smooth="yes"/>
      <point x="38" y="351"/>
      <point x="44" y="346"/>
      <point x="48" y="337" type="curve" smooth="yes"/>
      <point x="183" y="-6" type="line"/>
      <point x="272" y="-6" type="line"/>
    </contour>
    <contour>
      <point x="227" y="0" type="move" name="btm"/>
    </contour>
    <contour>
      <point x="227" y="414" type="move" name="top"/>
    </contour>
  </outline>
</glyph>
<glyph name="w" format="1">
  <advance width="684"/>
  <unicode hex="0077"/>
  <outline>
    <contour>
      <point x="471" y="-6" type="line"/>
      <point x="527" y="-6" type="line"/>
      <point x="631" y="336" type="line" smooth="yes"/>
      <point x="635" y="347"/>
      <point x="641" y="351"/>
      <point x="651" y="354" type="curve" smooth="yes"/>
      <point x="677" y="363" type="line"/>
      <point x="677" y="414" type="line"/>
      <point x="512" y="414" type="line"/>
      <point x="512" y="361" type="line"/>
      <point x="565" y="350" type="line"/>
    </contour>
    <contour>
      <point x="258" y="51" type="line"/>
      <point x="175" y="350" type="line"/>
      <point x="225" y="361" type="line"/>
      <point x="225" y="414" type="line"/>
      <point x="4" y="414" type="line"/>
      <point x="4" y="363" type="line"/>
      <point x="31" y="354" type="line" smooth="yes"/>
      <point x="41" y="351"/>
      <point x="46" y="347"/>
      <point x="49" y="337" type="curve" smooth="yes"/>
      <point x="162" y="-6" type="line"/>
      <point x="242" y="-6" type="line"/>
    </contour>
    <contour>
      <point x="316" y="351" type="line"/>
      <point x="425" y="-6" type="line"/>
      <point x="507" y="-6" type="line"/>
      <point x="523" y="52" type="line"/>
      <point x="422" y="414" type="line"/>
      <point x="339" y="414" type="line"/>
    </contour>
    <contour>
      <point x="380" y="414" type="line"/>
      <point x="317" y="414" type="line"/>
      <point x="206" y="-6" type="line"/>
      <point x="266" y="-6" type="line"/>
    </contour>
    <contour>
      <point x="345" y="0" type="move" name="btm"/>
    </contour>
    <contour>
      <point x="358" y="414" type="move" name="top"/>
    </contour>
  </outline>
</glyph>
<glyph name="x" format="1">
  <advance width="484"/>
  <unicode hex="0078"/>
  <outline>
    <contour>
      <point x="198" y="0" type="line"/>
      <point x="198" y="51" type="line"/>
      <point x="148" y="62" type="line"/>
      <point x="242" y="189" type="line"/>
      <point x="280" y="189" type="line"/>
      <point x="407" y="344" type="line" smooth="yes"/>
      <point x="413" y="351"/>
      <point x="419" y="355"/>
      <point x="428" y="357" type="curve" smooth="yes"/>
      <point x="461" y="364" type="line"/>
      <point x="461" y="414" type="line"/>
      <point x="295" y="414" type="line"/>
      <point x="295" y="364" type="line"/>
      <point x="336" y="352" type="line"/>
      <point x="245" y="232" type="line"/>
      <point x="204" y="232" type="line"/>
      <point x="73" y="71" type="line" smooth="yes"/>
      <point x="67" y="64"/>
      <point x="61" y="60"/>
      <point x="52" y="58" type="curve" smooth="yes"/>
      <point x="15" y="51" type="line"/>
      <point x="15" y="0" type="line"/>
    </contour>
    <contour>
      <point x="475" y="0" type="line"/>
      <point x="475" y="51" type="line"/>
      <point x="445" y="58" type="line" smooth="yes"/>
      <point x="436" y="60"/>
      <point x="429" y="63"/>
      <point x="424" y="71" type="curve" smooth="yes"/>
      <point x="296" y="238" type="line"/>
      <point x="288" y="238" type="line"/>
      <point x="209" y="352" type="line"/>
      <point x="255" y="364" type="line"/>
      <point x="255" y="414" type="line"/>
      <point x="17" y="414" type="line"/>
      <point x="17" y="364" type="line"/>
      <point x="47" y="357" type="line" smooth="yes"/>
      <point x="55" y="355"/>
      <point x="61" y="351"/>
      <point x="67" y="344" type="curve" smooth="yes"/>
      <point x="193" y="178" type="line"/>
      <point x="201" y="178" type="line"/>
      <point x="281" y="62" type="line"/>
      <point x="240" y="51" type="line"/>
      <point x="240" y="0" type="line"/>
    </contour>
    <contour>
      <point x="251" y="0" type="move" name="btm"/>
    </contour>
    <contour>
      <point x="251" y="414" type="move" name="top"/>
    </contour>
  </outline>
</glyph>
<glyph name="y" format="1">
  <advance width="1299"/>
  <unicode hex="0079"/>
  <outline>
    <contour>
      <point x="49" y="-321" type="curve"/>
      <point x="49" y="-490" type="line"/>
      <point x="130" y="-505"/>
      <point x="233" y="-518"/>
      <point x="325" y="-518" type="curve" smooth="yes"/>
      <point x="561" y="-518"/>
      <point x="706" y="-355"/>
      <point x="825" y="-18" type="curve" smooth="yes"/>
      <point x="1156" y="920" type="line" smooth="yes"/>
      <point x="1167" y="951"/>
      <point x="1182" y="963"/>
      <point x="1214" y="973" type="curve" smooth="yes"/>
      <point x="1290" y="997" type="line"/>
      <point x="1290" y="1138" type="line"/>
      <point x="835" y="1138" type="line"/>
      <point x="835" y="994" type="line"/>
      <point x="977" y="962" type="line"/>
      <point x="735" y="202" type="line" smooth="yes"/>
      <point x="606" y="-204"/>
      <point x="431" y="-263"/>
    </contour>
    <contour>
      <point x="806" y="159" type="line"/>
      <point x="533" y="961" type="line"/>
      <point x="681" y="993" type="line"/>
      <point x="681" y="1137" type="line"/>
      <point x="15" y="1138" type="line"/>
      <point x="15" y="997" type="line"/>
      <point x="91" y="973" type="line" smooth="yes"/>
      <point x="120" y="964"/>
      <point x="139" y="950"/>
      <point x="150" y="920" type="curve" smooth="yes"/>
      <point x="506" y="0" type="line"/>
      <point x="723" y="0" type="line"/>
    </contour>
    <contour>
      <point x="700" y="1138" type="move" name="top"/>
    </contour>
  </outline>
</glyph>
<glyph name="z" format="1">
  <advance width="1191"/>
  <unicode hex="007A"/>
  <outline>
    <contour>
      <point x="58" y="129" type="line"/>
      <point x="117" y="0" type="line"/>
      <point x="1081" y="0" type="line"/>
      <point x="1097" y="131"/>
      <point x="1101" y="269"/>
      <point x="1086" y="404" type="curve"/>
      <point x="927" y="422" type="line"/>
      <point x="856" y="202" type="line" smooth="yes"/>
      <point x="847" y="174"/>
      <point x="827" y="161"/>
      <point x="795" y="156" type="curve" smooth="yes"/>
      <point x="744" y="147"/>
      <point x="674" y="144"/>
      <point x="612" y="144" type="curve" smooth="yes"/>
      <point x="445" y="144" type="line"/>
      <point x="464" y="108" type="line"/>
      <point x="1110" y="1010" type="line"/>
      <point x="1055" y="1138" type="line"/>
      <point x="123" y="1138" type="line"/>
      <point x="113" y="1016"/>
      <point x="120" y="867"/>
      <point x="139" y="734" type="curve"/>
      <point x="303" y="734" type="line"/>
      <point x="352" y="934" type="line" smooth="yes"/>
      <point x="362" y="973"/>
      <point x="381" y="981"/>
      <point x="413" y="986" type="curve" smooth="yes"/>
      <point x="450" y="993"/>
      <point x="508" y="996"/>
      <point x="558" y="996" type="curve" smooth="yes"/>
      <point x="737" y="996" type="line"/>
      <point x="718" y="1033" type="line"/>
    </contour>
    <contour>
      <point x="612" y="0" type="move" name="btm"/>
    </contour>
    <contour>
      <point x="588" y="1138" type="move" name="top"/>
    </contour>
  </outline>
</glyph>
<glyph name="braceleft" format="1">
  <advance width="333"/>
  <unicode hex="007B"/>
  <outline>
    <contour>
      <point x="324" y="-97" type="line"/>
      <point x="277" y="-86" type="line" smooth="yes"/>
      <point x="221" y="-73"/>
      <point x="201" y="-48"/>
      <point x="201" y="6" type="curve" smooth="yes"/>
      <point x="201" y="53"/>
      <point x="211" y="121"/>
      <point x="211" y="172" type="curve" smooth="yes"/>
      <point x="211" y="244"/>
      <point x="159" y="274"/>
      <point x="93" y="285" type="curve"/>
      <point x="159" y="297"/>
      <point x="211" y="324"/>
      <point x="211" y="395" type="curve" smooth="yes"/>
      <point x="211" y="446"/>
      <point x="201" y="514"/>
      <point x="201" y="561" type="curve" smooth="yes"/>
      <point x="201" y="616"/>
      <point x="221" y="640"/>
      <point x="277" y="653" type="curve" smooth="yes"/>
      <point x="324" y="665" type="line"/>
      <point x="316" y="722" type="line"/>
      <point x="289" y="722"/>
      <point x="248" y="719"/>
      <point x="218" y="716" type="curve" smooth="yes"/>
      <point x="121" y="707"/>
      <point x="80" y="657"/>
      <point x="80" y="583" type="curve" smooth="yes"/>
      <point x="80" y="520"/>
      <point x="96" y="455"/>
      <point x="96" y="404" type="curve" smooth="yes"/>
      <point x="96" y="356"/>
      <point x="85" y="327"/>
      <point x="6" y="320" type="curve"/>
      <point x="6" y="248" type="line"/>
      <point x="85" y="240"/>
      <point x="96" y="212"/>
      <point x="96" y="163" type="curve" smooth="yes"/>
      <point x="96" y="112"/>
      <point x="80" y="48"/>
      <point x="80" y="-16" type="curve" smooth="yes"/>
      <point x="80" y="-90"/>
      <point x="121" y="-139"/>
      <point x="218" y="-148" type="curve" smooth="yes"/>
      <point x="248" y="-152"/>
      <point x="289" y="-154"/>
      <point x="316" y="-154" type="curve"/>
    </contour>
  </outline>
</glyph>
<glyph name="bar" format="1">
  <advance width="237"/>
  <unicode hex="007C"/>
  <outline>
    <contour>
      <point x="70" y="-116" type="line"/>
      <point x="167" y="-116" type="line"/>
      <point x="168" y="693" type="line"/>
      <point x="70" y="693" type="line"/>
    </contour>
  </outline>
</glyph>
<glyph name="braceright" format="1">
  <advance width="333"/>
  <unicode hex="007D"/>
  <outline>
    <contour>
      <point x="115" y="-149" type="curve" smooth="yes"/>
      <point x="212" y="-140"/>
      <point x="253" y="-91"/>
      <point x="253" y="-16" type="curve" smooth="yes"/>
      <point x="253" y="47"/>
      <point x="238" y="112"/>
      <point x="238" y="163" type="curve" smooth="yes"/>
      <point x="238" y="212"/>
      <point x="248" y="240"/>
      <point x="328" y="248" type="curve"/>
      <point x="328" y="320" type="line"/>
      <point x="248" y="327"/>
      <point x="238" y="356"/>
      <point x="238" y="404" type="curve" smooth="yes"/>
      <point x="238" y="455"/>
      <point x="253" y="520"/>
      <point x="253" y="584" type="curve" smooth="yes"/>
      <point x="253" y="659"/>
      <point x="212" y="707"/>
      <point x="115" y="717" type="curve" smooth="yes"/>
      <point x="85" y="720"/>
      <point x="45" y="722"/>
      <point x="18" y="722" type="curve"/>
      <point x="9" y="665" type="line"/>
      <point x="56" y="655" type="line" smooth="yes"/>
      <point x="112" y="642"/>
      <point x="132" y="617"/>
      <point x="132" y="562" type="curve" smooth="yes"/>
      <point x="132" y="515"/>
      <point x="123" y="446"/>
      <point x="123" y="395" type="curve" smooth="yes"/>
      <point x="123" y="324"/>
      <point x="175" y="296"/>
      <point x="240" y="285" type="curve"/>
      <point x="175" y="274"/>
      <point x="123" y="244"/>
      <point x="123" y="172" type="curve" smooth="yes"/>
      <point x="123" y="121"/>
      <point x="132" y="53"/>
      <point x="132" y="5" type="curve" smooth="yes"/>
      <point x="132" y="-49"/>
      <point x="112" y="-74"/>
      <point x="56" y="-87" type="curve" smooth="yes"/>
      <point x="9" y="-97" type="line"/>
      <point x="18" y="-154" type="line"/>
      <point x="45" y="-154"/>
      <point x="85" y="-152"/>
    </contour>
  </outline>
</glyph>
<glyph name="asciitilde" format="1">
  <advance width="473"/>
  <unicode hex="007E"/>
  <outline>
    <contour>
      <point x="352" y="153"/>
      <point x="401" y="192"/>
      <point x="429" y="258" type="curve"/>
      <point x="393" y="287" type="line"/>
      <point x="372" y="262"/>
      <point x="347" y="242"/>
      <point x="318" y="242" type="curve" smooth="yes"/>
      <point x="272" y="242"/>
      <point x="223" y="292"/>
      <point x="165" y="292" type="curve" smooth="yes"/>
      <point x="115" y="292"/>
      <point x="65" y="254"/>
      <point x="38" y="187" type="curve"/>
      <point x="74" y="159" type="line"/>
      <point x="95" y="183"/>
      <point x="120" y="203"/>
      <point x="149" y="203" type="curve" smooth="yes"/>
      <point x="195" y="203"/>
      <point x="244" y="153"/>
      <point x="302" y="153" type="curve" smooth="yes"/>
    </contour>
  </outline>
</glyph>
<glyph name="exclamdown" format="1">
  <advance width="247"/>
  <unicode hex="00A1"/>
  <outline>
    <contour>
      <point x="196" y="-203" type="line"/>
      <point x="196" y="-127" type="line"/>
      <point x="163" y="234" type="line"/>
      <point x="84" y="234" type="line"/>
      <point x="51" y="-127" type="line"/>
      <point x="51" y="-203" type="line"/>
    </contour>
    <contour>
      <point x="168" y="295"/>
      <point x="196" y="320"/>
      <point x="196" y="360" type="curve" smooth="yes"/>
      <point x="196" y="400"/>
      <point x="168" y="425"/>
      <point x="124" y="425" type="curve" smooth="yes"/>
      <point x="79" y="425"/>
      <point x="50" y="400"/>
      <point x="50" y="360" type="curve" smooth="yes"/>
      <point x="50" y="320"/>
      <point x="79" y="295"/>
      <point x="124" y="295" type="curve" smooth="yes"/>
    </contour>
  </outline>
</glyph>
<glyph name="cent" format="1">
  <advance width="429"/>
  <unicode hex="00A2"/>
  <outline>
    <contour>
      <point x="183" y="28" type="line"/>
      <point x="183" y="-76" type="line"/>
      <point x="254" y="-76" type="line"/>
      <point x="254" y="28" type="line"/>
    </contour>
    <contour>
      <point x="216" y="411" type="line"/>
      <point x="288" y="411" type="line"/>
      <point x="288" y="514" type="line"/>
      <point x="216" y="514" type="line"/>
    </contour>
    <contour>
      <point x="31" y="214" type="curve" smooth="yes"/>
      <point x="31" y="98"/>
      <point x="91" y="3"/>
      <point x="223" y="3" type="curve" smooth="yes"/>
      <point x="307" y="3"/>
      <point x="373" y="41"/>
      <point x="396" y="94" type="curve"/>
      <point x="365" y="123" type="line"/>
      <point x="347" y="104"/>
      <point x="319" y="82"/>
      <point x="270" y="82" type="curve" smooth="yes"/>
      <point x="204" y="82"/>
      <point x="172" y="136"/>
      <point x="172" y="236" type="curve" smooth="yes"/>
      <point x="172" y="332"/>
      <point x="205" y="379"/>
      <point x="247" y="379" type="curve" smooth="yes"/>
      <point x="263" y="379"/>
      <point x="277" y="374"/>
      <point x="285" y="366" type="curve" smooth="yes"/>
      <point x="292" y="360"/>
      <point x="297" y="352"/>
      <point x="300" y="336" type="curve" smooth="yes"/>
      <point x="318" y="262" type="line"/>
      <point x="385" y="262" type="line"/>
      <point x="394" y="307"/>
      <point x="397" y="353"/>
      <point x="394" y="402" type="curve"/>
      <point x="361" y="420"/>
      <point x="306" y="437"/>
      <point x="250" y="437" type="curve" smooth="yes"/>
      <point x="126" y="437"/>
      <point x="31" y="363"/>
    </contour>
  </outline>
</glyph>
<glyph name="sterling" format="1">
  <advance width="508"/>
  <unicode hex="00A3"/>
  <outline>
    <contour>
      <point x="478" y="100" type="curve" smooth="yes"/>
      <point x="478" y="129"/>
      <point x="472" y="159"/>
      <point x="467" y="182" type="curve"/>
      <point x="383" y="182" type="line"/>
      <point x="381" y="159"/>
      <point x="378" y="135"/>
      <point x="372" y="117" type="curve" smooth="yes"/>
      <point x="363" y="87"/>
      <point x="345" y="76"/>
      <point x="310" y="76" type="curve" smooth="yes"/>
      <point x="278" y="76"/>
      <point x="240" y="87"/>
      <point x="209" y="87" type="curve"/>
      <point x="225" y="111"/>
      <point x="243" y="151"/>
      <point x="243" y="215" type="curve" smooth="yes"/>
      <point x="243" y="363" type="line" smooth="yes"/>
      <point x="243" y="442"/>
      <point x="265" y="460"/>
      <point x="285" y="460" type="curve" smooth="yes"/>
      <point x="298" y="460"/>
      <point x="308" y="456"/>
      <point x="317" y="449" type="curve" smooth="yes"/>
      <point x="328" y="441"/>
      <point x="331" y="431"/>
      <point x="333" y="422" type="curve" smooth="yes"/>
      <point x="350" y="348" type="line"/>
      <point x="424" y="348" type="line"/>
      <point x="432" y="396"/>
      <point x="435" y="439"/>
      <point x="431" y="485" type="curve"/>
      <point x="397" y="499"/>
      <point x="352" y="513"/>
      <point x="297" y="513" type="curve" smooth="yes"/>
      <point x="170" y="513"/>
      <point x="109" y="430"/>
      <point x="109" y="303" type="curve" smooth="yes"/>
      <point x="109" y="187" type="line" smooth="yes"/>
      <point x="109" y="115"/>
      <point x="71" y="81"/>
      <point x="26" y="59" type="curve"/>
      <point x="59" y="-7" type="line"/>
      <point x="99" y="0"/>
      <point x="138" y="18"/>
      <point x="169" y="42" type="curve"/>
      <point x="232" y="42"/>
      <point x="289" y="-12"/>
      <point x="366" y="-12" type="curve" smooth="yes"/>
      <point x="427" y="-12"/>
      <point x="478" y="18"/>
    </contour>
    <contour>
      <point x="348" y="224" type="line"/>
      <point x="348" y="280" type="line"/>
      <point x="40" y="280" type="line"/>
      <point x="40" y="224" type="line"/>
    </contour>
  </outline>
</glyph>
<glyph name="currency" format="1">
  <advance width="511"/>
  <unicode hex="00A4"/>
  <outline>
    <contour>
      <point x="88" y="277" type="curve" smooth="yes"/>
      <point x="88" y="184"/>
      <point x="161" y="114"/>
      <point x="254" y="114" type="curve" smooth="yes"/>
      <point x="347" y="114"/>
      <point x="422" y="192"/>
      <point x="422" y="285" type="curve" smooth="yes"/>
      <point x="422" y="378"/>
      <point x="347" y="449"/>
      <point x="254" y="449" type="curve" smooth="yes"/>
      <point x="161" y="449"/>
      <point x="88" y="371"/>
    </contour>
    <contour>
      <point x="255" y="204" type="curve" smooth="yes"/>
      <point x="217" y="204"/>
      <point x="183" y="238"/>
      <point x="183" y="280" type="curve" smooth="yes"/>
      <point x="183" y="320"/>
      <point x="208" y="358"/>
      <point x="253" y="358" type="curve" smooth="yes"/>
      <point x="291" y="358"/>
      <point x="327" y="327"/>
      <point x="327" y="280" type="curve" smooth="yes"/>
      <point x="327" y="238"/>
      <point x="303" y="204"/>
    </contour>
    <contour>
      <point x="35" y="101" type="line"/>
      <point x="83" y="52" type="line"/>
      <point x="172" y="141" type="line"/>
      <point x="123" y="188" type="line"/>
    </contour>
    <contour>
      <point x="124" y="373" type="line"/>
      <point x="171" y="420" type="line"/>
      <point x="82" y="509" type="line"/>
      <point x="35" y="460" type="line"/>
    </contour>
    <contour>
      <point x="338" y="143" type="line"/>
      <point x="427" y="54" type="line"/>
      <point x="475" y="102" type="line"/>
      <point x="386" y="190" type="line"/>
    </contour>
    <contour>
      <point x="386" y="372" type="line"/>
      <point x="477" y="461" type="line"/>
      <point x="428" y="510" type="line"/>
      <point x="338" y="420" type="line"/>
    </contour>
  </outline>
</glyph>
<glyph name="yen" format="1">
  <advance width="556"/>
  <unicode hex="00A5"/>
  <outline>
    <contour>
      <point x="87" y="112" type="line"/>
      <point x="483" y="112" type="line"/>
      <point x="483" y="164" type="line"/>
      <point x="87" y="164" type="line"/>
    </contour>
    <contour>
      <point x="87" y="215" type="line"/>
      <point x="483" y="215" type="line"/>
      <point x="483" y="267" type="line"/>
      <point x="87" y="267" type="line"/>
    </contour>
    <contour>
      <point x="333" y="208" type="line"/>
      <point x="470" y="435" type="line" smooth="yes"/>
      <point x="475" y="443"/>
      <point x="480" y="446"/>
      <point x="489" y="448" type="curve" smooth="yes"/>
      <point x="527" y="457" type="line"/>
      <point x="527" y="503" type="line"/>
      <point x="341" y="503" type="line"/>
      <point x="341" y="457" type="line"/>
      <point x="400" y="445" type="line"/>
      <point x="298" y="260" type="line"/>
      <point x="333" y="260" type="line"/>
      <point x="226" y="444" type="line"/>
      <point x="279" y="456" type="line"/>
      <point x="279" y="502" type="line"/>
      <point x="26" y="502" type="line"/>
      <point x="26" y="456" type="line"/>
      <point x="68" y="447" type="line" smooth="yes"/>
      <point x="76" y="445"/>
      <point x="81" y="441"/>
      <point x="86" y="435" type="curve" smooth="yes"/>
      <point x="238" y="208" type="line"/>
    </contour>
    <contour>
      <point x="428" y="0" type="line"/>
      <point x="428" y="46" type="line"/>
      <point x="364" y="59" type="line" smooth="yes"/>
      <point x="353" y="61"/>
      <point x="348" y="66"/>
      <point x="348" y="77" type="curve" smooth="yes"/>
      <point x="348" y="239" type="line"/>
      <point x="222" y="239" type="line"/>
      <point x="222" y="77" type="line" smooth="yes"/>
      <point x="222" y="66"/>
      <point x="216" y="61"/>
      <point x="206" y="59" type="curve" smooth="yes"/>
      <point x="141" y="46" type="line"/>
      <point x="141" y="0" type="line"/>
    </contour>
  </outline>
</glyph>
<glyph name="brokenbar" format="1">
  <advance width="236"/>
  <unicode hex="00A6"/>
  <outline>
    <contour>
      <point x="69" y="345" type="line"/>
      <point x="167" y="345" type="line"/>
      <point x="167" y="693" type="line"/>
      <point x="69" y="693" type="line"/>
    </contour>
    <contour>
      <point x="69" y="-116" type="line"/>
      <point x="167" y="-116" type="line"/>
      <point x="167" y="231" type="line"/>
      <point x="69" y="231" type="line"/>
    </contour>
  </outline>
</glyph>
<glyph name="section" format="1">
  <advance width="462"/>
  <unicode hex="00A7"/>
  <outline>
    <contour>
      <point x="53" y="-64" type="curve"/>
      <point x="77" y="-78"/>
      <point x="147" y="-104"/>
      <point x="225" y="-104" type="curve" smooth="yes"/>
      <point x="361" y="-104"/>
      <point x="413" y="-38"/>
      <point x="413" y="28" type="curve" smooth="yes"/>
      <point x="413" y="102"/>
      <point x="366" y="134"/>
      <point x="257" y="183" type="curve" smooth="yes"/>
      <point x="165" y="224"/>
      <point x="123" y="249"/>
      <point x="123" y="294" type="curve" smooth="yes"/>
      <point x="123" y="316"/>
      <point x="136" y="347"/>
      <point x="151" y="364" type="curve"/>
      <point x="126" y="383" type="line"/>
      <point x="81" y="372"/>
      <point x="33" y="319"/>
      <point x="33" y="246" type="curve" smooth="yes"/>
      <point x="33" y="173"/>
      <point x="85" y="131"/>
      <point x="162" y="97" type="curve" smooth="yes"/>
      <point x="261" y="53"/>
      <point x="303" y="36"/>
      <point x="303" y="-2" type="curve" smooth="yes"/>
      <point x="303" y="-31"/>
      <point x="277" y="-51"/>
      <point x="233" y="-51" type="curve" smooth="yes"/>
      <point x="206" y="-51"/>
      <point x="179" y="-44"/>
      <point x="163" y="-31" type="curve" smooth="yes"/>
      <point x="151" y="-23"/>
      <point x="148" y="-13"/>
      <point x="147" y="-6" type="curve" smooth="yes"/>
      <point x="134" y="55" type="line"/>
      <point x="60" y="55" type="line"/>
      <point x="53" y="15"/>
      <point x="51" y="-25"/>
    </contour>
    <contour>
      <point x="399" y="568" type="curve"/>
      <point x="376" y="581"/>
      <point x="311" y="604"/>
      <point x="239" y="604" type="curve" smooth="yes"/>
      <point x="107" y="604"/>
      <point x="57" y="537"/>
      <point x="57" y="471" type="curve" smooth="yes"/>
      <point x="57" y="398"/>
      <point x="103" y="366"/>
      <point x="206" y="316" type="curve" smooth="yes"/>
      <point x="298" y="274"/>
      <point x="340" y="250"/>
      <point x="340" y="205" type="curve" smooth="yes"/>
      <point x="340" y="183"/>
      <point x="326" y="152"/>
      <point x="311" y="136" type="curve"/>
      <point x="336" y="117" type="line"/>
      <point x="383" y="128"/>
      <point x="430" y="180"/>
      <point x="430" y="253" type="curve" smooth="yes"/>
      <point x="430" y="326"/>
      <point x="377" y="367"/>
      <point x="301" y="402" type="curve" smooth="yes"/>
      <point x="208" y="447"/>
      <point x="167" y="463"/>
      <point x="167" y="501" type="curve" smooth="yes"/>
      <point x="167" y="531"/>
      <point x="189" y="551"/>
      <point x="231" y="551" type="curve" smooth="yes"/>
      <point x="253" y="551"/>
      <point x="276" y="544"/>
      <point x="289" y="535" type="curve" smooth="yes"/>
      <point x="301" y="526"/>
      <point x="304" y="517"/>
      <point x="305" y="510" type="curve" smooth="yes"/>
      <point x="318" y="449" type="line"/>
      <point x="392" y="449" type="line"/>
      <point x="399" y="488"/>
      <point x="401" y="528"/>
    </contour>
  </outline>
</glyph>
<glyph name="copyright" format="1">
  <advance width="729"/>
  <unicode hex="00A9"/>
  <outline>
    <contour>
      <point x="363" y="94" type="curve" smooth="yes"/>
      <point x="435" y="94"/>
      <point x="488" y="128"/>
      <point x="506" y="174" type="curve"/>
      <point x="480" y="197" type="line"/>
      <point x="461" y="178"/>
      <point x="427" y="165"/>
      <point x="395" y="165" type="curve" smooth="yes"/>
      <point x="337" y="165"/>
      <point x="306" y="209"/>
      <point x="306" y="297" type="curve" smooth="yes"/>
      <point x="306" y="380"/>
      <point x="333" y="415"/>
      <point x="371" y="415" type="curve" smooth="yes"/>
      <point x="387" y="415"/>
      <point x="401" y="408"/>
      <point x="409" y="401" type="curve" smooth="yes"/>
      <point x="417" y="395"/>
      <point x="420" y="388"/>
      <point x="422" y="378" type="curve" smooth="yes"/>
      <point x="438" y="316" type="line"/>
      <point x="494" y="316" type="line"/>
      <point x="502" y="359"/>
      <point x="504" y="400"/>
      <point x="499" y="440" type="curve"/>
      <point x="472" y="459"/>
      <point x="425" y="473"/>
      <point x="377" y="473" type="curve" smooth="yes"/>
      <point x="273" y="473"/>
      <point x="195" y="408"/>
      <point x="195" y="280" type="curve" smooth="yes"/>
      <point x="195" y="166"/>
      <point x="258" y="94"/>
    </contour>
    <contour>
      <point x="89" y="284" type="curve" smooth="yes"/>
      <point x="89" y="452"/>
      <point x="203" y="569"/>
      <point x="365" y="569" type="curve" smooth="yes"/>
      <point x="528" y="569"/>
      <point x="640" y="452"/>
      <point x="640" y="284" type="curve" smooth="yes"/>
      <point x="640" y="117"/>
      <point x="527" y="0"/>
      <point x="365" y="0" type="curve" smooth="yes"/>
      <point x="203" y="0"/>
      <point x="89" y="117"/>
    </contour>
    <contour>
      <point x="31" y="284" type="curve" smooth="yes"/>
      <point x="31" y="91"/>
      <point x="172" y="-49"/>
      <point x="365" y="-49" type="curve" smooth="yes"/>
      <point x="558" y="-49"/>
      <point x="698" y="91"/>
      <point x="698" y="284" type="curve" smooth="yes"/>
      <point x="698" y="477"/>
      <point x="559" y="618"/>
      <point x="365" y="618" type="curve" smooth="yes"/>
      <point x="172" y="618"/>
      <point x="31" y="477"/>
    </contour>
  </outline>
</glyph>
<glyph name="ordfeminine" format="1">
  <advance width="404"/>
  <unicode hex="00AA"/>
  <outline>
    <contour>
      <point x="131" y="247" type="curve" smooth="yes"/>
      <point x="183" y="247"/>
      <point x="223" y="266"/>
      <point x="243" y="305" type="curve"/>
      <point x="235" y="328" type="line"/>
      <point x="221" y="315"/>
      <point x="204" y="307"/>
      <point x="181" y="307" type="curve" smooth="yes"/>
      <point x="159" y="307"/>
      <point x="151" y="317"/>
      <point x="151" y="339" type="curve" smooth="yes"/>
      <point x="151" y="359"/>
      <point x="158" y="380"/>
      <point x="194" y="381" type="curve" smooth="yes"/>
      <point x="238" y="383" type="line"/>
      <point x="238" y="423" type="line"/>
      <point x="163" y="419" type="line" smooth="yes"/>
      <point x="92" y="416"/>
      <point x="33" y="382"/>
      <point x="33" y="325" type="curve" smooth="yes"/>
      <point x="33" y="279"/>
      <point x="70" y="247"/>
    </contour>
    <contour>
      <point x="70" y="472" type="line"/>
      <point x="95" y="492"/>
      <point x="124" y="503"/>
      <point x="159" y="503" type="curve" smooth="yes"/>
      <point x="199" y="503"/>
      <point x="220" y="491"/>
      <point x="220" y="450" type="curve" smooth="yes"/>
      <point x="220" y="308" type="line"/>
      <point x="230" y="260"/>
      <point x="259" y="247"/>
      <point x="302" y="247" type="curve" smooth="yes"/>
      <point x="327" y="247"/>
      <point x="357" y="254"/>
      <point x="374" y="258" type="curve"/>
      <point x="374" y="300" type="line"/>
      <point x="347" y="303" type="line" smooth="yes"/>
      <point x="337" y="304"/>
      <point x="332" y="308"/>
      <point x="332" y="320" type="curve" smooth="yes"/>
      <point x="332" y="449" type="line" smooth="yes"/>
      <point x="332" y="531"/>
      <point x="292" y="575"/>
      <point x="194" y="575" type="curve" smooth="yes"/>
      <point x="111" y="575"/>
      <point x="64" y="544"/>
      <point x="44" y="493" type="curve"/>
    </contour>
  </outline>
</glyph>
<glyph name="logicalnot" format="1">
  <advance width="458"/>
  <unicode hex="00AC"/>
  <outline>
    <contour>
      <point x="47" y="181" type="line"/>
      <point x="319" y="181" type="line"/>
      <point x="319" y="37" type="line"/>
      <point x="407" y="37" type="line"/>
      <point x="407" y="264" type="line"/>
      <point x="47" y="264" type="line"/>
    </contour>
  </outline>
</glyph>
<glyph name="softhyphen" format="1">
  <advance width="383"/>
  <unicode hex="00AD"/>
  <outline>
    <contour>
      <point x="47" y="175" type="line"/>
      <point x="336" y="175" type="line"/>
      <point x="336" y="259" type="line"/>
      <point x="47" y="259" type="line"/>
    </contour>
  </outline>
</glyph>
<glyph name="registered" format="1">
  <advance width="629"/>
  <unicode hex="00AE"/>
  <outline>
    <contour>
      <point x="307" y="378" type="line"/>
      <point x="319" y="371"/>
      <point x="329" y="357"/>
      <point x="339" y="329" type="curve" smooth="yes"/>
      <point x="355" y="283" type="line" smooth="yes"/>
      <point x="362" y="261"/>
      <point x="371" y="245"/>
      <point x="385" y="245" type="curve" smooth="yes"/>
      <point x="466" y="245" type="line"/>
      <point x="466" y="280" type="line"/>
      <point x="444" y="287"/>
      <point x="437" y="289"/>
      <point x="431" y="303" type="curve" smooth="yes"/>
      <point x="413" y="345" type="line" smooth="yes"/>
      <point x="404" y="369"/>
      <point x="389" y="381"/>
      <point x="351" y="386" type="curve"/>
    </contour>
    <contour>
      <point x="85" y="397" type="curve" smooth="yes"/>
      <point x="85" y="536"/>
      <point x="180" y="633"/>
      <point x="315" y="633" type="curve" smooth="yes"/>
      <point x="451" y="633"/>
      <point x="544" y="536"/>
      <point x="544" y="397" type="curve" smooth="yes"/>
      <point x="544" y="257"/>
      <point x="450" y="160"/>
      <point x="315" y="160" type="curve" smooth="yes"/>
      <point x="180" y="160"/>
      <point x="85" y="257"/>
    </contour>
    <contour>
      <point x="32" y="397" type="curve" smooth="yes"/>
      <point x="32" y="234"/>
      <point x="152" y="115"/>
      <point x="315" y="115" type="curve" smooth="yes"/>
      <point x="478" y="115"/>
      <point x="596" y="234"/>
      <point x="596" y="397" type="curve" smooth="yes"/>
      <point x="596" y="560"/>
      <point x="478" y="678"/>
      <point x="315" y="678" type="curve" smooth="yes"/>
      <point x="152" y="678"/>
      <point x="32" y="560"/>
    </contour>
    <contour>
      <point x="358" y="377" type="line"/>
      <point x="425" y="387"/>
      <point x="442" y="425"/>
      <point x="442" y="464" type="curve" smooth="yes"/>
      <point x="442" y="527"/>
      <point x="408" y="553"/>
      <point x="317" y="553" type="curve" smooth="yes"/>
      <point x="291" y="553"/>
      <point x="270" y="551"/>
      <point x="244" y="552" type="curve" smooth="yes"/>
      <point x="174" y="552" type="line"/>
      <point x="174" y="516" type="line"/>
      <point x="193" y="511" type="line" smooth="yes"/>
      <point x="200" y="509"/>
      <point x="204" y="504"/>
      <point x="204" y="497" type="curve" smooth="yes"/>
      <point x="204" y="297" type="line" smooth="yes"/>
      <point x="204" y="290"/>
      <point x="201" y="285"/>
      <point x="194" y="283" type="curve" smooth="yes"/>
      <point x="174" y="277" type="line"/>
      <point x="174" y="245" type="line"/>
      <point x="317" y="245" type="line"/>
      <point x="317" y="277" type="line"/>
      <point x="295" y="282" type="line" smooth="yes"/>
      <point x="288" y="283"/>
      <point x="284" y="288"/>
      <point x="284" y="296" type="curve" smooth="yes"/>
      <point x="284" y="511" type="line"/>
      <point x="293" y="513"/>
      <point x="303" y="514"/>
      <point x="311" y="514" type="curve" smooth="yes"/>
      <point x="344" y="514"/>
      <point x="358" y="499"/>
      <point x="358" y="460" type="curve" smooth="yes"/>
      <point x="358" y="422"/>
      <point x="340" y="403"/>
      <point x="318" y="403" type="curve" smooth="yes"/>
      <point x="304" y="403"/>
      <point x="290" y="403"/>
      <point x="267" y="406" type="curve"/>
      <point x="267" y="364" type="line"/>
      <point x="331" y="365" type="line"/>
    </contour>
  </outline>
</glyph>
<glyph name="degree" format="1">
  <advance width="335"/>
  <unicode hex="00B0"/>
  <outline>
    <contour>
      <point x="167" y="332" type="curve" smooth="yes"/>
      <point x="245" y="332"/>
      <point x="307" y="391"/>
      <point x="307" y="470" type="curve" smooth="yes"/>
      <point x="307" y="545"/>
      <point x="248" y="608"/>
      <point x="167" y="608" type="curve" smooth="yes"/>
      <point x="91" y="608"/>
      <point x="28" y="549"/>
      <point x="28" y="470" type="curve" smooth="yes"/>
      <point x="28" y="395"/>
      <point x="91" y="332"/>
    </contour>
    <contour>
      <point x="167" y="400" type="curve" smooth="yes"/>
      <point x="132" y="400"/>
      <point x="103" y="433"/>
      <point x="103" y="470" type="curve" smooth="yes"/>
      <point x="103" y="509"/>
      <point x="129" y="540"/>
      <point x="166" y="540" type="curve" smooth="yes"/>
      <point x="203" y="540"/>
      <point x="231" y="507"/>
      <point x="231" y="470" type="curve" smooth="yes"/>
      <point x="231" y="430"/>
      <point x="205" y="400"/>
    </contour>
  </outline>
</glyph>
<glyph name="plusminus" format="1">
  <advance width="424"/>
  <unicode hex="00B1"/>
  <outline>
    <contour>
      <point x="255" y="120" type="line"/>
      <point x="255" y="185" type="line"/>
      <point x="253" y="239" type="line"/>
      <point x="307" y="237" type="line"/>
      <point x="383" y="237" type="line"/>
      <point x="383" y="314" type="line"/>
      <point x="307" y="314" type="line"/>
      <point x="253" y="312" type="line"/>
      <point x="255" y="367" type="line"/>
      <point x="255" y="437" type="line"/>
      <point x="169" y="437" type="line"/>
      <point x="169" y="367" type="line"/>
      <point x="172" y="312" type="line"/>
      <point x="117" y="314" type="line"/>
      <point x="41" y="314" type="line"/>
      <point x="41" y="237" type="line"/>
      <point x="117" y="237" type="line"/>
      <point x="172" y="239" type="line"/>
      <point x="169" y="185" type="line"/>
      <point x="169" y="120" type="line"/>
    </contour>
    <contour>
      <point x="379" y="0" type="line"/>
      <point x="379" y="76" type="line"/>
      <point x="45" y="76" type="line"/>
      <point x="45" y="0" type="line"/>
    </contour>
  </outline>
</glyph>
<glyph name="twosuperior" format="1">
  <advance width="377"/>
  <unicode hex="00B2"/>
  <outline>
    <contour>
      <point x="48" y="227" type="line"/>
      <point x="328" y="227" type="line"/>
      <point x="338" y="262"/>
      <point x="343" y="313"/>
      <point x="345" y="348" type="curve"/>
      <point x="294" y="354" type="line"/>
      <point x="273" y="311" type="line" smooth="yes"/>
      <point x="268" y="300"/>
      <point x="255" y="290"/>
      <point x="204" y="290" type="curve" smooth="yes"/>
      <point x="96" y="290" type="line"/>
      <point x="103" y="269" type="line"/>
      <point x="188" y="303"/>
      <point x="314" y="380"/>
      <point x="314" y="482" type="curve" smooth="yes"/>
      <point x="314" y="543"/>
      <point x="268" y="596"/>
      <point x="177" y="596" type="curve" smooth="yes"/>
      <point x="98" y="596"/>
      <point x="54" y="556"/>
      <point x="40" y="517" type="curve"/>
      <point x="64" y="493" type="line"/>
      <point x="87" y="515"/>
      <point x="116" y="529"/>
      <point x="145" y="529" type="curve" smooth="yes"/>
      <point x="187" y="529"/>
      <point x="208" y="503"/>
      <point x="208" y="467" type="curve" smooth="yes"/>
      <point x="208" y="401"/>
      <point x="136" y="339"/>
      <point x="35" y="270" type="curve"/>
    </contour>
  </outline>
</glyph>
<glyph name="threesuperior" format="1">
  <advance width="351"/>
  <unicode hex="00B3"/>
  <outline>
    <contour>
      <point x="29" y="269" type="line"/>
      <point x="60" y="239"/>
      <point x="107" y="221"/>
      <point x="166" y="221" type="curve" smooth="yes"/>
      <point x="266" y="221"/>
      <point x="323" y="271"/>
      <point x="323" y="330" type="curve" smooth="yes"/>
      <point x="323" y="391"/>
      <point x="267" y="419"/>
      <point x="212" y="419" type="curve"/>
      <point x="255" y="426"/>
      <point x="298" y="456"/>
      <point x="298" y="504" type="curve" smooth="yes"/>
      <point x="298" y="560"/>
      <point x="242" y="596"/>
      <point x="170" y="596" type="curve" smooth="yes"/>
      <point x="119" y="596"/>
      <point x="62" y="577"/>
      <point x="40" y="532" type="curve"/>
      <point x="63" y="505" type="line"/>
      <point x="85" y="523"/>
      <point x="112" y="531"/>
      <point x="138" y="531" type="curve" smooth="yes"/>
      <point x="170" y="531"/>
      <point x="199" y="518"/>
      <point x="199" y="485" type="curve" smooth="yes"/>
      <point x="199" y="453"/>
      <point x="172" y="429"/>
      <point x="112" y="429" type="curve" smooth="yes"/>
      <point x="104" y="429" type="line"/>
      <point x="104" y="384" type="line"/>
      <point x="141" y="384" type="line" smooth="yes"/>
      <point x="191" y="384"/>
      <point x="216" y="369"/>
      <point x="216" y="337" type="curve" smooth="yes"/>
      <point x="216" y="303"/>
      <point x="188" y="283"/>
      <point x="143" y="283" type="curve" smooth="yes"/>
      <point x="109" y="283"/>
      <point x="74" y="294"/>
      <point x="52" y="308" type="curve"/>
    </contour>
  </outline>
</glyph>
<glyph name="paragraph" format="1">
  <advance width="577"/>
  <unicode hex="00B6"/>
  <outline>
    <contour>
      <point x="107" y="-145" type="line"/>
      <point x="240" y="-112"/>
      <point x="288" y="-63"/>
      <point x="288" y="75" type="curve" smooth="yes"/>
      <point x="288" y="511" type="line"/>
      <point x="312" y="511"/>
      <point x="346" y="508"/>
      <point x="367" y="507" type="curve"/>
      <point x="367" y="0" type="line"/>
      <point x="543" y="0" type="line"/>
      <point x="543" y="52" type="line"/>
      <point x="486" y="63" type="line" smooth="yes"/>
      <point x="475" y="65"/>
      <point x="469" y="72"/>
      <point x="469" y="83" type="curve" smooth="yes"/>
      <point x="469" y="482" type="line" smooth="yes"/>
      <point x="469" y="493"/>
      <point x="475" y="500"/>
      <point x="486" y="502" type="curve" smooth="yes"/>
      <point x="539" y="513" type="line"/>
      <point x="539" y="568" type="line"/>
      <point x="457" y="568" type="line" smooth="yes"/>
      <point x="360" y="568"/>
      <point x="278" y="579"/>
      <point x="211" y="579" type="curve" smooth="yes"/>
      <point x="81" y="579"/>
      <point x="24" y="511"/>
      <point x="24" y="418" type="curve" smooth="yes"/>
      <point x="24" y="302"/>
      <point x="107" y="252"/>
      <point x="187" y="242" type="curve"/>
      <point x="187" y="112" type="line" smooth="yes"/>
      <point x="187" y="-6"/>
      <point x="167" y="-48"/>
      <point x="84" y="-89" type="curve"/>
    </contour>
  </outline>
</glyph>
<glyph name="onesuperior" format="1">
  <advance width="353"/>
  <unicode hex="00B9"/>
  <outline>
    <contour>
      <point x="240" y="586" type="line"/>
      <point x="179" y="597" type="line"/>
      <point x="136" y="562"/>
      <point x="85" y="536"/>
      <point x="38" y="525" type="curve"/>
      <point x="49" y="476" type="line"/>
      <point x="82" y="478"/>
      <point x="116" y="483"/>
      <point x="144" y="492" type="curve"/>
      <point x="144" y="308" type="line" smooth="yes"/>
      <point x="144" y="296"/>
      <point x="139" y="292"/>
      <point x="127" y="290" type="curve" smooth="yes"/>
      <point x="47" y="278" type="line"/>
      <point x="47" y="227" type="line"/>
      <point x="329" y="227" type="line"/>
      <point x="329" y="278" type="line"/>
      <point x="256" y="290" type="line" smooth="yes"/>
      <point x="244" y="292"/>
      <point x="240" y="296"/>
      <point x="240" y="308" type="curve" smooth="yes"/>
    </contour>
  </outline>
</glyph>
<glyph name="ordmasculine" format="1">
  <advance width="404"/>
  <unicode hex="00BA"/>
  <outline>
    <contour>
      <point x="248" y="404" type="curve" smooth="yes"/>
      <point x="248" y="315"/>
      <point x="233" y="289"/>
      <point x="203" y="289" type="curve" smooth="yes"/>
      <point x="166" y="289"/>
      <point x="155" y="316"/>
      <point x="155" y="412" type="curve" smooth="yes"/>
      <point x="155" y="502"/>
      <point x="171" y="528"/>
      <point x="201" y="528" type="curve" smooth="yes"/>
      <point x="237" y="528"/>
      <point x="248" y="501"/>
    </contour>
    <contour>
      <point x="31" y="404" type="curve" smooth="yes"/>
      <point x="31" y="289"/>
      <point x="96" y="243"/>
      <point x="197" y="243" type="curve" smooth="yes"/>
      <point x="298" y="243"/>
      <point x="373" y="285"/>
      <point x="373" y="412" type="curve" smooth="yes"/>
      <point x="373" y="528"/>
      <point x="308" y="574"/>
      <point x="207" y="574" type="curve" smooth="yes"/>
      <point x="106" y="574"/>
      <point x="31" y="531"/>
    </contour>
    <contour>
      <point x="181" y="204" type="move" name="btm"/>
    </contour>
    <contour>
      <point x="200" y="721" type="move" name="top"/>
    </contour>
  </outline>
</glyph>
<glyph name="questiondown" format="1">
  <advance width="415"/>
  <unicode hex="00BF"/>
  <outline>
    <contour>
      <point x="195" y="235" type="line"/>
      <point x="187" y="181" type="line" smooth="yes"/>
      <point x="182" y="149"/>
      <point x="180" y="150"/>
      <point x="143" y="123" type="curve" smooth="yes"/>
      <point x="71" y="73"/>
      <point x="21" y="27"/>
      <point x="21" y="-49" type="curve" smooth="yes"/>
      <point x="21" y="-145"/>
      <point x="100" y="-219"/>
      <point x="221" y="-219" type="curve" smooth="yes"/>
      <point x="291" y="-219"/>
      <point x="353" y="-194"/>
      <point x="393" y="-160" type="curve"/>
      <point x="390" y="-111"/>
      <point x="380" y="-57"/>
      <point x="364" y="-12" type="curve"/>
      <point x="286" y="-12" type="line"/>
      <point x="276" y="-98" type="line" smooth="yes"/>
      <point x="273" y="-115"/>
      <point x="270" y="-124"/>
      <point x="261" y="-135" type="curve" smooth="yes"/>
      <point x="252" y="-145"/>
      <point x="236" y="-157"/>
      <point x="214" y="-157" type="curve" smooth="yes"/>
      <point x="179" y="-157"/>
      <point x="156" y="-126"/>
      <point x="156" y="-85" type="curve" smooth="yes"/>
      <point x="156" y="-39"/>
      <point x="179" y="-5"/>
      <point x="228" y="40" type="curve" smooth="yes"/>
      <point x="269" y="78"/>
      <point x="303" y="101"/>
      <point x="303" y="145" type="curve" smooth="yes"/>
      <point x="303" y="175"/>
      <point x="284" y="211"/>
      <point x="271" y="235" type="curve"/>
    </contour>
    <contour>
      <point x="188" y="425"/>
      <point x="159" y="399"/>
      <point x="159" y="360" type="curve" smooth="yes"/>
      <point x="159" y="321"/>
      <point x="188" y="295"/>
      <point x="232" y="295" type="curve" smooth="yes"/>
      <point x="277" y="295"/>
      <point x="305" y="320"/>
      <point x="305" y="360" type="curve" smooth="yes"/>
      <point x="305" y="400"/>
      <point x="277" y="425"/>
      <point x="232" y="425" type="curve" smooth="yes"/>
    </contour>
  </outline>
</glyph>
<glyph name="AE" format="1">
  <advance width="780"/>
  <unicode hex="00C6"/>
  <outline>
    <contour>
      <point x="740" y="0" type="line"/>
      <point x="749" y="59"/>
      <point x="753" y="112"/>
      <point x="753" y="171" type="curve"/>
      <point x="689" y="181" type="line"/>
      <point x="657" y="91" type="line" smooth="yes"/>
      <point x="653" y="78"/>
      <point x="649" y="72"/>
      <point x="638" y="67" type="curve" smooth="yes"/>
      <point x="625" y="62"/>
      <point x="596" y="59"/>
      <point x="572" y="59" type="curve" smooth="yes"/>
      <point x="495" y="59" type="line"/>
      <point x="495" y="253" type="line"/>
      <point x="652" y="249" type="line"/>
      <point x="652" y="323" type="line"/>
      <point x="495" y="317" type="line"/>
      <point x="495" y="512" type="line"/>
      <point x="557" y="512" type="line" smooth="yes"/>
      <point x="581" y="512"/>
      <point x="605" y="508"/>
      <point x="617" y="504" type="curve" smooth="yes"/>
      <point x="628" y="499"/>
      <point x="635" y="493"/>
      <point x="639" y="480" type="curve" smooth="yes"/>
      <point x="658" y="413" type="line"/>
      <point x="723" y="413" type="line"/>
      <point x="727" y="466"/>
      <point x="727" y="517"/>
      <point x="721" y="568" type="curve"/>
      <point x="364" y="568" type="line"/>
      <point x="364" y="83" type="line" smooth="yes"/>
      <point x="364" y="72"/>
      <point x="358" y="65"/>
      <point x="347" y="63" type="curve" smooth="yes"/>
      <point x="290" y="52" type="line"/>
      <point x="290" y="0" type="line"/>
    </contour>
    <contour>
      <point x="215" y="0" type="line"/>
      <point x="215" y="52" type="line"/>
      <point x="143" y="63" type="line"/>
      <point x="329" y="506" type="line"/>
      <point x="391" y="506" type="line"/>
      <point x="393" y="568" type="line"/>
      <point x="278" y="568" type="line"/>
      <point x="67" y="81" type="line" smooth="yes"/>
      <point x="63" y="72"/>
      <point x="57" y="67"/>
      <point x="48" y="64" type="curve" smooth="yes"/>
      <point x="-7" y="52" type="line"/>
      <point x="-7" y="0" type="line"/>
    </contour>
    <contour>
      <point x="413" y="199" type="line"/>
      <point x="413" y="261" type="line"/>
      <point x="181" y="261" type="line"/>
      <point x="162" y="199" type="line"/>
    </contour>
    <contour>
      <point x="296" y="568" type="line"/>
      <point x="155" y="568" type="line"/>
      <point x="155" y="513" type="line"/>
      <point x="268" y="495" type="line"/>
    </contour>
    <contour>
      <point x="401" y="0" type="move" name="btm"/>
    </contour>
    <contour>
      <point x="427" y="568" type="move" name="top"/>
    </contour>
  </outline>
</glyph>
<glyph name="multiply" format="1">
  <advance width="403"/>
  <unicode hex="00D7"/>
  <outline>
    <contour>
      <point x="98" y="56" type="line"/>
      <point x="201" y="169" type="line"/>
      <point x="305" y="56" type="line"/>
      <point x="367" y="120" type="line"/>
      <point x="259" y="224" type="line"/>
      <point x="367" y="328" type="line"/>
      <point x="304" y="393" type="line"/>
      <point x="201" y="280" type="line"/>
      <point x="99" y="393" type="line"/>
      <point x="36" y="328" type="line"/>
      <point x="144" y="224" type="line"/>
      <point x="36" y="120" type="line"/>
    </contour>
  </outline>
</glyph>
<glyph name="Oslash" format="1">
  <advance width="581"/>
  <unicode hex="00D8"/>
  <outline>
    <contour>
      <point x="452" y="-12"/>
      <point x="544" y="101"/>
      <point x="544" y="294" type="curve" smooth="yes"/>
      <point x="544" y="470"/>
      <point x="468" y="580"/>
      <point x="297" y="580" type="curve" smooth="yes"/>
      <point x="123" y="580"/>
      <point x="31" y="467"/>
      <point x="31" y="273" type="curve" smooth="yes"/>
      <point x="31" y="97"/>
      <point x="107" y="-12"/>
      <point x="278" y="-12" type="curve" smooth="yes"/>
    </contour>
    <contour>
      <point x="201" y="14" type="line"/>
      <point x="205" y="37" type="line"/>
      <point x="416" y="503" type="line"/>
      <point x="436" y="521" type="line"/>
      <point x="480" y="610" type="line"/>
      <point x="422" y="641" type="line"/>
      <point x="375" y="544" type="line"/>
      <point x="370" y="521" type="line"/>
      <point x="159" y="55" type="line"/>
      <point x="139" y="37" type="line"/>
      <point x="93" y="-55" type="line"/>
      <point x="152" y="-85" type="line"/>
    </contour>
    <contour>
      <point x="211" y="43"/>
      <point x="174" y="108"/>
      <point x="174" y="280" type="curve" smooth="yes"/>
      <point x="174" y="457"/>
      <point x="213" y="524"/>
      <point x="289" y="524" type="curve" smooth="yes"/>
      <point x="364" y="524"/>
      <point x="400" y="461"/>
      <point x="400" y="289" type="curve" smooth="yes"/>
      <point x="400" y="112"/>
      <point x="361" y="43"/>
      <point x="285" y="43" type="curve" smooth="yes"/>
    </contour>
    <contour>
      <point x="289" y="-62" type="move" name="btm"/>
    </contour>
    <contour>
      <point x="292" y="618" type="move" name="top"/>
    </contour>
  </outline>
</glyph>
<glyph name="Thorn" format="1">
  <advance width="533"/>
  <unicode hex="00DE"/>
  <outline>
    <contour>
      <point x="314" y="0" type="line"/>
      <point x="314" y="52" type="line"/>
      <point x="254" y="63" type="line" smooth="yes"/>
      <point x="243" y="65"/>
      <point x="237" y="72"/>
      <point x="237" y="84" type="curve" smooth="yes"/>
      <point x="237" y="481" type="line" smooth="yes"/>
      <point x="237" y="493"/>
      <point x="243" y="500"/>
      <point x="254" y="502" type="curve" smooth="yes"/>
      <point x="314" y="513" type="line"/>
      <point x="314" y="568" type="line"/>
      <point x="34" y="568" type="line"/>
      <point x="34" y="513" type="line"/>
      <point x="84" y="502" type="line" smooth="yes"/>
      <point x="95" y="500"/>
      <point x="101" y="493"/>
      <point x="101" y="481" type="curve" smooth="yes"/>
      <point x="101" y="83" type="line" smooth="yes"/>
      <point x="101" y="72"/>
      <point x="95" y="65"/>
      <point x="84" y="63" type="curve" smooth="yes"/>
      <point x="34" y="52" type="line"/>
      <point x="34" y="0" type="line"/>
    </contour>
    <contour>
      <point x="440" y="118"/>
      <point x="509" y="173"/>
      <point x="509" y="294" type="curve" smooth="yes"/>
      <point x="509" y="400"/>
      <point x="454" y="448"/>
      <point x="343" y="448" type="curve" smooth="yes"/>
      <point x="305" y="448"/>
      <point x="261" y="443"/>
      <point x="221" y="439" type="curve"/>
      <point x="221" y="386" type="line"/>
      <point x="245" y="391"/>
      <point x="267" y="392"/>
      <point x="287" y="392" type="curve" smooth="yes"/>
      <point x="345" y="393"/>
      <point x="365" y="345"/>
      <point x="365" y="289" type="curve" smooth="yes"/>
      <point x="365" y="205"/>
      <point x="336" y="170"/>
      <point x="289" y="170" type="curve" smooth="yes"/>
      <point x="271" y="170"/>
      <point x="248" y="172"/>
      <point x="224" y="176" type="curve"/>
      <point x="224" y="123" type="line"/>
      <point x="253" y="120"/>
      <point x="279" y="118"/>
      <point x="315" y="118" type="curve" smooth="yes"/>
    </contour>
  </outline>
</glyph>
<glyph name="germandbls" format="1">
  <advance width="607"/>
  <unicode hex="00DF"/>
  <outline>
    <contour>
      <point x="592" y="122" type="curve" smooth="yes"/>
      <point x="592" y="183"/>
      <point x="558" y="216"/>
      <point x="491" y="256" type="curve" smooth="yes"/>
      <point x="440" y="287"/>
      <point x="414" y="305"/>
      <point x="414" y="334" type="curve" smooth="yes"/>
      <point x="414" y="367"/>
      <point x="447" y="389"/>
      <point x="495" y="400" type="curve"/>
      <point x="508" y="435"/>
      <point x="515" y="467"/>
      <point x="515" y="497" type="curve" smooth="yes"/>
      <point x="513" y="603"/>
      <point x="422" y="654"/>
      <point x="331" y="654" type="curve" smooth="yes"/>
      <point x="199" y="654"/>
      <point x="85" y="546"/>
      <point x="85" y="436" type="curve" smooth="yes"/>
      <point x="85" y="79" type="line" smooth="yes"/>
      <point x="85" y="68"/>
      <point x="79" y="61"/>
      <point x="68" y="59" type="curve" smooth="yes"/>
      <point x="29" y="52" type="line"/>
      <point x="29" y="0" type="line"/>
      <point x="216" y="0" type="line"/>
      <point x="216" y="473" type="line" smooth="yes"/>
      <point x="216" y="547"/>
      <point x="247" y="576"/>
      <point x="296" y="576" type="curve" smooth="yes"/>
      <point x="352" y="576"/>
      <point x="383" y="537"/>
      <point x="383" y="475" type="curve" smooth="yes"/>
      <point x="383" y="455"/>
      <point x="380" y="436"/>
      <point x="375" y="416" type="curve"/>
      <point x="326" y="391"/>
      <point x="288" y="352"/>
      <point x="288" y="296" type="curve" smooth="yes"/>
      <point x="288" y="241"/>
      <point x="323" y="208"/>
      <point x="374" y="178" type="curve" smooth="yes"/>
      <point x="423" y="149"/>
      <point x="461" y="126"/>
      <point x="461" y="85" type="curve" smooth="yes"/>
      <point x="461" y="57"/>
      <point x="439" y="40"/>
      <point x="411" y="40" type="curve" smooth="yes"/>
      <point x="393" y="40"/>
      <point x="378" y="47"/>
      <point x="368" y="56" type="curve" smooth="yes"/>
      <point x="359" y="63"/>
      <point x="356" y="69"/>
      <point x="351" y="86" type="curve" smooth="yes"/>
      <point x="336" y="141" type="line"/>
      <point x="271" y="141" type="line"/>
      <point x="267" y="119"/>
      <point x="265" y="94"/>
      <point x="265" y="69" type="curve" smooth="yes"/>
      <point x="265" y="53"/>
      <point x="266" y="35"/>
      <point x="268" y="19" type="curve"/>
      <point x="306" y="3"/>
      <point x="361" y="-11"/>
      <point x="416" y="-11" type="curve" smooth="yes"/>
      <point x="516" y="-11"/>
      <point x="592" y="33"/>
    </contour>
    <contour>
      <point x="130" y="339" type="line"/>
      <point x="130" y="417" type="line"/>
      <point x="100" y="417" type="line"/>
      <point x="24" y="402" type="line"/>
      <point x="24" y="352" type="line"/>
      <point x="100" y="339" type="line"/>
    </contour>
  </outline>
</glyph>
<glyph name="ae" format="1">
  <advance width="652"/>
  <unicode hex="00E6"/>
  <outline>
    <contour>
      <point x="620" y="91" type="curve"/>
      <point x="591" y="112" type="line"/>
      <point x="567" y="84"/>
      <point x="526" y="71"/>
      <point x="488" y="71" type="curve" smooth="yes"/>
      <point x="417" y="71"/>
      <point x="386" y="115"/>
      <point x="386" y="229" type="curve" smooth="yes"/>
      <point x="386" y="336"/>
      <point x="412" y="371"/>
      <point x="449" y="371" type="curve" smooth="yes"/>
      <point x="486" y="371"/>
      <point x="503" y="336"/>
      <point x="503" y="290" type="curve" smooth="yes"/>
      <point x="503" y="283"/>
      <point x="503" y="278"/>
      <point x="503" y="273" type="curve"/>
      <point x="343" y="273" type="line"/>
      <point x="343" y="225" type="line"/>
      <point x="617" y="225" type="line"/>
      <point x="620" y="242"/>
      <point x="623" y="265"/>
      <point x="623" y="283" type="curve" smooth="yes"/>
      <point x="623" y="365"/>
      <point x="572" y="424"/>
      <point x="460" y="424" type="curve" smooth="yes"/>
      <point x="325" y="424"/>
      <point x="259" y="338"/>
      <point x="259" y="202" type="curve" smooth="yes"/>
      <point x="259" y="74"/>
      <point x="317" y="-9"/>
      <point x="448" y="-9" type="curve" smooth="yes"/>
      <point x="528" y="-9"/>
      <point x="599" y="22"/>
    </contour>
    <contour>
      <point x="309" y="84" type="curve"/>
      <point x="294" y="109" type="line"/>
      <point x="267" y="82"/>
      <point x="235" y="64"/>
      <point x="201" y="64" type="curve" smooth="yes"/>
      <point x="170" y="64"/>
      <point x="158" y="79"/>
      <point x="158" y="109" type="curve" smooth="yes"/>
      <point x="158" y="140"/>
      <point x="171" y="167"/>
      <point x="219" y="169" type="curve" smooth="yes"/>
      <point x="281" y="173" type="line"/>
      <point x="281" y="222" type="line"/>
      <point x="185" y="216" type="line" smooth="yes"/>
      <point x="100" y="212"/>
      <point x="24" y="172"/>
      <point x="24" y="93" type="curve" smooth="yes"/>
      <point x="24" y="32"/>
      <point x="69" y="-8"/>
      <point x="149" y="-8" type="curve" smooth="yes"/>
      <point x="224" y="-8"/>
      <point x="282" y="27"/>
    </contour>
    <contour>
      <point x="364" y="247" type="line"/>
      <point x="357" y="355"/>
      <point x="324" y="424"/>
      <point x="209" y="424" type="curve" smooth="yes"/>
      <point x="125" y="424"/>
      <point x="60" y="387"/>
      <point x="36" y="322" type="curve"/>
      <point x="66" y="296" type="line"/>
      <point x="97" y="325"/>
      <point x="137" y="339"/>
      <point x="177" y="339" type="curve" smooth="yes"/>
      <point x="228" y="339"/>
      <point x="259" y="318"/>
      <point x="259" y="261" type="curve" smooth="yes"/>
      <point x="259" y="190" type="line"/>
    </contour>
    <contour>
      <point x="340" y="414" type="move" name="top"/>
    </contour>
  </outline>
</glyph>
<glyph name="eth" format="1">
  <advance width="477"/>
  <unicode hex="00F0"/>
  <outline>
    <contour>
      <point x="439" y="238" type="curve" smooth="yes"/>
      <point x="439" y="428"/>
      <point x="324" y="604"/>
      <point x="94" y="654" type="curve"/>
      <point x="71" y="608" type="line"/>
      <point x="249" y="515"/>
      <point x="303" y="417"/>
      <point x="303" y="218" type="curve" smooth="yes"/>
      <point x="303" y="92"/>
      <point x="284" y="48"/>
      <point x="237" y="48" type="curve" smooth="yes"/>
      <point x="189" y="48"/>
      <point x="172" y="105"/>
      <point x="172" y="199" type="curve" smooth="yes"/>
      <point x="172" y="309"/>
      <point x="195" y="340"/>
      <point x="238" y="340" type="curve" smooth="yes"/>
      <point x="271" y="340"/>
      <point x="295" y="324"/>
      <point x="311" y="298" type="curve"/>
      <point x="320" y="300" type="line"/>
      <point x="319" y="378"/>
      <point x="256" y="410"/>
      <point x="199" y="410" type="curve" smooth="yes"/>
      <point x="125" y="410"/>
      <point x="30" y="355"/>
      <point x="30" y="200" type="curve" smooth="yes"/>
      <point x="30" y="62"/>
      <point x="104" y="-8"/>
      <point x="225" y="-8" type="curve" smooth="yes"/>
      <point x="390" y="-8"/>
      <point x="439" y="113"/>
    </contour>
    <contour>
      <point x="252" y="525" type="line"/>
      <point x="379" y="596" type="line"/>
      <point x="343" y="653" type="line"/>
      <point x="214" y="568" type="line"/>
      <point x="80" y="491" type="line"/>
      <point x="115" y="433" type="line"/>
    </contour>
  </outline>
</glyph>
<glyph name="divide" format="1">
  <advance width="408"/>
  <unicode hex="00F7"/>
  <outline>
    <contour>
      <point x="375" y="188" type="line"/>
      <point x="375" y="264" type="line"/>
      <point x="33" y="264" type="line"/>
      <point x="33" y="188" type="line"/>
    </contour>
    <contour>
      <point x="270" y="88" type="curve" smooth="yes"/>
      <point x="270" y="124"/>
      <point x="244" y="147"/>
      <point x="204" y="147" type="curve" smooth="yes"/>
      <point x="164" y="147"/>
      <point x="138" y="124"/>
      <point x="138" y="88" type="curve" smooth="yes"/>
      <point x="138" y="53"/>
      <point x="164" y="29"/>
      <point x="204" y="29" type="curve" smooth="yes"/>
      <point x="244" y="29"/>
      <point x="270" y="53"/>
    </contour>
    <contour>
      <point x="270" y="363" type="curve" smooth="yes"/>
      <point x="270" y="399"/>
      <point x="244" y="422"/>
      <point x="204" y="422" type="curve" smooth="yes"/>
      <point x="164" y="422"/>
      <point x="138" y="399"/>
      <point x="138" y="363" type="curve" smooth="yes"/>
      <point x="138" y="327"/>
      <point x="164" y="304"/>
      <point x="204" y="304" type="curve" smooth="yes"/>
      <point x="244" y="304"/>
      <point x="270" y="327"/>
    </contour>
  </outline>
</glyph>
<glyph name="oslash" format="1">
  <advance width="478"/>
  <unicode hex="00F8"/>
  <outline>
    <contour>
      <point x="356" y="-9"/>
      <point x="448" y="48"/>
      <point x="448" y="212" type="curve" smooth="yes"/>
      <point x="448" y="357"/>
      <point x="372" y="425"/>
      <point x="245" y="425" type="curve" smooth="yes"/>
      <point x="123" y="425"/>
      <point x="29" y="366"/>
      <point x="29" y="203" type="curve" smooth="yes"/>
      <point x="29" y="58"/>
      <point x="106" y="-9"/>
      <point x="233" y="-9" type="curve" smooth="yes"/>
    </contour>
    <contour>
      <point x="183" y="9" type="line"/>
      <point x="187" y="30" type="line"/>
      <point x="334" y="360" type="line"/>
      <point x="353" y="377" type="line"/>
      <point x="394" y="461" type="line"/>
      <point x="340" y="489" type="line"/>
      <point x="296" y="399" type="line"/>
      <point x="292" y="378" type="line"/>
      <point x="144" y="48" type="line"/>
      <point x="125" y="31" type="line"/>
      <point x="84" y="-53" type="line"/>
      <point x="139" y="-81" type="line"/>
    </contour>
    <contour>
      <point x="180" y="43"/>
      <point x="159" y="88"/>
      <point x="159" y="213" type="curve" smooth="yes"/>
      <point x="159" y="333"/>
      <point x="187" y="372"/>
      <point x="237" y="372" type="curve" smooth="yes"/>
      <point x="297" y="372"/>
      <point x="319" y="327"/>
      <point x="319" y="202" type="curve" smooth="yes"/>
      <point x="319" y="82"/>
      <point x="291" y="43"/>
      <point x="241" y="43" type="curve" smooth="yes"/>
    </contour>
    <contour>
      <point x="216" y="-62" type="move" name="btm"/>
    </contour>
    <contour>
      <point x="238" y="618" type="move" name="top"/>
    </contour>
  </outline>
</glyph>
